<?xml version="1.0" encoding="UTF-8" standalone="no"?>
<!-- Created with Inkscape (http://www.inkscape.org/) -->

<svg
   version="1.1"
   id="svg1"
   width="291.39969"
   height="292.44974"
   viewBox="0 0 291.39969 292.44974"
   xmlns="http://www.w3.org/2000/svg"
   xmlns:svg="http://www.w3.org/2000/svg">
  <defs
     id="defs1">
    <clipPath
       clipPathUnits="userSpaceOnUse"
       id="clipPath2">
      <path
         d="M 0,202.857 H 202.856 V 0.06 H 0 Z"
         id="path2" />
    </clipPath>
  </defs>
  <g
     id="g1"
     transform="translate(10.090786,10.184644)">
    <rect
       style="fill:#ffffff;stroke-width:6.31449"
       id="rect39"
       width="291.39969"
       height="292.44974"
       x="-10.090786"
       y="-10.184645" />
    <path
       id="path1"
       d="M 101.428,2 C 46.604,2 2,46.603 2,101.428 c 0,54.825 44.604,99.429 99.428,99.429 54.825,0 99.428,-44.604 99.428,-99.429 C 200.856,46.603 156.253,2 101.428,2 Z m 0,200.857 C 45.5,202.857 0,157.356 0,101.428 0,45.501 45.5,0 101.428,0 c 55.927,0 101.428,45.501 101.428,101.428 0,55.928 -45.501,101.429 -101.428,101.429"
       style="fill:#231f20;fill-opacity:1;fill-rule:nonzero;stroke:none"
       transform="matrix(1.3333333,0,0,-1.3333333,0,270.66667)"
       clip-path="url(#clipPath2)" />
    <path
       id="path3"
       d="m 59.783,146.388 c 4.081,0.712 8.197,0.98 12.329,0.768 4.833,-0.249 9.527,-1.157 13.875,-3.404 1.042,-0.538 2.018,-1.205 3.022,-1.815 0.16,-0.096 0.313,-0.204 0.469,-0.306 0.046,0.026 0.092,0.053 0.138,0.08 -0.75,2.27 -1.501,4.541 -2.28,6.9 0.14,-0.086 0.218,-0.119 0.279,-0.173 2.972,-2.608 6.368,-4.535 9.92,-6.214 3.505,-1.656 6.815,-3.615 9.636,-6.315 2.703,-2.585 4.655,-5.598 5.232,-9.38 0.132,-0.865 0.141,-0.87 -1.005,-1.087 -1.319,5.238 -4.282,9.35 -8.647,12.467 -0.04,-0.031 -0.08,-0.062 -0.12,-0.093 0.134,-0.136 0.263,-0.279 0.404,-0.408 2.564,-2.362 4.792,-4.99 6.173,-8.228 0.495,-1.162 0.76,-2.422 1.137,-3.636 0.125,-0.405 0.012,-0.661 -0.4,-0.802 -0.302,-0.103 -0.59,-0.249 -0.957,-0.408 -0.427,3.243 -1.529,6.125 -3.602,8.587 -0.251,0.298 -0.524,0.578 -0.857,0.797 0.565,-1 1.17,-1.98 1.688,-3.004 1.002,-1.98 1.681,-4.061 1.814,-6.301 0.029,-0.48 -0.127,-0.755 -0.556,-0.944 -0.418,-0.185 -0.856,-0.643 -1.208,-0.576 -0.35,0.067 -0.588,0.653 -0.902,0.986 -1.574,1.669 -3.162,3.324 -4.728,5.001 -0.176,0.188 -0.36,0.493 -0.339,0.724 0.309,3.286 -0.835,6.086 -2.898,8.536 -0.851,1.012 -1.887,1.867 -2.843,2.79 -0.076,0.073 -0.184,0.115 -0.313,0.144 2.993,-2.975 5.579,-6.125 4.924,-10.916 -9.513,7.672 -20.437,11.414 -32.335,12.613 6.783,-1.133 13.323,-3.06 19.531,-6.115 -3.621,-1.166 -7.351,-1.179 -11.09,-1.106 -0.001,-0.06 -0.003,-0.119 -0.004,-0.179 0.905,-0.106 1.808,-0.255 2.716,-0.311 3.269,-0.201 6.509,0.072 9.724,0.683 0.213,0.041 0.483,0.051 0.664,-0.045 2.36,-1.241 4.61,-2.658 6.713,-4.304 0.027,-0.021 0.036,-0.065 0.099,-0.184 -6.344,-2.616 -12.875,-2.562 -19.516,-1.695 0.791,-0.186 1.577,-0.403 2.375,-0.552 6.123,-1.147 12.164,-0.794 18.114,1.054 0.342,0.106 0.574,0.068 0.835,-0.157 2.707,-2.334 5.043,-4.99 6.995,-7.988 0.219,-0.337 0.171,-0.523 -0.146,-0.748 -2.38,-1.692 -4.559,-3.621 -6.651,-5.655 -0.189,-0.184 -0.543,-0.278 -0.821,-0.279 -3.121,-0.017 -6.248,0.105 -9.363,-0.037 -2.902,-0.133 -5.811,-0.413 -8.683,-0.853 -4.13,-0.632 -8.229,-1.465 -12.34,-2.219 -0.318,-0.058 -0.627,-0.165 -0.925,-0.329 3.278,0.452 6.55,0.957 9.835,1.342 3.306,0.386 6.626,0.653 9.955,0.877 -1.281,-0.491 -2.635,-0.751 -3.9,-1.702 3.507,-0.215 6.729,-0.79 9.569,-2.944 -0.781,-0.59 -1.388,-1.204 -2.26,-1.502 -1.198,-0.41 -2.357,-0.935 -3.547,-1.372 -0.396,-0.145 -0.836,-0.246 -1.255,-0.24 -2.059,0.027 -4.118,0.108 -6.178,0.143 -0.394,0.007 -0.791,-0.106 -1.185,-0.218 2.346,0.072 4.657,-0.139 7.143,-0.666 -0.929,-0.801 -1.631,-1.701 -2.552,-2.151 -5.834,-2.854 -12,-4.624 -18.451,-5.376 C 58.101,97.461 53.966,97.417 49.831,97.924 49.59,97.953 49.344,97.928 49.1,97.878 56.24,96.484 63.371,96.639 70.521,98 67.482,94.631 63.63,92.586 59.494,90.934 c 0.27,0.054 0.545,0.091 0.809,0.166 4.502,1.276 8.378,3.581 11.541,7.059 0.135,0.148 0.322,0.281 0.511,0.344 2.303,0.761 4.612,1.509 6.92,2.258 0.033,0.01 0.073,-0.003 0.164,-0.009 -0.04,-0.149 -0.081,-0.286 -0.116,-0.425 -0.273,-1.083 -0.534,-2.17 -0.827,-3.248 -0.088,-0.324 -0.211,-0.664 -0.411,-0.926 -2.237,-2.931 -3.79,-6.173 -4.511,-9.802 -0.011,-0.057 -0.026,-0.114 -0.035,-0.171 -0.236,-1.4 -0.234,-1.409 -1.665,-1.676 -1.686,-0.313 -3.376,-0.609 -5.063,-0.914 -0.143,-0.026 -0.284,-0.066 -0.426,-0.099 0.007,-0.056 0.014,-0.112 0.021,-0.167 2.256,0.221 4.512,0.444 6.761,0.666 0.193,-0.924 0.132,-1.023 -0.685,-1.18 -2.79,-0.536 -5.604,-0.831 -8.445,-0.866 -0.187,-0.003 -0.374,-0.001 -0.719,-0.001 0.976,1.643 1.884,3.172 2.792,4.7 -0.016,0.053 -0.032,0.107 -0.048,0.16 -3.491,-0.866 -6.995,-0.965 -10.504,-0.276 -3.507,0.688 -6.707,2.095 -9.679,4.202 0.685,0.457 1.194,0.458 1.862,0.04 3.387,-2.117 7.105,-3.227 11.092,-3.424 0.304,-0.015 0.609,-0.002 0.927,0.069 -4.114,0.722 -8.197,1.502 -11.834,4.102 0.722,0.275 1.28,0.487 1.983,0.754 -4.807,2.313 -9.549,4.427 -13.316,8.282 0.173,0.03 0.23,0.059 0.27,0.044 2.393,-0.932 4.654,-0.509 6.842,0.667 2.906,1.563 5.841,3.065 8.982,4.111 2.243,0.747 4.533,1.25 6.916,1.198 0.269,-0.006 0.537,-0.05 0.805,-0.073 0.242,-0.02 0.483,-0.034 0.764,0.086 -2.509,1.223 -5.019,2.447 -7.55,3.681 0.071,0.109 0.09,0.175 0.131,0.197 1.421,0.758 2.532,1.862 3.573,3.075 1.107,1.291 2.62,1.941 4.227,2.366 3.425,0.906 6.768,0.403 10.074,-0.637 0.174,-0.055 0.351,-0.101 0.527,-0.152 0.034,0.043 0.067,0.085 0.101,0.128 -1.142,1.454 -2.283,2.908 -3.546,4.518 0.718,0 1.266,0.048 1.802,-0.009 1.565,-0.165 2.964,-0.79 4.293,-1.612 2.763,-1.709 5.768,-2.066 8.908,-1.48 0.956,0.178 1.872,0.537 2.478,1.367 0.912,1.251 0.463,2.47 -0.198,3.634 -0.663,1.166 -1.766,1.812 -2.967,2.289 -2.28,0.906 -4.703,1.179 -7.097,1.569 -3.275,0.534 -6.558,1.056 -9.559,2.583 -1.003,0.511 -1.933,1.165 -2.897,1.754 0.026,0.072 0.052,0.145 0.078,0.217 1.856,-0.068 3.713,-0.136 5.689,-0.209 -0.138,0.16 -0.174,0.231 -0.231,0.262 -2.339,1.264 -4.09,3.169 -5.495,5.36 -1.665,2.596 -3.171,5.295 -4.822,8.077 7.633,2.335 15.231,1.863 22.853,0.296 0.01,0.072 0.019,0.144 0.028,0.216 -1.589,0.34 -3.17,0.732 -4.771,1.01 -4.787,0.829 -9.592,0.845 -14.397,0.168 -1.239,-0.174 -2.469,-0.42 -3.693,-0.678 -0.479,-0.101 -0.837,-0.081 -1.173,0.328 -0.248,0.303 -0.597,0.524 -1,0.866 1.145,0.22 2.193,0.436 3.245,0.619 z m 54.77,-22.682 c 1.19,-0.628 2.432,-1.156 3.649,-1.734 0.149,-0.071 0.279,-0.183 0.503,-0.333 -0.405,-0.31 -0.74,-0.59 -1.103,-0.828 -0.099,-0.065 -0.306,-0.054 -0.421,0.006 -1.587,0.825 -3.167,1.664 -4.747,2.501 -0.028,0.015 -0.039,0.061 -0.082,0.134 0.712,0.335 1.362,0.696 2.201,0.254 z m 4.928,4.048 c 2.325,1.025 4.66,2.037 7.035,2.937 2.067,0.782 4.03,1.738 5.885,2.93 0.096,0.061 0.195,0.117 0.292,0.175 0.045,-0.036 0.089,-0.073 0.134,-0.109 -0.67,-0.875 -1.297,-1.788 -2.019,-2.617 -1.751,-2.008 -3.925,-3.526 -6.04,-5.107 -0.864,-0.646 -1.742,-1.276 -2.639,-1.876 -0.18,-0.12 -0.524,-0.169 -0.71,-0.079 -1.471,0.714 -2.922,1.469 -4.524,2.285 0.891,0.509 1.701,1.07 2.586,1.461 z m 13.849,8.772 c 0.046,-0.043 0.092,-0.085 0.138,-0.127 -0.291,-0.352 -0.529,-0.772 -0.88,-1.046 -2.321,-1.812 -4.933,-3.064 -7.719,-3.985 -1.369,-0.453 -2.71,-0.992 -4.063,-1.492 4.388,1.797 8.792,3.58 12.524,6.65 z m 3.864,7.187 c 0.308,2.927 0.152,5.821 -0.556,8.682 -0.173,0.702 0.492,0.857 0.864,1.412 0.084,-0.569 0.164,-0.959 0.196,-1.353 0.398,-4.913 0.165,-9.762 -1.429,-14.481 -1.258,-3.724 -3.368,-6.848 -6.479,-9.25 -3.204,-2.475 -6.448,-4.899 -9.676,-7.344 -0.053,-0.04 -0.12,-0.06 -0.253,0.018 0.975,0.767 1.94,1.549 2.929,2.298 2.228,1.688 4.574,3.235 6.682,5.061 4.539,3.93 7.091,8.962 7.722,14.957 z m -3.316,-24.002 c -0.206,-1.368 -0.272,-2.758 -0.401,-4.138 -0.041,0.001 -0.082,0.002 -0.122,0.002 0.054,1.245 0.056,2.495 0.176,3.734 0.225,2.327 0.065,4.586 -0.951,6.728 -0.164,0.346 -0.37,0.675 -0.587,0.992 -0.337,0.493 -0.348,0.486 0.226,0.945 0.1,-0.158 0.215,-0.301 0.29,-0.462 1.149,-2.478 1.786,-5.035 1.369,-7.801 z m 0.61,-8.758 c -0.203,-0.099 -0.375,-0.176 -0.541,-0.264 -0.426,-0.226 -0.639,-0.076 -0.819,0.358 -1.865,4.484 -4.857,8.075 -8.722,10.965 -0.168,0.125 -0.328,0.26 -0.57,0.451 0.599,0.385 1.152,0.717 1.68,1.085 1.282,0.892 2.573,1.772 3.815,2.717 0.44,0.336 0.666,0.257 0.984,-0.111 1.576,-1.824 2.309,-3.944 2.231,-6.344 -0.025,-0.712 -0.119,-1.422 -0.195,-2.131 -0.257,-2.386 0.312,-4.521 1.895,-6.355 0.084,-0.098 0.143,-0.218 0.242,-0.371 z m 3.272,-9.289 c 0.049,0.013 0.098,0.026 0.147,0.039 -0.606,2.613 -1.213,5.227 -1.846,7.956 0.737,-0.38 1.328,-0.74 1.96,-0.997 0.694,-0.282 1.418,-0.498 2.142,-0.684 0.365,-0.094 0.592,-0.229 0.627,-0.622 0.115,-1.286 0.239,-2.571 0.355,-3.857 0.012,-0.13 10e-4,-0.262 0.055,-0.392 0.395,1.522 0.282,3.057 0.066,4.581 0.805,0.219 0.906,0.172 0.992,-0.544 0.314,-2.624 0.135,-5.203 -0.743,-7.713 -0.056,-0.159 -0.103,-0.321 -0.153,-0.482 0.044,-0.02 0.088,-0.04 0.132,-0.06 0.207,0.437 0.448,0.861 0.613,1.313 0.824,2.255 0.999,4.589 0.8,6.964 -0.011,0.135 -0.081,0.31 -0.023,0.396 0.113,0.163 0.282,0.32 0.462,0.388 0.066,0.026 0.323,-0.196 0.336,-0.321 0.444,-4.208 -0.118,-8.175 -2.862,-11.592 -0.955,-1.19 -1.004,-1.186 -2.411,-0.657 -3.939,1.48 -6.409,4.416 -8.068,8.158 -0.126,0.282 -0.232,0.573 -0.341,0.862 -0.28,0.748 -0.268,0.773 0.505,1.103 1.331,-3.15 2.999,-6.047 6.079,-7.865 -0.044,0.064 -0.08,0.133 -0.131,0.189 -0.066,0.07 -0.145,0.127 -0.217,0.191 -2.278,2.012 -3.884,4.474 -4.882,7.339 -0.246,0.704 -0.193,0.79 0.599,1.098 0.576,-1.892 1.389,-3.663 2.811,-5.112 -0.09,0.165 -0.172,0.334 -0.271,0.494 -0.856,1.392 -1.467,2.886 -1.889,4.464 -0.121,0.449 -0.072,0.777 0.294,1.131 0.772,0.749 1.478,1.567 2.305,2.459 0.866,-2.787 1.712,-5.507 2.557,-8.227 z m 8.029,12.587 c 1.86,2.216 4.341,2.645 7.074,2.304 -3.429,-1.509 -5.789,-4.507 -8.935,-6.382 1.021,1.307 2.004,2.647 3.081,3.906 0.475,0.556 1.141,0.948 1.79,1.47 -0.263,-0.075 -0.52,-0.077 -0.674,-0.204 -0.736,-0.608 -1.49,-1.206 -2.153,-1.89 -0.962,-0.993 -1.843,-2.065 -2.777,-3.086 -0.599,-0.655 -1.365,-0.694 -2.364,-0.477 2.246,0.944 3.559,2.691 4.958,4.359 z m 9.137,-3.557 c 3.642,-1.043 5.601,-3.632 6.109,-7.548 0.291,-2.245 -0.131,-4.423 -0.79,-6.566 -0.165,-0.537 -0.472,-0.363 -0.804,-0.247 -4.199,1.462 -7.697,3.943 -10.58,7.313 -0.551,0.643 -1.052,1.331 -1.57,2.002 -0.043,0.055 -0.046,0.141 -0.066,0.208 2.399,1.374 6.903,2.455 9.521,-0.21 -0.16,0.249 -0.293,0.52 -0.483,0.743 -1.183,1.384 -2.778,1.642 -4.465,1.56 -1.631,-0.08 -3.194,-0.51 -4.714,-1.089 -0.343,-0.13 -0.593,-0.142 -0.749,0.234 -0.157,0.378 0.078,0.509 0.378,0.63 1.994,0.803 4.013,1.478 6.204,1.462 3.065,-0.022 5.343,-1.638 6.335,-4.563 0.257,-0.759 0.438,-1.545 0.654,-2.318 -0.027,3.837 -1.889,6.836 -5.548,7.449 -2.043,0.343 -4.033,0.041 -6.001,-0.495 -0.702,-0.191 -1.39,-0.429 -2.282,-0.708 0.147,0.322 0.179,0.586 0.316,0.662 2.67,1.491 5.475,2.358 8.535,1.481 z m 6.668,-12.477 c 0.584,-0.935 1.183,-1.757 1.64,-2.652 1.444,-2.832 1.674,-5.779 0.722,-8.822 -0.131,-0.418 -0.322,-0.567 -0.696,-0.362 -1.009,0.55 -2.022,1.096 -2.994,1.705 -0.217,0.137 -0.315,0.516 -0.397,0.803 -0.652,2.277 -1.653,4.366 -3.272,6.118 -0.443,0.48 -0.964,0.886 -1.426,1.349 -0.155,0.156 -0.239,0.384 -0.355,0.578 0.051,0.043 0.102,0.086 0.153,0.128 0.388,-0.156 0.77,-0.33 1.166,-0.464 1.112,-0.377 2.22,-0.771 3.348,-1.09 0.582,-0.164 1.03,-0.437 1.274,-0.977 0.451,-0.999 0.876,-2.01 1.303,-3.02 0.095,-0.223 0.156,-0.462 0.275,-0.68 0.019,1.182 -0.322,2.273 -0.822,3.322 -0.157,0.33 -0.323,0.665 -0.542,0.954 -0.293,0.387 -0.269,0.733 0.05,1.202 0.864,-1.204 1.518,-2.459 1.847,-3.837 0.326,-1.37 0.492,-2.779 0.75,-4.3 0.034,0.756 0.117,1.414 0.083,2.068 -0.122,2.352 -0.944,4.477 -2.181,6.456 -0.366,0.585 -0.369,0.639 0.074,1.521 z m 0.989,-21.062 c -0.14,-1.716 -0.164,-1.615 -1.687,-1.159 -1.783,0.534 -2.925,1.796 -3.67,3.455 -0.058,0.13 -0.103,0.342 -0.038,0.438 0.576,0.858 1.178,1.699 1.859,2.668 0.399,-1.017 0.766,-1.953 1.134,-2.89 0.049,0.012 0.097,0.024 0.145,0.036 -0.092,0.452 -0.15,0.914 -0.285,1.353 -0.158,0.515 -0.317,1.049 -0.593,1.504 -0.344,0.569 -0.129,1.004 0.144,1.598 1.352,-2.156 1.783,-4.466 1.989,-6.844 0.089,0.011 0.178,0.022 0.267,0.033 -0.073,0.909 -0.099,1.826 -0.23,2.727 -0.242,1.657 -0.807,3.224 -1.577,4.702 -0.307,0.588 -0.204,1.132 -0.157,1.706 0.052,0.024 0.104,0.049 0.156,0.073 0.399,-0.69 0.847,-1.357 1.189,-2.075 1.1,-2.316 1.561,-4.784 1.354,-7.325 z m -4.665,-10.678 c -0.266,-0.382 -0.536,-0.223 -0.782,-0.035 -0.322,0.243 -0.696,0.42 -0.44,1.013 0.58,1.339 1.144,2.697 1.553,4.095 0.289,0.985 0.318,2.048 0.452,3.078 0.028,0.202 0.004,0.41 0.004,0.657 0.519,-0.065 0.625,-0.348 0.636,-0.73 0.044,-1.517 -0.163,-2.999 -0.586,-4.454 -0.026,-0.089 -0.047,-0.179 -0.07,-0.268 0.919,1.481 1.003,3.167 1.086,4.853 0.056,0.007 0.111,0.013 0.165,0.02 0.066,-0.233 0.162,-0.463 0.192,-0.702 0.356,-2.829 -0.634,-5.263 -2.21,-7.527 z m -4.345,-3.25 c -0.194,0.154 -0.35,0.256 -0.481,0.384 -3.293,3.224 -5.714,7.015 -7.342,11.325 -0.121,0.321 -0.031,0.523 0.2,0.762 0.99,1.021 2.02,2.013 2.907,3.119 0.567,0.707 0.911,1.594 1.377,2.44 0.414,-0.314 0.863,-0.656 1.315,-0.994 0.139,-0.104 0.273,-0.242 0.431,-0.287 0.928,-0.266 1.211,-0.939 1.367,-1.831 0.404,-2.316 0.539,-4.638 0.411,-6.98 -0.026,-0.485 -0.045,-0.971 0.013,-1.457 0.724,3.122 0.597,6.255 0.074,9.421 0.767,0.11 0.979,-0.28 1.075,-0.868 0.702,-4.272 0.518,-8.464 -1.097,-12.532 -0.026,-0.065 -0.038,-0.136 -0.001,-0.221 1.241,1.976 1.736,4.189 1.982,6.47 0.247,2.293 0.127,4.582 -0.218,6.901 0.32,0.023 0.598,0.044 0.94,0.069 0.994,-5.605 0.127,-10.826 -2.953,-15.721 z m -3.691,-4.909 c -0.045,-0.081 -0.111,-0.15 -0.212,-0.288 -0.28,0.198 -0.563,0.359 -0.8,0.571 -1.24,1.106 -2.184,2.435 -2.92,3.923 -0.225,0.453 0.007,0.757 0.189,1.115 0.636,-1.023 1.255,-2.019 1.874,-3.015 0.059,0.033 0.118,0.067 0.177,0.1 -0.582,1.614 -2.035,2.987 -1.475,5.084 0.522,-1.226 0.982,-2.304 1.442,-3.383 0.051,0.021 0.102,0.042 0.154,0.063 -0.521,1.844 -1.504,3.589 -1.297,5.592 0.067,0.052 0.134,0.104 0.201,0.157 0.038,-0.108 0.055,-0.23 0.115,-0.322 0.863,-1.323 1.971,-2.417 3.178,-3.422 0.163,-0.136 0.34,-0.36 0.354,-0.554 0.145,-1.953 0.007,-3.864 -0.98,-5.621 z m 6.618,29.237 c -0.47,1.646 -1.548,2.867 -2.79,3.968 -0.645,0.571 -0.653,0.563 -0.059,1.334 1.514,-1.148 2.734,-2.525 3.443,-4.304 0.716,-1.797 0.686,-3.616 0.005,-5.439 0.612,0.775 0.905,1.664 0.992,2.62 0.223,2.436 -0.865,4.376 -2.379,6.137 -0.389,0.452 -0.8,0.903 -1.271,1.262 -0.51,0.388 -0.496,0.749 -0.095,1.263 0.187,-0.145 0.383,-0.283 0.562,-0.44 1.93,-1.702 3.521,-3.624 4.044,-6.245 0.441,-2.208 -0.201,-4.167 -1.385,-5.989 -0.398,-0.612 -0.872,-1.179 -1.357,-1.726 -0.126,-0.142 -0.457,-0.234 -0.638,-0.176 -3.426,1.105 -5.93,3.6 -6.349,7.274 -0.051,0.447 0.07,0.737 0.397,1.059 0.974,0.957 1.896,1.968 2.836,2.96 0.118,0.123 0.227,0.254 0.37,0.417 1.744,-1.161 3.03,-2.637 3.755,-4.627 -0.026,0.218 -0.022,0.444 -0.081,0.652 z m -7.187,6.387 c 0.941,1.846 1.142,3.742 0.998,5.721 0.958,-0.369 1.09,-0.563 1.075,-1.46 -0.042,-2.636 -0.798,-5.052 -2.223,-7.263 -0.1,-0.155 -0.188,-0.318 -0.225,-0.503 2.131,2.216 3.073,4.921 3.137,7.996 0.691,-0.213 0.962,-0.575 0.943,-1.251 -0.068,-2.546 -1.125,-4.699 -2.57,-6.702 -0.439,-0.609 -0.953,-1.164 -1.416,-1.755 -0.219,-0.28 -0.454,-0.374 -0.801,-0.253 -3.043,1.064 -5.643,2.724 -7.453,5.477 -0.243,0.369 -0.241,0.598 0.105,0.922 2.305,2.164 3.995,4.734 5.012,7.739 0.049,0.145 0.107,0.288 0.168,0.429 0.013,0.029 0.059,0.043 0.138,0.097 0.569,-0.485 1.149,-0.981 1.732,-1.475 0.22,-0.186 0.427,-0.403 0.676,-0.541 0.812,-0.45 1.076,-1.153 1.142,-2.045 0.112,-1.539 -0.011,-3.044 -0.402,-4.533 -0.034,-0.13 -0.066,-0.261 -0.092,-0.393 -0.006,-0.032 0.018,-0.07 0.056,-0.207 z m -4.338,-17.306 c -0.229,-0.135 -0.588,-0.146 -0.863,-0.088 -2.861,0.595 -5.011,2.219 -6.525,4.685 -0.491,0.8 -0.856,1.682 -1.236,2.546 -0.285,0.648 -0.191,0.799 0.559,1.15 1.048,-2.632 2.409,-5.026 5.028,-6.393 0.038,0.038 0.077,0.076 0.116,0.115 -0.291,0.226 -0.596,0.437 -0.871,0.681 -1.719,1.524 -2.877,3.411 -3.551,5.6 -0.207,0.673 -0.191,0.678 0.49,1.162 0.482,-1.551 1.029,-3.056 2.206,-4.23 -0.299,0.592 -0.652,1.164 -0.881,1.782 -0.321,0.864 -0.565,1.758 -0.805,2.649 -0.046,0.168 0.028,0.424 0.137,0.571 0.646,0.863 1.318,1.705 2.034,2.621 0.922,-2.845 1.843,-5.687 2.765,-8.528 0.048,0.014 0.095,0.028 0.143,0.042 -0.68,2.934 -1.361,5.869 -2.076,8.949 0.306,-0.145 0.498,-0.242 0.695,-0.328 0.74,-0.324 1.467,-0.688 2.229,-0.953 0.474,-0.163 0.772,-0.398 0.855,-0.891 0.2,-1.195 0.401,-2.39 0.597,-3.586 0.03,-0.184 0.032,-0.374 0.115,-0.557 0.306,1.508 0.096,2.988 -0.291,4.453 0.662,0.151 0.855,0.041 0.996,-0.596 0.568,-2.555 0.484,-5.062 -0.58,-7.492 -0.045,-0.104 -0.079,-0.212 -0.132,-0.353 0.672,0.489 1.372,2.17 1.486,3.898 0.093,1.411 0.019,2.833 0.019,4.27 0.319,-0.026 0.691,-0.049 0.777,-0.566 0.598,-3.604 0.076,-6.928 -2.436,-9.746 -0.293,-0.329 -0.626,-0.647 -1,-0.867 z M 143.99,61.047 c -0.039,-0.127 -0.1,-0.248 -0.149,-0.367 -3.396,0.69 -9.631,7.928 -10.415,12.062 0.268,0.143 0.532,0.285 0.866,0.465 1.798,-4.255 4.069,-8.165 8.178,-10.659 -0.057,0.079 -0.1,0.175 -0.173,0.234 -3.371,2.716 -5.606,6.219 -7.08,10.25 -0.265,0.722 -0.265,0.722 0.495,1.216 1.173,-3.055 2.664,-5.913 4.969,-8.274 -0.64,1.023 -1.308,2.029 -1.913,3.071 -1.02,1.759 -1.846,3.607 -2.399,5.568 -0.039,0.137 -0.056,0.324 0.004,0.44 0.503,0.945 1.028,1.878 1.579,2.876 1.801,-1.621 4.069,-2.267 6.419,-2.708 0.306,-0.058 0.472,-0.163 0.529,-0.492 0.807,-4.636 0.47,-9.194 -0.91,-13.682 z m -4.587,0.981 c -0.238,-0.851 -0.468,-0.977 -1.247,-0.582 -2.343,1.189 -4.282,2.801 -5.419,5.24 -0.092,0.199 -0.098,0.438 -0.041,0.7 1.022,-1.367 1.941,-2.776 3.44,-3.641 -0.629,0.741 -1.284,1.461 -1.877,2.229 -0.387,0.5 -0.717,1.053 -1.001,1.619 -0.109,0.217 -0.018,0.536 -0.018,0.808 0.06,0.013 0.12,0.027 0.18,0.04 0.294,-0.437 0.577,-0.882 0.885,-1.308 1.268,-1.758 2.852,-3.178 4.674,-4.338 0.283,-0.181 0.547,-0.329 0.424,-0.767 z m -8.951,5.323 c -0.342,-0.306 -0.579,-0.289 -0.836,0.088 -0.94,1.377 -1.791,2.815 -2.216,4.427 -0.161,0.611 0.109,1.336 0.182,2.01 0.063,0 0.126,10e-4 0.189,10e-4 0.389,-1.853 0.908,-3.652 2.12,-5.17 -0.911,2.152 -1.718,4.325 -1.66,6.783 0.543,-0.236 0.854,-0.513 0.924,-1.097 0.094,-0.781 0.29,-1.55 0.463,-2.319 0.044,-0.196 0.165,-0.374 0.358,-0.529 -0.149,0.95 -0.298,1.9 -0.468,2.987 0.747,-0.366 1.331,-0.765 1.976,-0.944 0.954,-0.26 1.098,-0.857 1.079,-1.716 -0.044,-1.833 -0.757,-3.314 -2.111,-4.521 z m -7.568,6.678 c -0.059,-0.043 -0.133,-0.066 -0.193,-0.094 -3.024,2.726 -6.308,13.088 -5.586,17.729 1.955,-0.303 3.796,-0.904 5.47,-1.969 1.733,-1.103 2.908,-2.609 3.175,-4.737 0.049,0.014 0.098,0.028 0.146,0.042 0,0.48 0.065,0.969 -0.011,1.436 -0.305,1.871 -1.557,3.052 -3.054,4.018 -1.586,1.024 -3.327,1.7 -5.154,2.148 -0.443,0.109 -0.753,0.272 -0.515,0.764 0.082,0.17 0.381,0.382 0.53,0.349 2.727,-0.609 5.382,-1.426 7.572,-3.263 2.479,-2.078 3.168,-4.757 2.371,-7.832 -0.274,-1.056 -0.728,-2.065 -1.094,-3.08 -0.033,0.003 0.019,-0.014 0.028,-0.001 1.387,2.029 2.282,4.217 1.969,6.731 -0.303,2.44 -1.777,4.135 -3.694,5.501 -1.892,1.349 -4.012,2.208 -6.23,2.846 -0.179,0.051 -0.356,0.108 -0.534,0.162 -0.024,0.057 -0.047,0.114 -0.07,0.171 0.19,0.123 0.394,0.371 0.568,0.352 2.699,-0.308 5.282,-0.992 7.423,-2.768 3.661,-3.039 4.714,-7.28 2.768,-11.726 -1.254,-2.863 -3.387,-4.987 -5.885,-6.779 z m -2.842,-11.543 c -0.406,-0.309 -0.675,-0.328 -0.908,0.13 -0.515,1.009 -1.028,2.02 -1.518,3.042 -0.276,0.573 -0.161,1.131 0.052,1.726 1.189,3.314 1.529,6.682 0.51,10.113 -0.113,0.378 -0.107,0.38 0.342,0.693 0.296,-0.47 0.569,-0.956 0.893,-1.405 0.756,-1.047 1.525,-2.085 2.312,-3.109 0.391,-0.509 0.67,-1.019 0.531,-1.696 -0.308,-1.503 -0.594,-3.01 -0.87,-4.418 0.006,0.008 0.124,0.13 0.202,0.274 0.76,1.396 1.183,2.897 1.219,4.481 0.014,0.622 0.309,0.888 0.905,1.13 -0.117,-3.596 -1.143,-6.765 -3.441,-9.484 0.052,-0.04 0.104,-0.08 0.156,-0.12 0.539,0.648 1.136,1.257 1.604,1.952 1.39,2.065 2.047,4.39 2.294,6.846 0.023,0.23 0.063,0.464 0.045,0.693 -0.054,0.724 0.349,1.136 0.996,1.475 0.028,-0.184 0.07,-0.342 0.074,-0.5 0.118,-4.819 -1.485,-8.846 -5.398,-11.823 z m -3.205,17.203 c -1.339,-1.886 -3.167,-3.156 -5.271,-4.004 -1.352,-0.544 -2.778,-0.906 -4.173,-1.343 -0.355,-0.111 -0.655,-0.086 -0.905,0.272 -2.103,3.015 -3.44,6.28 -3.348,10.034 0.015,0.597 0.167,0.848 0.826,0.936 3.636,0.489 6.954,1.812 9.929,3.979 0.093,0.066 0.19,0.129 0.289,0.188 0.031,0.018 0.074,0.018 0.159,0.036 0.379,-1.425 0.726,-2.826 1.133,-4.207 0.142,-0.482 0.119,-0.871 -0.112,-1.316 -0.964,-1.861 -2.229,-3.466 -3.883,-4.758 -0.13,-0.102 -0.249,-0.22 -0.337,-0.377 1.06,0.434 1.957,1.114 2.714,1.948 0.754,0.832 1.418,1.747 2.118,2.621 0.603,-1.047 0.594,-1.252 -0.091,-2.154 -1.845,-2.425 -4.187,-4.184 -7.03,-5.276 -0.169,-0.065 -0.334,-0.143 -0.479,-0.266 1.717,0.254 3.269,0.924 4.708,1.872 1.43,0.942 2.629,2.13 3.63,3.534 0.569,-0.751 0.59,-1.063 0.123,-1.719 z m -0.538,-12.243 c -0.888,-2.459 -2.628,-4.103 -4.975,-5.116 -0.951,-0.41 -1.962,-0.688 -2.961,-0.969 -0.217,-0.061 -0.615,0.037 -0.739,0.204 -2.541,3.427 -3.283,7.54 -0.985,11.364 0.123,0.206 0.416,0.382 0.659,0.432 1.657,0.34 3.327,0.616 4.98,0.975 0.448,0.099 0.618,0.029 0.749,-0.395 0.675,-2.176 0.869,-4.346 0.043,-6.543 0.712,0.88 0.953,1.938 0.925,3.017 -0.03,1.15 -0.185,2.305 -0.378,3.442 -0.165,0.974 -0.222,0.965 0.873,1.272 0.621,-2.1 0.877,-4.209 0.332,-6.368 -0.554,-2.201 -1.852,-3.864 -3.756,-5.087 0.029,-0.04 0.057,-0.081 0.086,-0.121 0.211,0.098 0.428,0.185 0.633,0.295 2.523,1.352 3.699,3.557 3.981,6.326 0.161,1.575 -0.024,3.123 -0.347,4.661 -0.186,0.884 -0.177,0.908 0.801,1.274 0.175,-0.858 0.384,-1.695 0.513,-2.545 0.314,-2.068 0.288,-4.119 -0.434,-6.118 z m -0.274,-5.026 c -0.482,-2.92 -1.735,-5.506 -3.519,-7.844 -0.221,-0.289 -0.486,-0.55 -0.762,-0.786 -0.659,-0.565 -0.674,-0.562 -1.244,0.064 -1.647,1.809 -2.129,3.928 -1.628,6.294 0.039,0.185 0.164,0.443 0.313,0.499 1.091,0.413 2.198,0.783 3.467,1.225 -0.298,-1.216 -0.579,-2.353 -0.859,-3.491 0.679,0.897 1.004,1.926 1.195,3.004 0.177,0.997 0.356,1.236 1.255,1.561 -0.191,-2.917 -1.352,-5.45 -2.844,-7.867 0.06,-0.039 0.12,-0.078 0.179,-0.118 0.446,0.642 0.939,1.257 1.327,1.931 1.171,2.031 1.803,4.245 2.211,6.548 0.106,0.598 0.578,1.131 0.882,1.694 0.085,-0.023 0.171,-0.048 0.256,-0.07 -0.073,-0.882 -0.085,-1.774 -0.229,-2.644 z m -7.944,-9.027 c -1.114,-2.282 -2.913,-3.855 -5.159,-4.949 -0.64,-0.312 -1.315,-0.55 -1.965,-0.841 -0.449,-0.202 -0.671,-0.025 -0.833,0.391 -0.332,0.854 -0.278,1.024 0.527,1.446 2.631,1.381 4.914,3.179 6.668,5.605 0.056,0.078 0.091,0.171 0.156,0.293 0.386,-0.419 0.413,-0.711 0.151,-1.1 -0.969,-1.435 -2.115,-2.699 -3.476,-3.768 -0.125,-0.098 -0.242,-0.207 -0.318,-0.36 1.815,0.884 3.057,2.409 4.284,3.951 0.05,-0.027 0.1,-0.054 0.149,-0.082 -0.06,-0.196 -0.095,-0.404 -0.184,-0.586 z M 95.22,47.697 c -0.647,-0.277 -0.659,-0.269 -0.78,0.394 -0.937,5.155 -0.694,10.258 0.617,15.327 0.174,0.676 0.537,0.814 1.134,0.854 1.857,0.122 3.668,0.49 5.368,1.273 0.674,0.311 1.307,0.714 1.995,1.095 0.089,-0.349 0.155,-0.686 0.262,-1.011 0.174,-0.529 0.273,-1.125 0.587,-1.56 0.601,-0.836 0.425,-1.555 0.029,-2.399 -1.298,-2.761 -2.945,-5.288 -4.889,-7.628 -0.232,-0.281 -0.462,-0.563 -0.736,-0.897 0.734,0.316 2.717,2.428 3.834,4.15 1.015,1.565 1.956,3.178 2.934,4.776 0.685,-0.346 0.764,-0.556 0.416,-1.292 -1.88,-3.968 -4.436,-7.404 -7.932,-10.095 -0.561,-0.432 -1.155,-0.819 -1.679,-1.285 5,2.398 8.065,6.632 10.606,11.364 0.298,-0.183 0.568,-0.347 0.936,-0.572 -0.497,-0.91 -0.971,-1.877 -1.533,-2.79 -2.707,-4.402 -6.41,-7.667 -11.169,-9.704 z m -11.029,4.127 c -0.092,-0.07 -0.187,-0.135 -0.284,-0.198 -0.03,-0.019 -0.072,-0.021 -0.207,-0.057 -2.984,5.894 -3.422,12.004 -1.628,18.363 0.241,-0.066 0.413,-0.127 0.591,-0.158 0.166,-0.03 0.337,-0.028 0.6,-0.047 -1.177,-5.304 -1.65,-10.545 0.478,-15.673 0.054,0.006 0.107,0.012 0.16,0.017 -0.12,0.491 -0.24,0.981 -0.362,1.471 -0.69,2.788 -0.826,5.618 -0.472,8.454 0.207,1.66 0.59,3.301 0.939,4.94 0.191,0.894 0.285,0.917 1.289,0.789 C 84.32,66.083 83.831,62.4 84.39,58.631 c 0.073,1.203 0.126,2.407 0.221,3.609 0.196,2.492 0.655,4.932 1.47,7.302 0.117,0.342 0.322,0.498 0.651,0.647 1.028,0.462 2.024,0.994 3.076,1.52 -0.038,0.042 0.02,0.008 0.03,-0.037 0.595,-2.6 2.123,-4.635 3.907,-6.52 0.751,-0.793 0.751,-0.494 0.227,-1.549 -2.333,-4.698 -5.607,-8.614 -9.781,-11.779 z m 8.346,-1.964 c -1.132,-1.826 -2.472,-3.441 -4.436,-4.448 -0.491,-0.252 -0.67,-0.135 -0.814,0.346 -0.613,2.065 -0.627,4.156 -0.208,6.244 0.071,0.352 0.519,0.629 0.882,0.889 -0.086,-1.45 -0.44,-2.842 0.011,-4.257 0.074,0.616 0.123,1.236 0.229,1.847 0.121,0.702 0.299,1.394 0.44,2.094 0.159,0.796 0.528,1.439 1.297,1.814 -0.311,-1.371 -0.623,-2.751 -0.936,-4.13 0.058,-0.016 0.115,-0.032 0.173,-0.048 0.785,2.11 1.003,4.469 2.67,6.206 -0.021,-2.048 0.31,-4.018 0.825,-5.967 0.047,-0.174 -0.031,-0.425 -0.133,-0.59 z m -12.93,5.499 c -0.123,0.02 -0.258,0.166 -0.327,0.289 -1.58,2.817 -2.448,5.784 -1.829,9.047 0.047,0.244 0.196,0.469 0.423,0.682 0.117,-2 -0.055,-4.002 0.824,-5.838 -0.104,0.935 -0.26,1.868 -0.296,2.806 -0.035,0.903 0.062,1.811 0.086,2.716 0.014,0.51 0.277,0.764 0.767,0.854 0,-0.98 -0.042,-1.941 0.008,-2.897 0.115,-2.159 0.64,-4.229 1.447,-6.23 0.259,-0.643 -0.423,-1.539 -1.103,-1.429 z m -3.88,11.46 c -0.47,-0.038 -0.716,0.079 -0.705,0.619 0.077,3.962 1.04,7.63 3.517,10.806 0.123,0.158 0.265,0.301 0.489,0.553 0.02,-0.849 0.061,-1.502 -0.355,-2.172 -1.342,-2.168 -2.301,-4.496 -2.571,-7.063 -0.042,-0.399 -0.039,-0.803 -0.057,-1.205 0.053,-0.013 0.106,-0.026 0.158,-0.04 0.423,2.491 1.088,4.893 2.483,7.028 0.133,0.203 0.291,0.39 0.484,0.648 0.25,-0.675 0.42,-1.198 0.025,-1.857 -0.47,-0.783 -0.753,-1.681 -1.103,-2.534 -0.069,-0.168 -0.078,-0.36 -0.009,-0.579 0.509,1.015 1.018,2.03 1.584,3.16 0.149,-0.256 0.223,-0.376 0.291,-0.5 0.416,-0.76 0.806,-1.537 1.259,-2.275 0.219,-0.358 0.254,-0.635 0.038,-1.002 -1.248,-2.124 -3.038,-3.388 -5.528,-3.587 z m 19.706,37.615 c 0.574,-0.313 1.12,-0.68 1.676,-1.027 0.316,-0.197 0.4,-0.449 0.177,-0.746 -1.332,0.501 -2.63,1.04 -3.961,1.476 -1.527,0.499 -3.102,0.764 -4.721,0.736 -3.329,-0.059 -5.739,-1.751 -7.031,-4.981 -0.172,-0.429 -0.317,-0.872 -0.429,-1.321 -0.168,-0.669 -0.295,-1.348 -0.333,-2.053 0.254,0.756 0.477,1.525 0.769,2.267 0.788,2 1.985,3.668 3.981,4.621 1.748,0.835 3.578,0.829 5.431,0.448 2.042,-0.419 3.92,-1.259 5.743,-2.242 0.292,-0.158 0.487,-0.326 0.29,-0.675 -0.187,-0.331 -0.369,-0.518 -0.818,-0.289 -1.83,0.934 -3.738,1.662 -5.797,1.886 -1.933,0.21 -3.745,-0.03 -5.132,-1.6 -0.148,-0.168 -0.268,-0.362 -0.438,-0.594 0.132,0 0.201,-0.022 0.23,0.003 1.968,1.712 4.251,1.82 6.591,1.136 1.356,-0.396 2.63,-1.079 3.938,-1.641 0.114,-0.05 0.2,-0.165 0.392,-0.33 -0.908,-0.909 -1.765,-1.817 -2.674,-2.669 -1.667,-1.563 -3.455,-3.009 -5.493,-4.024 -1.854,-0.923 -3.849,-1.564 -5.792,-2.305 -0.556,-0.212 -1.148,-0.33 -1.719,-0.506 -0.273,-0.082 -0.44,-0.037 -0.51,0.269 -0.882,3.911 -0.986,7.758 1.134,11.35 1.517,2.568 3.947,3.849 6.777,4.388 2.764,0.526 5.307,-0.267 7.719,-1.577 z m 16.699,11.33 c 0.191,-0.199 0.364,-0.352 0.153,-0.681 -1.903,-2.972 -2.858,-6.306 -3.66,-9.697 -0.026,-0.113 -0.051,-0.226 -0.083,-0.337 -0.01,-0.034 -0.044,-0.061 -0.114,-0.151 -0.692,0.181 -1.428,0.328 -2.132,0.567 -2.164,0.734 -4.253,1.614 -5.954,3.22 -0.271,0.256 -0.35,0.489 -0.301,0.857 0.253,1.893 0.462,3.791 0.719,5.683 0.037,0.274 0.188,0.607 0.397,0.769 1.643,1.28 3.316,2.519 4.971,3.784 0.287,0.219 0.517,0.23 0.832,0.045 1.91,-1.118 3.638,-2.463 5.172,-4.059 z m 3.372,3.278 c -0.691,-0.756 -1.334,-1.458 -1.92,-2.098 -1.77,1.437 -3.496,2.839 -5.312,4.314 0.284,0.096 0.641,0.357 0.91,0.285 2.178,-0.584 4.235,-1.487 6.322,-2.501 z m -0.345,0.729 c -1.559,0.712 -3.135,1.387 -4.704,2.076 -0.174,0.076 -0.351,0.145 -0.618,0.256 0.71,0.584 1.304,0.89 2.157,0.433 1.357,-0.727 2.776,-1.336 4.165,-2.002 0.201,-0.097 0.383,-0.234 0.579,-0.356 -0.689,-0.846 -0.677,-0.819 -1.579,-0.407 z m 13.81,-12.958 c -1.679,0.218 -3.356,0.441 -5.035,0.658 -0.377,0.049 -0.756,0.082 -1.135,0.122 -0.01,-0.058 -0.02,-0.115 -0.031,-0.173 1.68,-0.379 3.359,-0.757 5.15,-1.161 -0.983,-0.127 -1.874,-0.189 -2.741,-0.37 -0.689,-0.144 -1.299,-0.066 -1.962,0.155 -3.276,1.091 -6.344,0.604 -9.194,-1.334 -0.141,-0.097 -0.288,-0.188 -0.434,-0.28 -0.01,-0.006 -0.034,0.008 -0.108,0.03 1.211,1.408 2.582,2.548 4.307,3.216 1.946,0.753 3.943,0.866 5.969,0.399 2.349,-0.542 4.705,-0.839 7.105,-0.376 0.046,0.009 0.099,-0.017 0.192,-0.035 -0.617,-0.554 -1.246,-0.961 -2.083,-0.851 z m -5.995,-4.567 c -0.903,-0.347 -1.785,-0.685 -2.745,-0.797 -0.226,-0.027 -0.45,-0.053 -0.674,-0.08 -0.034,0.065 -0.066,0.13 -0.099,0.194 0.771,0.469 1.508,1.01 2.319,1.392 1.64,0.774 3.405,1.06 5.21,1.108 0.43,0.011 0.43,-0.003 0.57,-0.379 -1.552,-0.476 -3.101,-0.868 -4.581,-1.438 z m 5.206,-2.161 c -0.391,0.205 -0.635,0.333 -0.878,0.46 0.008,0.057 0.016,0.113 0.024,0.169 0.262,0 0.528,0.022 0.782,-0.021 0.043,-0.007 0.038,-0.296 0.072,-0.608 z m -0.099,1.67 c -1.423,-0.353 -2.852,-0.758 -4.361,-0.026 1.379,0.446 2.733,0.755 4.131,0.841 0.136,0.008 0.355,-0.204 0.407,-0.358 0.042,-0.124 -0.078,-0.433 -0.177,-0.457 z m -15.898,0.983 c 1.472,0.883 2.977,1.543 4.603,1.92 0.038,0.008 0.076,0.012 0.114,0.02 1.68,0.329 1.393,0.376 1.842,-1.212 0.063,-0.224 -0.058,-0.54 -0.181,-0.766 -0.153,-0.284 -0.45,-0.493 -0.59,-0.78 -0.33,-0.677 -0.84,-0.756 -1.523,-0.681 -1.319,0.146 -2.571,0.476 -3.749,1.089 -0.119,0.062 -0.239,0.125 -0.352,0.198 -0.044,0.029 -0.069,0.087 -0.164,0.212 z m -1.913,1.941 c 0.418,1.957 1.115,3.811 2.033,5.581 0.528,1.02 1.128,2.003 1.773,3.139 0.377,-0.521 0.688,-0.881 0.918,-1.286 0.647,-1.139 1.26,-2.297 1.887,-3.448 0.137,-0.25 0.165,-0.453 -0.146,-0.616 -2.155,-1.127 -3.806,-2.794 -5.114,-4.824 -0.02,-0.031 -0.055,-0.052 -0.151,-0.138 -0.314,0.258 -0.602,0.511 -0.908,0.74 -0.297,0.224 -0.372,0.477 -0.292,0.852 z m -7.703,-17.893 c -2.477,3.113 -3.455,6.695 -3.2,10.613 0.098,1.493 0.42,2.975 0.704,4.449 0.166,0.862 0.222,0.851 1.219,0.632 -0.892,-3.853 -1.221,-7.701 0.437,-11.464 -0.154,0.857 -0.35,1.708 -0.455,2.571 -0.346,2.835 -0.096,5.628 0.717,8.365 0.193,0.649 0.359,0.699 1.301,0.485 -0.759,-2.204 -1.166,-4.413 -0.82,-6.714 0.066,0.624 0.064,1.264 0.211,1.869 0.368,1.513 0.792,3.014 1.228,4.509 0.057,0.196 0.299,0.434 0.493,0.477 1.352,0.3 2.714,0.554 4.197,0.847 -1.048,-3.179 -2.085,-6.327 -3.122,-9.474 0.051,-0.021 0.103,-0.042 0.155,-0.062 1.19,2.896 2.38,5.793 3.607,8.778 0.43,-0.851 0.757,-1.628 1.199,-2.333 0.459,-0.731 1.001,-1.415 1.564,-2.071 0.266,-0.311 0.353,-0.559 0.146,-0.91 -0.761,-1.294 -1.517,-2.592 -2.279,-3.886 -0.094,-0.16 -0.211,-0.307 -0.271,-0.492 1.41,1.195 2.356,2.74 3.25,4.414 0.295,-0.2 0.555,-0.375 0.861,-0.582 -1.536,-3.16 -3.737,-5.701 -6.575,-7.71 0.031,-0.043 0.063,-0.085 0.094,-0.128 0.312,0.166 0.636,0.314 0.934,0.501 2.513,1.574 4.349,3.782 5.849,6.302 0.415,0.696 0.42,0.701 1.214,0.207 -0.378,-0.636 -0.736,-1.29 -1.143,-1.911 -1.764,-2.692 -3.936,-4.976 -6.872,-6.372 -1.187,-0.564 -2.504,-0.854 -3.762,-1.265 -0.391,-0.128 -0.637,0.049 -0.881,0.355 z m -14.29,0.647 c -0.158,0.828 -0.217,1.687 -0.211,2.53 0.009,1.154 0.144,1.267 1.393,1.693 -0.304,-3.594 0.551,-6.808 2.815,-9.599 -0.187,0.386 -0.375,0.772 -0.563,1.158 -1.236,2.542 -1.723,5.227 -1.525,8.042 0.074,1.045 0.273,1.277 1.32,1.569 -0.035,-1.107 -0.108,-2.216 -0.096,-3.325 0.012,-1.12 0.255,-2.207 0.798,-3.229 -0.014,0.155 -0.013,0.312 -0.043,0.462 -0.427,2.123 -0.329,4.227 0.236,6.31 0.062,0.227 0.181,0.5 0.361,0.625 1.312,0.912 2.648,1.792 4.044,2.728 0.073,-0.242 0.159,-0.482 0.217,-0.728 0.836,-3.552 2.532,-6.658 4.886,-9.417 0.293,-0.343 0.305,-0.583 0.048,-0.949 -1.519,-2.165 -3.606,-3.577 -6.026,-4.503 -1.109,-0.425 -2.286,-0.679 -3.441,-0.974 -0.173,-0.044 -0.479,0.049 -0.584,0.186 -1.705,2.229 -3.093,4.625 -3.629,7.421 z M 81.792,74.85 c 0.022,-0.053 0.052,-0.105 0.089,-0.149 0.021,-0.025 0.062,-0.035 0.195,-0.104 -0.606,2.198 -0.492,4.282 0.524,6.273 1.005,1.968 2.575,3.389 4.462,4.605 0.123,-0.226 0.223,-0.425 0.338,-0.615 0.189,-0.316 0.092,-0.501 -0.206,-0.703 -1.436,-0.966 -2.74,-2.081 -3.595,-3.621 -0.293,-0.526 -0.473,-1.114 -0.609,-1.736 0.985,2.288 2.675,3.863 4.835,5.038 0.094,-0.114 0.179,-0.21 0.257,-0.311 0.961,-1.253 1.91,-2.516 2.887,-3.756 0.296,-0.377 0.518,-0.69 0.398,-1.237 -0.864,-3.944 -3.366,-6.334 -7.104,-7.503 -1.692,-0.529 -1.32,-0.665 -2.331,0.844 -1.577,2.353 -2.462,4.904 -1.826,7.782 0.526,2.379 1.92,4.234 3.696,5.817 0.8,0.713 1.681,1.336 2.603,2.061 0.095,-0.282 0.117,-0.398 0.17,-0.498 0.275,-0.524 0.106,-0.834 -0.373,-1.178 -2.101,-1.515 -3.855,-3.333 -4.695,-5.865 -0.579,-1.746 -0.436,-3.464 0.285,-5.144 z m 22.26,1.176 c 0.54,-0.425 0.747,-0.778 0.465,-1.423 -1.194,-2.727 -2.918,-4.985 -5.488,-6.543 -0.109,-0.066 -0.211,-0.146 -0.288,-0.267 1.057,0.257 1.961,0.821 2.729,1.553 0.791,0.754 1.545,1.567 2.201,2.441 0.643,0.855 1.141,1.819 1.702,2.735 0.652,-0.472 0.716,-0.663 0.386,-1.318 -1.436,-2.852 -3.411,-5.181 -6.369,-6.546 -1.187,-0.548 -2.438,-0.859 -3.741,-0.899 -0.265,-0.008 -0.606,0.143 -0.795,0.335 -2.491,2.529 -3.429,5.622 -3.155,9.106 0.08,1.013 0.305,2.02 0.523,3.017 0.175,0.799 0.354,0.874 1.166,0.766 -0.159,-1.623 -0.389,-3.24 -0.458,-4.863 -0.07,-1.65 0.291,-3.236 1.237,-4.65 -0.07,0.252 -0.134,0.507 -0.21,0.758 -0.85,2.802 -0.645,5.571 0.276,8.312 0.235,0.702 0.369,0.76 1.213,0.63 -0.614,-1.77 -1.081,-3.56 -0.851,-5.442 0.26,1.219 0.517,2.441 0.782,3.66 0.29,1.335 0.882,2.304 2.436,2.469 0.802,0.086 1.568,0.501 2.444,0.799 -1.057,-3.334 -2.099,-6.623 -3.141,-9.911 0.052,-0.019 0.104,-0.039 0.155,-0.058 1.329,3.22 2.658,6.439 4.023,9.747 0.126,-0.185 0.21,-0.295 0.28,-0.414 0.569,-0.961 1.111,-1.94 1.716,-2.879 0.234,-0.362 0.292,-0.667 0.173,-1.074 -0.429,-1.462 -1.108,-2.795 -1.969,-4.042 -0.163,-0.236 -0.327,-0.471 -0.433,-0.744 1.434,1.281 2.292,2.945 2.991,4.745 z m 23.587,21.043 c -0.274,-0.989 -0.499,-1.805 -0.723,-2.612 -1.163,0.692 -2.27,1.351 -3.537,2.105 1.456,0.173 2.776,0.33 4.26,0.507 z m -7.701,0.681 c -1.021,-0.063 -2.05,-0.01 -3.053,0.062 1.743,0.529 3.469,1.129 5.236,1.558 0.95,0.23 1.971,0.166 3.131,0.246 -0.531,0.12 -0.933,0.264 -1.342,0.295 -1.575,0.121 -3.028,-0.461 -4.523,-0.818 -1.1,-0.262 -2.225,-0.419 -3.343,-0.6 -0.921,-0.149 -1.476,0.466 -2.035,1.094 0.463,-0.055 0.924,-0.133 1.389,-0.16 1.916,-0.109 3.745,0.354 5.565,0.874 3.395,0.971 6.197,-0.161 8.667,-2.462 0.009,-0.009 0.002,-0.036 0.007,-0.132 -3.256,0.735 -6.476,0.243 -9.699,0.043 z m 9.908,-20.582 c -0.425,0.413 -0.487,0.788 -0.175,1.361 1.031,1.896 1.723,3.913 1.852,6.094 0.007,0.113 0.04,0.224 0.074,0.407 0.528,-0.157 1.034,-0.308 1.539,-0.457 0.111,-0.033 0.224,-0.06 0.335,-0.091 0.622,-0.179 1.503,-0.167 1.808,-0.581 0.509,-0.693 0.78,-1.636 0.923,-2.511 0.469,-2.874 -0.564,-5.305 -2.438,-7.425 -0.129,-0.147 -0.459,-0.254 -0.638,-0.197 -1.46,0.461 -2.837,1.099 -4.016,2.103 -0.729,0.621 -0.722,0.65 -0.033,1.422 0.586,-0.45 1.143,-0.88 1.701,-1.309 0.037,0.041 0.074,0.082 0.111,0.123 -0.347,0.354 -0.687,0.716 -1.043,1.061 z m 0.713,21.015 c -0.217,0.215 -0.405,0.421 -0.153,0.716 0.923,-0.679 1.806,-1.392 2.751,-2.012 1.822,-1.193 3.818,-2.003 5.93,-2.513 0.444,-0.107 0.594,-0.321 0.583,-0.763 -0.053,-2.291 -0.802,-4.352 -2.073,-6.225 -0.539,-0.794 -1.194,-1.509 -1.783,-2.271 -0.213,-0.275 -0.444,-0.318 -0.756,-0.196 -0.805,0.319 -1.606,0.653 -2.429,0.919 -0.902,0.291 -1.345,0.83 -1.133,1.817 0.927,-0.425 1.844,-0.845 2.761,-1.265 0.039,0.056 0.078,0.111 0.117,0.167 -1.756,0.949 -3.696,1.73 -3.772,4.079 0.466,-0.38 1.014,-0.826 1.562,-1.271 0.012,0.021 0.024,0.042 0.037,0.063 -0.674,0.852 -1.365,1.692 -2.013,2.564 -0.296,0.399 -0.476,0.884 -0.76,1.295 -0.756,1.096 -0.433,2.137 0.087,3.194 0.154,0.313 0.373,0.336 0.609,0.21 0.557,-0.298 1.098,-0.628 1.638,-0.956 0.221,-0.134 0.422,-0.299 0.671,-0.406 -0.362,1.14 -1.05,2.043 -1.874,2.854 z m -12.25,19.848 c 0.425,0.813 0.634,0.874 1.318,0.422 2.716,-1.795 5.184,-3.876 7.296,-6.367 0.035,-0.042 0.088,-0.069 0.173,-0.061 -1.984,2.943 -4.643,5.202 -7.55,7.298 0.405,0.337 0.727,0.64 1.089,0.886 0.114,0.077 0.376,0.063 0.498,-0.019 3.862,-2.569 7.079,-5.758 9.354,-9.843 0.1,-0.18 0.176,-0.375 0.35,-0.747 -1.178,-0.08 -2.246,-0.263 -3.299,-0.2 -2.04,0.123 -4.071,0.332 -6.117,0.105 -0.228,-0.025 -0.49,0.07 -0.71,0.169 -0.982,0.444 -1.957,0.904 -2.928,1.372 -0.164,0.079 -0.338,0.2 -0.432,0.349 -0.71,1.124 -1.4,2.259 -2.163,3.5 0.804,0.873 1.618,1.745 2.416,2.632 0.235,0.262 0.443,0.301 0.745,0.111 0.304,-0.19 0.641,-0.326 1.035,-0.373 -0.36,0.257 -0.721,0.513 -1.075,0.766 z m -22.147,-6.135 c 1.101,0.921 2.154,1.801 3.206,2.681 0.057,-0.023 0.114,-0.047 0.171,-0.07 -0.168,-1.491 -0.336,-2.982 -0.521,-4.627 -1.031,0.728 -1.903,1.344 -2.856,2.016 z m -5.632,2.264 c 1.72,-0.08 3.332,-0.155 4.944,-0.23 0.028,-0.045 0.056,-0.09 0.084,-0.135 -0.328,-0.322 -0.648,-0.653 -0.992,-0.959 -0.057,-0.051 -0.22,-0.014 -0.321,0.021 -1.195,0.415 -2.388,0.836 -3.715,1.303 z m 5.806,-4.422 c 1.516,-1.59 2.945,-3.28 4.869,-4.415 0.705,-0.416 1.434,-0.788 2.164,-1.186 -1.314,-0.318 -2.362,0.167 -3.266,1.015 -1.249,1.174 -2.463,2.386 -3.699,3.575 -0.365,0.352 -0.75,0.682 -1.126,1.022 -0.041,-0.043 -0.083,-0.086 -0.124,-0.128 1.385,-1.552 2.77,-3.104 4.242,-4.753 -0.86,0.469 -1.588,0.935 -2.369,1.277 -1.012,0.445 -1.768,1.089 -2.445,1.992 -2.317,3.09 -5.505,4.546 -9.336,4.638 -0.193,0.004 -0.386,0.002 -0.579,0.004 -0.018,0 -0.036,0.011 -0.08,0.145 0.79,0.132 1.575,0.32 2.37,0.387 3.688,0.308 6.818,-0.887 9.379,-3.573 z M 75.374,79.152 c -0.73,-0.291 -0.841,-0.187 -0.975,0.602 -0.805,4.733 0.695,8.742 3.836,12.233 0.038,0.043 0.083,0.08 0.13,0.115 0.03,0.022 0.068,0.034 0.152,0.075 0.252,-0.644 0.218,-1.15 -0.224,-1.725 -1.587,-2.061 -2.715,-4.356 -3.057,-6.967 -0.099,-0.757 -0.015,-1.538 0.025,-2.331 0.266,3.347 1.432,6.323 3.616,8.961 0.262,-0.531 0.369,-0.917 -0.034,-1.404 -1.012,-1.22 -1.646,-2.643 -1.975,-4.199 -0.022,-0.107 -0.025,-0.218 0.071,-0.372 0.071,0.157 0.151,0.311 0.213,0.471 0.533,1.376 1.211,2.667 2.139,3.823 0.281,0.35 0.61,0.527 1.052,0.624 1.785,0.389 3.561,0.821 5.34,1.237 0.109,0.026 0.221,0.041 0.485,-0.048 -0.123,-0.209 -0.195,-0.5 -0.377,-0.616 -2.97,-1.883 -4.886,-4.598 -6.159,-7.815 -0.21,-0.531 -0.487,-0.963 -1.003,-1.202 -1.079,-0.501 -2.151,-1.022 -3.255,-1.462 z m -14.945,58.461 c 0.997,-2.347 2.432,-4.378 4.272,-6.128 0.134,-0.127 0.331,-0.187 0.499,-0.279 -0.054,-0.076 -0.108,-0.151 -0.162,-0.227 -1.075,0.058 -2.15,0.116 -3.335,0.18 0.131,-0.336 0.196,-0.553 0.296,-0.752 0.811,-1.613 2.117,-2.735 3.649,-3.61 2.869,-1.639 6.037,-2.408 9.22,-3.125 2.405,-0.541 4.818,-1.055 7.213,-1.638 0.998,-0.243 1.937,-0.67 2.554,-1.576 0.363,-0.533 0.374,-1.175 -0.126,-1.568 -0.47,-0.37 -1.031,-0.709 -1.603,-0.846 -2.063,-0.492 -4.059,-0.091 -5.994,0.667 -1.47,0.576 -2.896,1.281 -4.394,1.762 -1.945,0.624 -3.94,0.73 -5.893,-0.063 -0.235,-0.095 -0.444,-0.251 -0.872,-0.499 0.959,-0.868 1.806,-1.635 2.653,-2.401 -0.281,-0.109 -0.47,-0.101 -0.659,-0.084 -2.155,0.195 -4.276,0.013 -6.349,-0.613 -2.09,-0.632 -4.087,-1.493 -5.569,-3.153 -0.899,-1.008 -1.953,-1.673 -3.187,-2.109 -0.936,-0.331 -1.887,-0.624 -3.004,-0.992 2.25,-0.91 4.361,-1.764 6.473,-2.619 -1.965,-0.081 -3.773,-0.6 -5.507,-1.388 -2.106,-0.956 -4.195,-1.951 -6.29,-2.931 -2.715,-1.27 -5.558,-1.814 -8.548,-1.496 -0.681,0.072 -1.358,0.177 -2.037,0.266 3.414,-4.653 8.068,-7.661 13.265,-10.126 -1.095,-0.52 -2.036,-0.968 -3.052,-1.451 0.229,-0.207 0.347,-0.329 0.481,-0.433 2.049,-1.59 4.219,-2.988 6.589,-4.053 3.298,-1.482 6.723,-2.369 10.374,-2.105 0.608,0.044 1.212,0.152 1.936,0.247 -0.722,-1.304 -1.394,-2.519 -2.105,-3.803 0.257,-0.044 0.402,-0.091 0.548,-0.09 1.176,0.006 2.359,-0.058 3.526,0.052 2.435,0.228 4.864,0.533 7.29,0.845 0.539,0.07 0.75,-0.023 0.797,-0.601 0.06,-0.728 0.241,-1.445 0.364,-2.168 0.081,-0.472 0.349,-0.647 0.815,-0.556 0.559,0.108 1.121,0.203 1.754,0.317 -0.096,-0.245 -0.17,-0.421 -0.233,-0.598 -0.539,-1.526 -1.155,-3.032 -1.595,-4.586 -0.606,-2.144 -0.725,-4.338 -0.233,-6.536 0.177,-0.79 0.222,-0.832 1.048,-0.813 0.494,0.011 0.986,0.069 1.545,0.11 -0.057,-0.252 -0.094,-0.436 -0.14,-0.618 -0.994,-3.985 -0.298,-7.694 1.802,-11.182 0.237,-0.394 0.525,-0.557 0.951,-0.425 0.656,0.203 1.305,0.429 1.985,0.655 0.619,-1.352 1.262,-2.758 1.947,-4.255 0.762,0.528 1.397,0.967 2.08,1.44 0.02,-0.165 0.039,-0.24 0.035,-0.313 -0.114,-2.385 0.421,-4.637 1.366,-6.811 0.182,-0.419 0.369,-0.493 0.785,-0.292 2.118,1.021 3.972,2.363 5.38,4.277 0.082,0.112 0.206,0.192 0.362,0.335 0.195,-0.88 0.372,-1.676 0.584,-2.635 1.544,0.707 2.968,1.359 4.42,2.023 0.111,-0.326 0.19,-0.667 0.342,-0.97 0.162,-0.325 0.388,-0.619 0.595,-0.92 0.236,-0.342 0.532,-0.439 0.95,-0.307 3.063,0.983 5.645,2.653 7.524,5.306 0.553,0.782 1.014,1.63 1.543,2.487 0.419,-0.42 0.837,-0.84 1.256,-1.259 0.287,-0.288 0.574,-0.347 0.904,-0.044 0.695,0.635 1.474,1.196 2.094,1.897 1.984,2.24 3.162,4.917 4.005,7.758 0.064,0.216 0.137,0.429 0.228,0.713 0.408,-0.524 0.765,-0.97 1.109,-1.428 0.297,-0.395 0.57,-0.44 1.003,-0.127 2.877,2.082 4.937,4.796 6.32,8.049 0.109,0.259 0.229,0.514 0.392,0.876 0.15,-0.269 0.244,-0.428 0.333,-0.592 0.648,-1.198 1.455,-2.266 2.466,-3.19 0.383,-0.352 0.664,-0.369 1.036,-0.04 0.342,0.303 0.711,0.577 1.102,0.891 0.072,-0.161 0.139,-0.293 0.193,-0.431 1.278,-3.32 3.626,-5.586 6.839,-7.017 0.445,-0.198 0.778,-0.164 1.062,0.213 0.345,0.458 0.671,0.93 1.035,1.436 0.147,-0.094 0.318,-0.213 0.498,-0.317 0.849,-0.493 1.705,-0.976 2.552,-1.474 0.328,-0.193 0.521,-0.148 0.642,0.235 0.158,0.499 0.351,0.986 0.563,1.575 0.208,-0.288 0.344,-0.472 0.475,-0.659 1.081,-1.547 2.495,-2.721 4.102,-3.684 0.316,-0.19 0.501,-0.17 0.688,0.172 0.832,1.524 1.438,3.118 1.604,4.861 0.04,0.412 0.079,0.824 0.127,1.332 0.601,-0.535 1.125,-1 1.753,-1.559 0.732,1.266 1.411,2.441 2.075,3.587 0.495,-0.248 0.978,-0.514 1.481,-0.736 0.467,-0.207 0.814,-0.065 1.126,0.372 1.993,2.793 2.894,5.857 2.381,9.29 -0.03,0.202 -0.033,0.407 -0.053,0.662 0.28,-0.057 0.484,-0.102 0.69,-0.14 1.354,-0.255 1.437,-0.201 1.772,1.125 0.666,2.633 0.307,5.215 -0.39,7.778 -0.174,0.639 -0.387,1.268 -0.592,1.937 0.561,-0.158 1.046,-0.28 1.52,-0.433 0.412,-0.134 0.622,0.031 0.72,0.416 0.217,0.86 0.505,1.709 0.64,2.582 0.638,4.153 -0.266,8.028 -2.254,11.67 -0.557,1.02 -1.198,1.976 -1.07,3.215 0.02,0.204 -0.066,0.418 -0.1,0.628 -0.972,6.025 -7.269,9.61 -11.414,8.678 -0.277,-0.063 -0.564,-0.083 -0.847,-0.123 -0.025,0.049 -0.05,0.099 -0.074,0.148 1.912,1.819 3.661,3.933 6.792,3.574 -0.176,0.181 -0.314,0.278 -0.466,0.346 -0.368,0.166 -0.73,0.374 -1.118,0.467 -3.878,0.922 -7.336,0.26 -10.191,-2.717 -2.026,-2.112 -4.434,-3.388 -7.448,-3.205 -0.288,0.018 -0.632,0.095 -0.84,0.274 -0.986,0.848 -1.658,1.924 -1.724,3.235 -0.062,1.247 -0.07,2.52 0.108,3.752 0.496,3.431 0.109,6.695 -1.485,9.798 -0.475,0.922 -0.438,0.928 0.239,1.684 2.898,3.235 4.94,6.928 5.938,11.179 1.186,5.047 0.817,10.049 -0.426,15.025 -0.034,0.137 -0.105,0.265 -0.16,0.402 -0.108,-0.041 -0.176,-0.046 -0.211,-0.083 -0.903,-0.898 -1.812,-1.79 -2.689,-2.714 -0.127,-0.134 -0.164,-0.434 -0.126,-0.634 0.618,-3.191 0.77,-6.404 0.405,-9.631 -0.18,-1.596 -0.194,-3.274 -1.557,-4.47 -0.187,-0.165 -0.34,-0.368 -0.515,-0.548 -2.744,-2.821 -6.116,-4.652 -9.663,-6.231 -2.497,-1.113 -4.962,-2.301 -7.43,-3.479 -0.548,-0.262 -1.047,-0.626 -1.618,-0.973 -0.088,0.253 -0.138,0.456 -0.226,0.641 -0.601,1.27 -1.093,2.61 -1.838,3.79 -2.47,3.913 -6.012,6.659 -10.065,8.736 -5.314,2.722 -10.431,5.758 -15.339,9.154 -0.627,0.434 -1.251,0.872 -1.876,1.308 -0.043,-0.028 -0.085,-0.055 -0.128,-0.083 0.455,-1.852 0.91,-3.704 1.386,-5.641 -0.951,0.36 -1.769,0.698 -2.605,0.98 -3.725,1.257 -7.583,1.727 -11.486,1.873 -5.746,0.216 -11.437,-0.344 -17.092,-1.323 -0.649,-0.113 -1.294,-0.255 -2.034,-0.402 0.511,-0.456 0.935,-0.789 1.306,-1.174 2.252,-2.329 3.999,-4.998 5.265,-7.978"
       style="fill:#231f20;fill-opacity:1;fill-rule:nonzero;stroke:none"
       transform="matrix(1.3333333,0,0,-1.3333333,0,270.66667)" />
    <path
       id="path4"
       d="m 87.265,117.609 c -0.142,-0.184 -0.28,-0.37 -0.42,-0.556 0.062,-0.054 0.125,-0.108 0.188,-0.161 0.34,0.381 0.71,0.741 1.019,1.147 0.697,0.915 1.106,1.939 0.693,3.08 -0.665,1.836 -2.224,2.741 -3.844,3.554 0.707,-0.611 1.463,-1.176 2.113,-1.843 1.543,-1.585 1.608,-3.457 0.251,-5.221"
       style="fill:#231f20;fill-opacity:1;fill-rule:nonzero;stroke:none"
       transform="matrix(1.3333333,0,0,-1.3333333,0,270.66667)" />
    <path
       id="path5"
       d="m 52.881,142.725 c -8.408,-9.875 -13.738,-22.491 -15.01,-35.524 -0.013,-0.138 0.087,-0.26 0.225,-0.274 0.008,0 0.017,-0.001 0.025,-0.001 0.128,0 0.236,0.097 0.249,0.226 1.261,12.932 6.55,25.45 14.893,35.247 0.089,0.106 0.076,0.264 -0.029,0.354 -0.105,0.089 -0.263,0.078 -0.353,-0.028"
       style="fill:#231f20;fill-opacity:1;fill-rule:nonzero;stroke:none"
       transform="matrix(1.3333333,0,0,-1.3333333,0,270.66667)" />
    <path
       id="path6"
       d="m 36.095,106.369 c 0.381,0 0.707,0.289 0.745,0.677 1.305,13.384 6.731,26.285 15.281,36.326 0.268,0.316 0.231,0.789 -0.085,1.058 -0.315,0.268 -0.789,0.23 -1.057,-0.085 -8.747,-10.273 -14.298,-23.468 -15.632,-37.154 -0.04,-0.412 0.262,-0.778 0.674,-0.819 0.025,-0.002 0.049,-0.003 0.074,-0.003"
       style="fill:#231f20;fill-opacity:1;fill-rule:nonzero;stroke:none"
       transform="matrix(1.3333333,0,0,-1.3333333,0,270.66667)" />
    <path
       id="path7"
       d="M 144.748,55.362 C 132.979,44.291 117.596,38.194 101.43,38.194 c -32.566,0 -59.61,24.392 -62.906,56.739 -0.013,0.138 -0.138,0.232 -0.274,0.224 -0.138,-0.014 -0.238,-0.137 -0.224,-0.275 3.322,-32.603 30.58,-57.19 63.404,-57.19 16.294,0 31.799,6.145 43.662,17.305 0.1,0.094 0.105,0.254 0.011,0.354 -0.096,0.1 -0.253,0.105 -0.355,0.011"
       style="fill:#231f20;fill-opacity:1;fill-rule:nonzero;stroke:none"
       transform="matrix(1.3333333,0,0,-1.3333333,0,270.66667)" />
    <path
       id="path8"
       d="m 146.836,54.237 c -0.283,0.303 -0.759,0.317 -1.06,0.032 -12.047,-11.333 -27.797,-17.575 -44.346,-17.575 -33.486,0 -61.183,25.097 -64.426,58.378 -0.041,0.412 -0.406,0.717 -0.819,0.674 -0.413,-0.041 -0.714,-0.408 -0.674,-0.82 3.318,-34.052 31.658,-59.732 65.919,-59.732 16.933,0 33.048,6.387 45.374,17.983 0.301,0.284 0.316,0.758 0.032,1.06"
       style="fill:#231f20;fill-opacity:1;fill-rule:nonzero;stroke:none"
       transform="matrix(1.3333333,0,0,-1.3333333,0,270.66667)" />
    <path
       id="path9"
       d="m 164.661,101.944 c 0.002,-0.137 0.113,-0.248 0.251,-0.248 0.001,0 0.001,0 0.002,0 0.139,0.001 0.25,0.114 0.249,0.252 -0.15,18.746 -8.497,36.395 -22.901,48.42 -0.106,0.089 -0.262,0.074 -0.353,-0.032 -0.089,-0.106 -0.074,-0.264 0.032,-0.353 14.29,-11.931 22.573,-29.44 22.72,-48.039"
       style="fill:#231f20;fill-opacity:1;fill-rule:nonzero;stroke:none"
       transform="matrix(1.3333333,0,0,-1.3333333,0,270.66667)" />
    <path
       id="path10"
       d="m 166.164,101.428 c 0,-0.414 0.336,-0.75 0.75,-0.75 0.414,0 0.75,0.336 0.75,0.75 0,20.033 -8.927,38.778 -24.491,51.427 -0.319,0.259 -0.792,0.212 -1.055,-0.109 -0.262,-0.322 -0.213,-0.794 0.11,-1.055 15.211,-12.363 23.936,-30.683 23.936,-50.263"
       style="fill:#231f20;fill-opacity:1;fill-rule:nonzero;stroke:none"
       transform="matrix(1.3333333,0,0,-1.3333333,0,270.66667)" />
    <path
       id="path11"
       d="m 61.39,151.019 c -0.108,-0.087 -0.124,-0.245 -0.037,-0.352 0.049,-0.062 0.122,-0.093 0.194,-0.093 0.056,0 0.112,0.018 0.158,0.055 11.193,9.05 25.301,14.033 39.724,14.033 11.066,0 21.955,-2.899 31.487,-8.384 0.117,-0.068 0.273,-0.028 0.342,0.093 0.069,0.12 0.028,0.273 -0.092,0.342 -9.608,5.528 -20.583,8.45 -31.737,8.45 -14.537,0 -28.757,-5.023 -40.039,-14.144"
       style="fill:#231f20;fill-opacity:1;fill-rule:nonzero;stroke:none"
       transform="matrix(1.3333333,0,0,-1.3333333,0,270.66667)" />
    <path
       id="path12"
       d="m 59.2,150.749 c 0.166,0 0.332,0.054 0.471,0.166 l 1.091,0.881 c 11.46,9.265 25.903,14.367 40.668,14.367 11.178,0 22.731,-3.105 32.529,-8.742 0.36,-0.207 0.818,-0.082 1.024,0.276 0.206,0.359 0.083,0.818 -0.276,1.024 -10.022,5.766 -21.84,8.942 -33.277,8.942 -15.108,0 -29.885,-5.221 -41.611,-14.7 l -1.09,-0.881 c -0.323,-0.26 -0.373,-0.732 -0.113,-1.055 0.149,-0.183 0.365,-0.278 0.584,-0.278"
       style="fill:#231f20;fill-opacity:1;fill-rule:nonzero;stroke:none"
       transform="matrix(1.3333333,0,0,-1.3333333,0,270.66667)" />
    <path
       id="path13"
       d="m 50.972,164.782 c 1.174,0 2.126,0.952 2.126,2.126 0,1.175 -0.952,2.126 -2.126,2.126 -1.174,0 -2.126,-0.951 -2.126,-2.126 0,-1.174 0.952,-2.126 2.126,-2.126"
       style="fill:#231f20;fill-opacity:1;fill-rule:nonzero;stroke:none"
       transform="matrix(1.3333333,0,0,-1.3333333,0,270.66667)" />
    <path
       id="path14"
       d="m 177.066,69.776 c -1.173,0 -2.126,-0.952 -2.126,-2.126 0,-1.175 0.953,-2.126 2.126,-2.126 1.174,0 2.126,0.951 2.126,2.126 0,1.174 -0.952,2.126 -2.126,2.126"
       style="fill:#231f20;fill-opacity:1;fill-rule:nonzero;stroke:none"
       transform="matrix(1.3333333,0,0,-1.3333333,0,270.66667)" />
    <path
       id="path15"
       d="m 158.422,58.689 11.58,-9.018 -0.033,-0.043 -17.145,1.873 -1.753,-2.252 16.289,-12.685 1.86,2.389 -11.58,9.016 0.034,0.045 17.137,-1.884 1.761,2.264 -16.29,12.684 -1.86,-2.389"
       style="fill:#231f20;fill-opacity:1;fill-rule:nonzero;stroke:none"
       transform="matrix(1.3333333,0,0,-1.3333333,0,270.66667)" />
    <path
       id="path16"
       d="m 16.799,129.076 5.836,-1.699 -2.324,-7.988 2.662,-0.775 2.324,7.99 5.672,-1.65 -2.722,-9.36 2.827,-0.822 3.568,12.267 -19.824,5.766 -3.568,-12.267 2.827,-0.822 2.722,9.36"
       style="fill:#231f20;fill-opacity:1;fill-rule:nonzero;stroke:none"
       transform="matrix(1.3333333,0,0,-1.3333333,0,270.66667)" />
    <path
       id="path17"
       d="m 38.152,133.526 -18.505,9.155 -1.343,-2.714 18.505,-9.155 1.343,2.714"
       style="fill:#231f20;fill-opacity:1;fill-rule:nonzero;stroke:none"
       transform="matrix(1.3333333,0,0,-1.3333333,0,270.66667)" />
    <path
       id="path18"
       d="m 20.864,108.078 6.271,-0.227 -0.172,-4.755 c -0.035,-0.971 -0.275,-1.705 -0.719,-2.203 -0.506,-0.633 -1.299,-0.939 -2.378,-0.918 -0.898,0.033 -1.645,0.34 -2.24,0.921 -0.641,0.592 -0.951,1.456 -0.929,2.593 z m 2.891,-10.959 c 1.908,-0.014 3.399,0.594 4.473,1.822 0.944,1.02 1.446,2.362 1.506,4.027 l 0.283,7.808 -20.632,0.748 -0.11,-3.026 8.818,-0.32 -0.141,-3.875 -8.967,-3.816 -0.13,-3.595 9.323,4.294 c 0.918,-2.573 2.777,-3.928 5.577,-4.067"
       style="fill:#231f20;fill-opacity:1;fill-rule:nonzero;stroke:none"
       transform="matrix(1.3333333,0,0,-1.3333333,0,270.66667)" />
    <path
       id="path19"
       d="m 146.081,45.372 9.01,-11.585 -0.043,-0.034 -16.159,6.026 -2.253,-1.752 12.675,-16.297 2.389,1.857 -9.01,11.586 0.044,0.035 16.148,-6.036 2.264,1.762 -12.675,16.297 -2.39,-1.859"
       style="fill:#231f20;fill-opacity:1;fill-rule:nonzero;stroke:none"
       transform="matrix(1.3333333,0,0,-1.3333333,0,270.66667)" />
    <path
       id="path20"
       d="m 69.486,20.043 -0.05,0.022 -2.475,17.066 -2.619,1.136 -8.208,-18.944 2.778,-1.204 5.835,13.467 0.05,-0.021 2.463,-17.062 2.631,-1.14 8.208,18.943 -2.778,1.203 -5.835,-13.466"
       style="fill:#231f20;fill-opacity:1;fill-rule:nonzero;stroke:none"
       transform="matrix(1.3333333,0,0,-1.3333333,0,270.66667)" />
    <path
       id="path21"
       d="m 23.477,66.091 -2.25,5.393 9.449,0.808 0.021,-0.051 z m 10.616,8.979 -21.852,-1.243 1.236,-2.962 4.853,0.361 2.921,-6.999 -3.665,-3.209 1.231,-2.949 16.253,14.66 -0.977,2.341"
       style="fill:#231f20;fill-opacity:1;fill-rule:nonzero;stroke:none"
       transform="matrix(1.3333333,0,0,-1.3333333,0,270.66667)" />
    <path
       id="path22"
       d="m 35.247,54.045 c -0.446,0.85 -0.788,1.526 -1.026,2.03 -0.413,0.917 -0.548,1.7 -0.403,2.348 0.137,0.645 0.449,1.137 0.936,1.479 0.822,0.556 1.625,0.711 2.408,0.467 0.752,-0.232 1.396,-0.73 1.932,-1.494 1.005,-1.497 1.52,-3.152 1.547,-4.967 l 3.073,0.095 c 0.062,2.288 -0.597,4.463 -1.979,6.531 -1.202,1.677 -2.574,2.663 -4.117,2.952 -1.571,0.314 -3.096,-0.047 -4.572,-1.084 -1.23,-0.863 -2.008,-1.975 -2.336,-3.333 -0.32,-1.319 -0.106,-2.768 0.643,-4.343 0.436,-0.867 0.838,-1.663 1.208,-2.387 0.754,-1.616 0.496,-2.859 -0.775,-3.729 -1.56,-1.05 -3.102,-0.524 -4.627,1.582 -1.246,1.808 -1.774,3.753 -1.581,5.833 l -3.068,0.273 c -0.315,-2.821 0.379,-5.443 2.08,-7.866 2.677,-3.714 5.66,-4.477 8.95,-2.289 1.199,0.841 1.996,1.943 2.391,3.304 0.404,1.38 0.177,2.913 -0.684,4.598"
       style="fill:#231f20;fill-opacity:1;fill-rule:nonzero;stroke:none"
       transform="matrix(1.3333333,0,0,-1.3333333,0,270.66667)" />
    <path
       id="path23"
       d="M 58.442,42.708 47.025,25.506 49.547,23.833 60.965,41.034 58.442,42.708"
       style="fill:#231f20;fill-opacity:1;fill-rule:nonzero;stroke:none"
       transform="matrix(1.3333333,0,0,-1.3333333,0,270.66667)" />
    <path
       id="path24"
       d="m 82.678,24.632 c 0.237,0.671 0.585,1.196 1.044,1.573 0.384,0.369 0.855,0.653 1.416,0.851 0.549,0.19 1.178,0.237 1.885,0.143 0.955,-0.172 1.723,-0.588 2.303,-1.247 0.549,-0.684 0.879,-1.457 0.991,-2.322 l 3.172,-0.507 c -0.043,1.755 -0.572,3.308 -1.587,4.656 -1.016,1.339 -2.475,2.17 -4.376,2.494 -1.556,0.229 -2.912,0.055 -4.069,-0.525 -1.174,-0.567 -2.075,-1.284 -2.704,-2.148 -0.377,-0.447 -0.702,-1.059 -0.975,-1.838 -0.263,-0.78 -0.585,-2.353 -0.964,-4.721 -0.373,-2.33 -0.558,-3.917 -0.554,-4.758 0.002,-0.45 0.035,-0.828 0.097,-1.134 0.072,-0.299 0.156,-0.613 0.251,-0.944 0.328,-1.018 0.962,-1.971 1.903,-2.857 0.918,-0.912 2.15,-1.512 3.697,-1.798 2.018,-0.284 3.8,0.152 5.346,1.308 1.538,1.166 2.488,2.766 2.851,4.799 l 0.664,4.146 -7.019,1.124 -0.465,-2.905 4.029,-0.645 -0.171,-1.066 C 89.22,15.033 88.666,14.062 87.78,13.398 86.889,12.697 85.86,12.44 84.693,12.627 c -0.705,0.113 -1.287,0.364 -1.744,0.752 -0.473,0.345 -0.835,0.752 -1.084,1.224 -0.318,0.501 -0.484,1.116 -0.497,1.847 -0.031,0.733 0.114,2.103 0.436,4.112 0.321,2.009 0.613,3.364 0.874,4.07"
       style="fill:#231f20;fill-opacity:1;fill-rule:nonzero;stroke:none"
       transform="matrix(1.3333333,0,0,-1.3333333,0,270.66667)" />
    <path
       id="path25"
       d="m 54.195,42.421 1.863,2.056 -10.363,9.401 -1.864,-2.054 4.059,-3.682 -12.008,-13.237 2.243,-2.034 12.008,13.236 4.062,-3.686"
       style="fill:#231f20;fill-opacity:1;fill-rule:nonzero;stroke:none"
       transform="matrix(1.3333333,0,0,-1.3333333,0,270.66667)" />
    <path
       id="path26"
       d="m 29.151,152.386 2.726,3.797 5.051,-3.628 -2.726,-3.796 c -0.673,-0.905 -1.404,-1.395 -2.193,-1.472 -0.797,-0.071 -1.542,0.142 -2.233,0.639 -0.677,0.486 -1.109,1.117 -1.296,1.896 -0.195,0.783 0.028,1.637 0.671,2.564 z m 14.851,-4.911 -2.555,-3.557 c -0.661,-0.888 -1.364,-1.386 -2.107,-1.494 -0.78,-0.093 -1.509,0.104 -2.187,0.591 -0.678,0.486 -1.086,1.106 -1.224,1.859 -0.181,0.772 0.051,1.608 0.697,2.507 l 2.555,3.557 z m -16.148,-1.896 c 0.874,-0.628 1.836,-0.997 2.884,-1.107 1.047,-0.063 2.008,0.263 2.882,0.979 l 0.046,-0.034 c -0.106,-0.632 -0.132,-1.21 -0.077,-1.733 0.039,-0.512 0.146,-0.961 0.323,-1.348 0.388,-0.785 0.933,-1.419 1.634,-1.898 1.35,-0.969 2.725,-1.344 4.127,-1.123 1.389,0.218 2.665,1.12 3.827,2.706 l 4.521,6.295 -16.769,12.043 -4.916,-6.845 c -0.918,-1.279 -1.244,-2.662 -0.976,-4.15 0.224,-1.468 1.056,-2.73 2.494,-3.785"
       style="fill:#231f20;fill-opacity:1;fill-rule:nonzero;stroke:none"
       transform="matrix(1.3333333,0,0,-1.3333333,0,270.66667)" />
    <path
       id="path27"
       d="m 29.351,80.512 2.716,0.563 -2.841,13.702 -2.716,-0.564 1.113,-5.367 -17.499,-3.629 0.614,-2.964 17.499,3.628 1.114,-5.369"
       style="fill:#231f20;fill-opacity:1;fill-rule:nonzero;stroke:none"
       transform="matrix(1.3333333,0,0,-1.3333333,0,270.66667)" />
    <path
       id="path28"
       d="m 118.632,14.03 c -0.403,-0.7 -1.157,-1.16 -2.263,-1.381 l -4.598,-0.839 -1.117,6.117 4.598,0.84 c 1.112,0.184 1.979,0.028 2.601,-0.464 0.622,-0.502 1.01,-1.173 1.163,-2.01 0.149,-0.819 0.021,-1.575 -0.384,-2.263 z m -9.542,12.464 4.307,0.787 c 1.093,0.18 1.944,0.051 2.555,-0.387 0.625,-0.475 1.014,-1.122 1.164,-1.944 0.15,-0.822 0.013,-1.551 -0.41,-2.188 -0.406,-0.681 -1.154,-1.121 -2.243,-1.32 l -4.307,-0.787 z m 11.631,-7.046 c -0.71,0.771 -1.628,1.204 -2.754,1.296 l -0.01,0.055 c 0.516,0.383 0.936,0.781 1.259,1.195 0.328,0.396 0.562,0.794 0.702,1.194 0.268,0.835 0.314,1.669 0.144,2.501 -0.299,1.635 -1.03,2.858 -2.192,3.674 -1.151,0.806 -2.695,1.043 -4.633,0.709 l -7.624,-1.392 3.708,-20.31 8.291,1.513 c 1.549,0.283 2.743,1.053 3.583,2.31 0.858,1.212 1.136,2.698 0.833,4.456 -0.193,1.059 -0.629,1.992 -1.307,2.799"
       style="fill:#231f20;fill-opacity:1;fill-rule:nonzero;stroke:none"
       transform="matrix(1.3333333,0,0,-1.3333333,0,270.66667)" />
    <path
       id="path29"
       d="m 136.982,20.697 c -0.103,-0.512 -0.33,-0.992 -0.683,-1.44 -0.358,-0.501 -0.867,-0.898 -1.528,-1.192 -0.653,-0.291 -1.277,-0.399 -1.872,-0.322 -0.585,0.029 -1.11,0.173 -1.576,0.43 -0.541,0.246 -1.016,0.671 -1.426,1.277 -0.427,0.596 -1.054,1.824 -1.882,3.681 -0.827,1.858 -1.325,3.154 -1.492,3.888 -0.168,0.692 -0.162,1.319 0.016,1.887 0.12,0.518 0.36,1.014 0.721,1.487 0.357,0.459 0.858,0.843 1.503,1.151 0.669,0.277 1.301,0.399 1.898,0.364 0.576,-0.054 1.088,-0.214 1.538,-0.481 0.54,-0.244 1.02,-0.657 1.439,-1.237 0.426,-0.618 1.053,-1.856 1.882,-3.714 0.827,-1.857 1.324,-3.143 1.492,-3.855 0.158,-0.716 0.149,-1.359 -0.03,-1.924 z m 1.302,7.012 c -0.975,2.19 -1.684,3.631 -2.122,4.325 -0.448,0.689 -0.928,1.194 -1.44,1.512 -0.814,0.682 -1.853,1.149 -3.116,1.403 -1.276,0.258 -2.644,0.072 -4.104,-0.558 -1.428,-0.657 -2.469,-1.543 -3.123,-2.658 -0.674,-1.114 -1.039,-2.204 -1.095,-3.269 -0.072,-0.581 -0.008,-1.272 0.189,-2.074 0.206,-0.8 0.798,-2.297 1.777,-4.491 0.96,-2.155 1.672,-3.585 2.136,-4.288 0.247,-0.375 0.481,-0.674 0.7,-0.898 0.225,-0.21 0.466,-0.427 0.727,-0.652 0.831,-0.674 1.881,-1.125 3.154,-1.353 1.267,-0.262 2.627,-0.09 4.078,0.515 1.437,0.682 2.486,1.583 3.147,2.704 0.664,1.093 1.015,2.169 1.052,3.23 0.106,0.594 0.047,1.297 -0.174,2.108 -0.23,0.807 -0.825,2.287 -1.786,4.444"
       style="fill:#231f20;fill-opacity:1;fill-rule:nonzero;stroke:none"
       transform="matrix(1.3333333,0,0,-1.3333333,0,270.66667)" />
    <path
       id="path30"
       d="m 173.575,99.338 2.94,0.165 -0.541,9.732 17.673,0.983 -0.168,3.023 -20.614,-1.147 0.71,-12.756"
       style="fill:#231f20;fill-opacity:1;fill-rule:nonzero;stroke:none"
       transform="matrix(1.3333333,0,0,-1.3333333,0,270.66667)" />
    <path
       id="path31"
       d="m 160.983,141.825 12.589,7.544 0.029,-0.047 -7.942,-15.301 1.474,-2.46 17.709,10.612 -1.556,2.598 -12.589,-7.544 -0.028,0.046 7.934,15.312 -1.467,2.45 -17.709,-10.614 1.556,-2.596"
       style="fill:#231f20;fill-opacity:1;fill-rule:nonzero;stroke:none"
       transform="matrix(1.3333333,0,0,-1.3333333,0,270.66667)" />
    <path
       id="path32"
       d="m 185.036,129.291 c 0.5,-0.184 0.962,-0.483 1.386,-0.9 0.411,-0.411 0.73,-0.956 0.956,-1.635 0.192,-0.696 0.235,-1.339 0.127,-1.927 -0.126,-0.565 -0.348,-1.055 -0.667,-1.467 -0.311,-0.507 -0.779,-0.931 -1.406,-1.276 -0.666,-0.344 -1.973,-0.814 -3.918,-1.405 -1.947,-0.592 -3.284,-0.927 -4.012,-1.004 -0.73,-0.07 -1.364,0.021 -1.905,0.268 -0.495,0.166 -0.943,0.451 -1.343,0.856 -0.452,0.417 -0.784,0.971 -0.996,1.663 -0.206,0.684 -0.237,1.317 -0.087,1.899 0.101,0.575 0.309,1.08 0.623,1.51 0.311,0.505 0.792,0.924 1.443,1.256 0.646,0.351 1.941,0.821 3.886,1.413 1.946,0.59 3.294,0.923 4.042,0.999 0.708,0.08 1.331,-0.003 1.871,-0.25 z m -2.117,3.354 c -0.818,-0.106 -2.377,-0.508 -4.676,-1.207 -2.258,-0.687 -3.764,-1.216 -4.519,-1.588 -0.404,-0.2 -0.73,-0.394 -0.977,-0.584 -0.236,-0.196 -0.482,-0.41 -0.737,-0.64 -0.773,-0.741 -1.351,-1.729 -1.735,-2.963 -0.417,-1.225 -0.415,-2.595 0.006,-4.11 0.499,-1.511 1.263,-2.663 2.294,-3.458 1.001,-0.794 2.027,-1.275 3.074,-1.445 0.578,-0.177 1.282,-0.206 2.114,-0.087 0.829,0.127 2.373,0.535 4.631,1.221 2.294,0.697 3.812,1.22 4.554,1.571 0.74,0.357 1.299,0.771 1.68,1.241 0.777,0.723 1.369,1.696 1.777,2.919 0.414,1.234 0.4,2.613 -0.046,4.141 -0.474,1.499 -1.224,2.641 -2.251,3.428 -1.022,0.807 -2.056,1.304 -3.107,1.492 -0.566,0.142 -1.262,0.165 -2.082,0.069"
       style="fill:#231f20;fill-opacity:1;fill-rule:nonzero;stroke:none"
       transform="matrix(1.3333333,0,0,-1.3333333,0,270.66667)" />
    <path
       id="path33"
       d="m 153.26,159.919 5.177,0.239 -3.224,-11.011 2.558,-2.528 3.756,13.869 10.282,1.284 -2.558,2.528 -13.331,-1.775 -0.043,0.042 7.477,7.563 -2.153,2.129 -14.514,-14.681 2.151,-2.128 4.422,4.469"
       style="fill:#231f20;fill-opacity:1;fill-rule:nonzero;stroke:none"
       transform="matrix(1.3333333,0,0,-1.3333333,0,270.66667)" />
    <path
       id="path34"
       d="m 137.71,181.647 0.051,-0.021 -1.115,-9.419 -5.317,2.423 z m -11.643,-12.739 3.313,3.564 6.901,-3.146 -0.506,-4.845 2.909,-1.325 1.952,21.8 -2.309,1.053 -15.18,-15.769 2.92,-1.332"
       style="fill:#231f20;fill-opacity:1;fill-rule:nonzero;stroke:none"
       transform="matrix(1.3333333,0,0,-1.3333333,0,270.66667)" />
    <path
       id="path35"
       d="m 71.05,169.097 c -0.552,-0.245 -1.091,-0.325 -1.621,-0.237 -0.509,0.043 -0.972,0.184 -1.388,0.425 l -1.566,-2.691 c 1.779,-1.103 3.749,-1.207 5.911,-0.312 1.528,0.698 2.637,1.834 3.328,3.408 0.71,1.554 0.663,3.288 -0.145,5.202 l -5.758,13.013 -2.769,-1.225 5.637,-12.741 c 0.283,-0.638 0.423,-1.212 0.418,-1.72 0.011,-0.522 -0.087,-0.989 -0.293,-1.402 -0.427,-0.839 -1.011,-1.413 -1.754,-1.72"
       style="fill:#231f20;fill-opacity:1;fill-rule:nonzero;stroke:none"
       transform="matrix(1.3333333,0,0,-1.3333333,0,270.66667)" />
    <path
       id="path36"
       d="m 173.404,95.951 -2.03,-12.614 2.906,-0.467 1.55,9.623 17.477,-2.814 0.48,2.99 -20.383,3.282"
       style="fill:#231f20;fill-opacity:1;fill-rule:nonzero;stroke:none"
       transform="matrix(1.3333333,0,0,-1.3333333,0,270.66667)" />
    <path
       id="path37"
       d="m 83.189,172.358 c 1.577,-1.019 3.349,-1.339 5.317,-0.962 1.996,0.421 3.518,1.407 4.568,2.958 1.049,1.511 1.376,3.334 0.983,5.47 l -2.697,13.382 -2.968,-0.6 2.632,-13.059 c 0.261,-1.383 0.096,-2.51 -0.495,-3.381 -0.601,-0.912 -1.481,-1.484 -2.638,-1.717 -1.158,-0.235 -2.181,-0.045 -3.071,0.566 -0.9,0.57 -1.498,1.544 -1.794,2.921 l -2.631,13.059 -2.969,-0.598 2.7,-13.39 c 0.445,-2.122 1.467,-3.672 3.063,-4.649"
       style="fill:#231f20;fill-opacity:1;fill-rule:nonzero;stroke:none"
       transform="matrix(1.3333333,0,0,-1.3333333,0,270.66667)" />
    <path
       id="path38"
       d="m 116.271,171.38 2.962,-0.624 3.688,17.487 5.366,-1.131 0.573,2.714 -13.692,2.886 -0.571,-2.713 5.362,-1.131 -3.688,-17.488"
       style="fill:#231f20;fill-opacity:1;fill-rule:nonzero;stroke:none"
       transform="matrix(1.3333333,0,0,-1.3333333,0,270.66667)" />
    <path
       id="path39"
       d="m 101.869,172.838 3.027,-0.048 0.286,17.869 5.485,-0.087 0.043,2.773 -13.991,0.224 -0.045,-2.774 5.481,-0.087 -0.286,-17.87"
       style="fill:#231f20;fill-opacity:1;fill-rule:nonzero;stroke:none"
       transform="matrix(1.3333333,0,0,-1.3333333,0,270.66667)" />
  </g>
</svg>
