<?xml version="1.0" encoding="UTF-8"?>
<!DOCTYPE svg PUBLIC "-//W3C//DTD SVG 1.1//EN" "http://www.w3.org/Graphics/SVG/1.1/DTD/svg11.dtd">
<!-- Creator: CorelDRAW X5 -->
<svg xmlns="http://www.w3.org/2000/svg" xml:space="preserve" width="198.344mm" height="198.344mm" style="shape-rendering:geometricPrecision; text-rendering:geometricPrecision; image-rendering:optimizeQuality; fill-rule:evenodd; clip-rule:evenodd"
viewBox="0 0 5825 5825"
 xmlns:xlink="http://www.w3.org/1999/xlink">
 <defs>
  <style type="text/css">
   <![CDATA[
    .fil4 {fill:#009846}
    .fil0 {fill:#DBE285}
    .fil1 {fill:#FFFBDB}
    .fil2 {fill:#009846;fill-rule:nonzero}
    .fil3 {fill:#DBE285;fill-rule:nonzero}
   ]]>
  </style>
 </defs>
 <g id="Ebene_x0020_1">
  <metadata id="CorelCorpID_0Corel-Layer"/>
  <path class="fil0" d="M2913 4782c-223,3 -518,-286 -607,-422 -5,2 -11,4 -16,6 -352,142 -582,-530 -574,-698 -47,0 -95,-8 -130,-34 -227,-167 -294,-584 -232,-801 2,-8 5,-17 8,-25 -22,-8 -41,-21 -60,-34 -36,-26 -39,-68 -39,-104 3,-613 678,-1044 1403,-1125 3,-84 -81,-350 -48,-419 12,-25 31,-51 62,-59 103,-27 353,-29 465,0 31,8 49,34 62,59 34,69 -50,335 -48,419 726,81 1400,512 1403,1125 0,36 -3,77 -39,104 -19,14 -38,26 -60,34 3,8 5,17 8,25 62,217 -5,634 -232,801 -35,26 -83,34 -130,34 8,168 -222,841 -574,698 -5,-2 -10,-4 -16,-6 -89,137 -384,425 -607,422z"/>
  <path class="fil1" d="M2916 4635c-285,-107 -392,-298 -553,-487 -52,37 -92,64 -154,89 -186,-138 -375,-406 -301,-618 91,-138 -143,-72 -201,-96 -278,-116 -182,-633 -112,-834 -48,-6 -99,-17 -148,-15 -33,-1354 2964,-1275 2933,0 -49,-2 -100,9 -148,15 70,201 166,718 -112,834 -57,24 -292,-42 -201,96 74,212 -115,480 -301,618 -62,-25 -103,-52 -154,-89 -161,189 -263,380 -547,487z"/>
  <path class="fil2" d="M2213 2577l551 0 0 -339c0,-61 -4,-101 -11,-120 -6,-15 -18,-27 -37,-38 -25,-14 -52,-21 -80,-21l-42 0 0 -33 507 0 0 33 -42 0c-28,0 -54,7 -79,20 -19,9 -31,24 -38,42 -7,19 -10,58 -10,116l0 765c0,60 4,100 11,119 6,15 18,27 36,38 26,14 53,21 80,21l42 0 0 32 -507 0 0 -32 42 0c48,0 84,-14 106,-43 15,-19 22,-64 22,-135l0 -361 -551 0 0 361c0,60 4,100 11,119 6,15 18,27 37,38 25,14 51,21 79,21l43 0 0 32 -508 0 0 -32 42 0c49,0 84,-14 107,-43 14,-19 21,-64 21,-135l0 -765c0,-61 -4,-101 -11,-120 -6,-15 -18,-27 -36,-38 -26,-14 -53,-21 -81,-21l-42 0 0 -33 508 0 0 33 -43 0c-28,0 -54,7 -79,20 -18,9 -31,24 -38,42 -7,19 -11,58 -11,116l0 339z"/>
  <path class="fil3" d="M3700 3892l-317 0 -401 -554c-30,1 -54,1 -73,1 -7,0 -16,0 -24,0 -9,0 -18,-1 -27,-1l0 344c0,75 8,121 24,139 22,26 56,38 100,38l47 0 0 32 -508 0 0 -32 44 0c50,0 86,-16 107,-49 12,-18 18,-61 18,-129l0 -766c0,-75 -8,-121 -24,-139 -23,-26 -57,-38 -101,-38l-44 0 0 -33 432 0c126,0 219,9 278,28 60,18 110,52 152,101 41,50 62,108 62,176 0,73 -24,136 -71,190 -47,53 -121,91 -221,113l245 340c56,78 104,130 144,156 40,25 93,42 158,49l0 32zm-842 -609c11,0 21,0 29,0 8,0 15,1 20,1 113,0 198,-24 256,-73 58,-49 86,-111 86,-187 0,-74 -23,-134 -70,-181 -46,-46 -108,-70 -184,-70 -34,0 -79,6 -137,17l0 493z"/>
  <path class="fil4" d="M2913 5825c1608,0 2913,-1304 2913,-2913 0,-1608 -1304,-2913 -2913,-2913 -1608,0 -2913,1304 -2913,2913 0,1608 1304,2913 2913,2913zm0 -886c1119,0 2027,-908 2027,-2027 0,-1119 -908,-2027 -2027,-2027 -1119,0 -2027,908 -2027,2027 0,1119 908,2027 2027,2027zm-1935 -853l-99 60 -5 -9c23,-19 37,-41 42,-67 6,-26 3,-48 -8,-68 -9,-15 -20,-25 -33,-29 -13,-4 -25,-3 -35,3 -7,4 -12,9 -15,15 -5,8 -7,19 -9,32 -1,10 0,31 2,63 3,45 0,78 -8,99 -8,21 -22,37 -42,49 -25,15 -52,17 -82,8 -29,-9 -53,-29 -70,-59 -5,-9 -10,-19 -13,-29 -3,-10 -5,-22 -7,-38 -1,-9 -3,-15 -6,-20 -2,-4 -6,-7 -11,-10 -5,-3 -12,-3 -20,-3l-5 -8 113 -66 5 8c-28,25 -45,51 -51,80 -6,28 -3,53 9,74 10,17 22,27 36,32 15,5 28,3 40,-3 7,-4 13,-10 17,-18 4,-8 7,-17 9,-28 2,-11 1,-29 0,-54 -2,-35 -2,-61 0,-79 3,-17 8,-33 16,-46 8,-13 19,-24 33,-32 24,-14 49,-17 76,-9 27,8 48,25 64,52 6,10 10,20 13,30 2,8 4,18 5,31 1,13 3,21 5,25 2,4 5,6 9,7 4,1 11,0 21,-4l4 7zm-174 322c-38,-8 -64,-22 -77,-41 -8,-11 -11,-23 -9,-35 2,-13 8,-23 19,-31 15,-11 33,-14 54,-10 21,4 57,20 107,49l20 -14c15,-11 23,-18 26,-22 3,-4 4,-10 3,-16 0,-7 -3,-12 -7,-18 -7,-9 -14,-15 -22,-18 -5,-2 -9,-1 -13,1 -3,2 -5,7 -7,14 -2,10 -6,16 -11,20 -7,5 -14,7 -23,5 -8,-2 -16,-6 -22,-15 -6,-9 -9,-18 -8,-28 1,-10 5,-17 12,-22 10,-7 22,-10 37,-9 15,1 30,7 45,18 15,11 28,23 39,39 13,18 20,36 20,52 0,16 -3,29 -10,39 -4,6 -17,17 -38,32l-75 55c-9,6 -14,11 -16,13 -2,2 -3,5 -3,7 0,2 1,4 2,6 3,4 8,5 16,5l0 10c-15,1 -28,-1 -38,-5 -10,-4 -18,-11 -25,-20 -8,-11 -12,-22 -11,-32 1,-10 6,-19 15,-28zm15 -11l65 -47c-22,-10 -41,-14 -59,-14 -11,0 -21,3 -28,8 -6,5 -10,11 -12,19 -1,6 0,12 5,19 5,7 15,12 29,16zm277 56l-23 20c18,1 33,3 45,8 12,4 22,12 31,21 10,12 15,24 16,38 0,13 -3,26 -11,36 -6,9 -19,22 -40,40l-70 61c-14,12 -22,21 -23,26 -1,5 1,13 7,21l-7 6 -79 -91 7 -6c7,6 14,8 21,7 5,-1 14,-7 27,-18l80 -70c15,-13 24,-22 27,-26 3,-5 4,-9 4,-14 0,-5 -2,-9 -5,-12 -10,-11 -26,-14 -51,-10l-97 84c-14,12 -21,20 -22,26 -1,6 0,12 5,20l-7 6 -79 -91 7 -6c7,7 15,10 21,10 5,0 14,-6 28,-19l102 -89c14,-12 21,-20 22,-26 1,-5 -1,-13 -7,-21l7 -6 64 74zm355 207l-188 201c-13,14 -20,22 -21,25 -3,5 -4,10 -3,14 1,5 5,10 11,17l-6 6 -87 -54 26 -28c-19,2 -34,2 -44,0 -11,-3 -20,-8 -29,-16 -22,-21 -31,-47 -25,-79 5,-26 18,-51 40,-74 18,-19 37,-33 57,-42 20,-9 40,-12 58,-9 18,3 34,10 47,23 8,8 14,16 18,26 3,9 5,21 5,36l49 -53c12,-13 19,-22 21,-26 2,-5 2,-10 1,-14 -1,-5 -6,-11 -14,-18l7 -8 78 72zm-163 70c7,-26 4,-46 -9,-58 -5,-4 -10,-7 -15,-7 -8,0 -18,3 -30,10 -12,7 -27,20 -46,41 -21,22 -34,40 -41,54 -7,14 -9,25 -8,35 1,5 3,10 9,15 11,10 29,11 55,3l86 -92zm215 237l-105 -79c-18,26 -26,51 -25,75 1,18 8,33 21,43 8,6 17,9 27,10 10,0 23,-2 40,-8l4 10c-26,13 -49,20 -68,19 -19,-1 -37,-7 -53,-20 -28,-21 -42,-48 -40,-81 2,-26 12,-53 32,-79 24,-32 52,-51 83,-57 31,-6 59,0 82,17 19,15 30,35 32,62 2,27 -8,56 -30,88zm-40 -52c17,-22 27,-38 30,-48 4,-10 5,-19 3,-27 -1,-5 -4,-9 -9,-12 -7,-5 -16,-6 -25,-3 -17,6 -34,20 -50,41l-5 7 56 42zm251 -72l-158 252c-9,14 -13,25 -12,31 1,6 6,12 15,19l-5 8 -110 -68 5 -8c9,5 17,7 25,5 5,-2 12,-9 21,-24l131 -210c9,-14 13,-24 12,-30 -1,-6 -6,-12 -15,-19l5 -8 85 53zm33 418l-182 -101 3 -5 221 -127 -34 -19c-15,-8 -26,-12 -33,-13 -8,-1 -15,0 -22,4 -7,4 -17,12 -29,24l-8 -4 34 -61 176 98 -3 6 -219 126 14 8c29,16 52,23 69,22 17,-1 35,-11 54,-29l6 3 -46 68zm241 -266l-50 129c17,-8 32,-13 44,-14 12,-1 24,0 35,4 14,5 24,14 31,26 7,12 10,24 9,36 -1,12 -6,31 -16,56l-33 87c-7,17 -9,28 -7,34 2,5 7,11 16,15l-3 9 -113 -43 3 -9c8,2 16,1 22,-3 4,-3 10,-13 16,-29l38 -100c7,-19 11,-30 11,-36 0,-5 -1,-10 -3,-14 -2,-4 -6,-7 -10,-8 -6,-2 -13,-3 -21,-1 -8,2 -17,7 -28,15l-46 120c-6,16 -9,26 -8,31 1,7 6,12 15,17l-3 9 -113 -43 3 -9c10,3 18,2 24,-1 4,-2 9,-12 16,-29l87 -227c6,-17 9,-28 7,-33 -2,-5 -7,-11 -16,-16l3 -9 91 35zm192 395c-35,17 -64,22 -86,15 -13,-4 -23,-11 -29,-22 -6,-11 -7,-23 -4,-36 5,-18 17,-31 36,-41 19,-10 57,-19 115,-28l7 -23c5,-17 7,-29 7,-34 -1,-5 -3,-10 -7,-15 -4,-5 -10,-8 -16,-10 -11,-3 -20,-3 -28,0 -5,2 -8,5 -9,8 -1,3 0,8 3,15 4,9 5,17 4,23 -2,8 -7,14 -15,18 -8,4 -16,5 -26,2 -10,-3 -18,-9 -23,-17 -5,-8 -7,-17 -4,-25 3,-12 11,-22 24,-30 12,-8 28,-13 46,-14 18,-1 37,1 55,6 22,6 38,16 48,29 10,13 15,25 16,37 0,8 -3,24 -10,49l-26 89c-3,10 -4,17 -4,20 0,3 1,5 2,7 1,2 3,3 5,4 4,1 10,-1 16,-5l6 8c-12,10 -23,16 -33,19 -10,3 -21,3 -32,0 -13,-4 -22,-10 -28,-18 -6,-8 -7,-19 -6,-32zm5 -18l22 -77c-23,6 -42,14 -55,25 -9,7 -15,15 -17,24 -2,8 -1,15 2,22 3,6 8,9 15,12 8,2 19,0 33,-6zm376 -108l-29 185c-3,18 -3,30 0,35 3,5 9,9 19,12l-1 9 -96 -15 5 -32c-13,12 -26,20 -38,24 -12,4 -25,5 -39,3 -13,-2 -24,-8 -34,-18 -9,-10 -15,-21 -16,-32 -2,-12 -1,-31 4,-58l15 -94c3,-18 3,-29 0,-34 -3,-5 -9,-9 -19,-12l1 -9 96 15 -26 162c-3,17 -4,28 -3,33 1,5 3,9 6,12 3,3 7,5 11,6 6,1 12,0 17,-2 7,-3 17,-11 28,-23l20 -126c3,-18 3,-29 0,-34 -3,-5 -9,-9 -19,-12l1 -9 96 15zm194 16l-2 82 -9 -1c-9,-25 -18,-42 -29,-52 -11,-10 -21,-15 -32,-16 -7,0 -13,1 -18,6 -5,4 -8,10 -9,16 0,5 1,9 4,14 5,7 19,20 43,39 24,19 39,34 46,47 7,12 10,26 9,41 -1,13 -5,26 -13,38 -8,12 -18,21 -30,27 -13,6 -26,8 -41,7 -11,-1 -26,-5 -45,-14 -5,-2 -8,-3 -10,-4 -6,0 -11,4 -15,12l-8 -1 2 -86 9 1c6,23 15,41 28,53 13,12 25,19 37,19 8,1 15,-1 21,-6 5,-5 9,-11 9,-18 1,-8 -1,-15 -6,-22 -5,-6 -15,-16 -32,-29 -25,-20 -41,-35 -48,-45 -10,-15 -15,-31 -14,-47 1,-18 9,-35 23,-49 14,-14 33,-20 57,-18 13,1 25,5 37,12 4,3 8,4 11,5 3,0 6,0 8,-1 2,-1 5,-5 10,-10l9 1zm236 125l-131 -2c1,32 9,57 24,76 11,14 25,22 42,22 10,0 20,-3 28,-8 8,-6 18,-16 27,-30l9 6c-13,26 -28,45 -44,55 -16,11 -34,16 -55,16 -35,-1 -62,-15 -80,-42 -14,-22 -21,-50 -21,-82 1,-40 12,-72 34,-95 22,-23 48,-35 77,-34 24,0 45,11 63,31 17,20 27,50 27,89zm-63 -18c0,-28 -1,-46 -4,-57 -3,-10 -7,-18 -13,-23 -4,-3 -8,-5 -14,-5 -9,0 -16,4 -22,13 -10,15 -16,36 -16,62l0 9 70 1zm171 -104l2 31c11,-14 22,-25 33,-31 11,-7 23,-11 36,-12 15,-1 29,2 39,10 11,8 18,18 23,31 3,10 6,28 8,56l6 93c1,18 4,30 7,34 4,4 11,7 21,7l1 9 -121 8 -1 -9c9,-2 15,-6 19,-13 2,-4 3,-15 2,-32l-7 -106c-1,-20 -3,-32 -5,-37 -2,-5 -5,-9 -9,-11 -4,-3 -8,-4 -12,-3 -15,1 -28,12 -39,34l9 128c1,18 4,29 7,34 4,5 10,7 19,8l1 9 -121 8 -1 -9c10,-2 17,-5 21,-11 3,-4 3,-15 2,-34l-9 -135c-1,-18 -4,-29 -7,-33 -4,-4 -11,-7 -21,-7l-1 -9 97 -7zm394 -178l-36 379 -32 7 36 -379 32 -7zm270 108l39 100c6,17 11,27 15,30 3,3 8,6 15,7 7,1 14,0 23,-4l11 -4 3 9 -169 65 -3 -9 11 -4c9,-4 16,-8 21,-14 3,-4 5,-9 5,-15 0,-4 -3,-15 -9,-31l-82 -213c-6,-17 -11,-27 -15,-30 -3,-4 -8,-6 -15,-7 -6,-1 -14,0 -23,4l-11 4 -3 -9 169 -65 3 9 -11 4c-9,4 -16,8 -21,14 -3,4 -5,9 -5,15 0,5 3,15 9,31l35 92 114 -44 -35 -92c-6,-17 -11,-27 -15,-30 -3,-3 -8,-6 -15,-7 -7,-1 -14,0 -24,4l-11 4 -3 -9 169 -65 3 9 -11 4c-10,4 -17,8 -21,14 -3,4 -5,9 -5,15 0,4 3,15 9,31l82 213c6,17 11,27 15,30 3,3 8,6 15,7 7,1 14,0 24,-4l11 -4 3 9 -169 65 -3 -9 11 -4c10,-4 16,-8 21,-14 3,-4 5,-9 5,-15 0,-4 -3,-15 -9,-31l-39 -100 -114 44zm421 -48c-13,37 -30,61 -50,72 -12,7 -24,8 -36,5 -12,-3 -22,-11 -28,-23 -9,-16 -10,-34 -3,-54 7,-20 27,-54 62,-101l-12 -21c-9,-16 -15,-25 -19,-28 -4,-3 -9,-5 -16,-5 -7,0 -13,1 -19,4 -10,5 -16,12 -20,20 -2,5 -3,9 -1,13 2,3 6,6 13,8 9,3 16,8 19,14 4,7 5,15 2,23 -3,8 -8,15 -17,20 -9,5 -19,7 -28,5 -9,-2 -16,-7 -21,-15 -6,-11 -7,-23 -4,-38 3,-15 11,-29 23,-42 12,-14 27,-25 43,-34 20,-11 38,-15 54,-14 16,2 29,7 38,15 6,5 15,19 27,42l45 81c5,10 9,15 11,17 2,2 4,3 6,4 2,0 4,0 6,-1 4,-2 6,-7 7,-15l10 2c-1,15 -5,27 -10,37 -5,9 -13,17 -23,23 -12,7 -23,9 -33,7 -10,-2 -19,-8 -26,-19zm-9 -16l-39 -70c-12,21 -19,39 -21,56 -1,11 0,21 5,29 4,7 10,12 17,14 6,2 12,1 19,-3 7,-4 14,-13 19,-27zm31 -365l158 252c9,14 16,22 22,24 6,2 14,0 24,-5l5 8 -110 68 -5 -8c9,-6 14,-13 15,-20 1,-5 -3,-15 -12,-29l-131 -210c-9,-14 -16,-22 -22,-24 -6,-2 -14,0 -24,5l-5 -8 85 -53zm106 -73l171 244c10,14 18,22 23,23 6,2 14,-1 23,-7l5 8 -106 74 -5 -8c8,-6 13,-13 14,-21 1,-5 -4,-15 -14,-28l-142 -203c-10,-14 -17,-21 -23,-23 -6,-2 -14,1 -23,6l-5 -8 82 -58zm308 19l-101 84c22,23 44,37 68,41 18,3 33,0 46,-11 8,-7 13,-15 16,-24 3,-10 3,-23 1,-41l10 -1c7,29 8,52 3,71 -5,18 -15,34 -31,48 -27,23 -57,30 -88,20 -25,-7 -49,-24 -69,-49 -26,-31 -38,-62 -36,-94 1,-32 13,-57 35,-76 19,-16 41,-22 67,-18 26,4 53,20 79,49zm-59 27c-18,-21 -31,-35 -40,-40 -9,-6 -17,-9 -26,-9 -5,0 -9,2 -14,6 -7,6 -10,14 -8,24 2,18 12,37 29,58l6 7 53 -45zm62 -190l39 38c-7,-29 -9,-50 -6,-64 2,-14 8,-25 15,-33 7,-7 14,-10 22,-10 8,0 16,4 24,11 8,8 13,16 13,24 1,8 -2,15 -7,21 -6,6 -14,10 -23,11 -9,1 -14,1 -15,2 -2,1 -4,2 -5,3 -3,4 -5,8 -6,14 -1,9 2,19 7,29 8,15 19,30 34,44l40 38 11 10c7,7 12,11 15,12 5,2 9,2 14,1 4,-1 10,-5 17,-12l7 6 -90 93 -7 -6c7,-8 9,-15 8,-21 -1,-6 -9,-16 -24,-31l-95 -92c-10,-9 -17,-15 -20,-17 -5,-2 -9,-3 -13,-2 -4,1 -9,4 -15,9l-7 -7 68 -70zm83 -223l69 54 35 -45 20 16 -35 45 116 91c11,8 18,14 22,15 4,1 8,2 12,1 4,-1 7,-3 8,-5 7,-9 7,-22 -1,-40l9 -2c17,31 16,59 -3,83 -9,12 -21,20 -34,23 -13,3 -25,3 -35,-2 -6,-2 -18,-11 -39,-27l-102 -80 -19 25 -7 -6c1,-26 0,-51 -4,-73 -4,-22 -11,-44 -20,-66l5 -7zm354 12c4,39 -1,68 -15,86 -8,11 -18,18 -31,20 -13,2 -24,-1 -35,-9 -15,-11 -23,-27 -26,-48 -3,-21 2,-60 13,-117l-20 -14c-15,-11 -24,-17 -29,-18 -5,-1 -10,-1 -16,2 -6,2 -11,6 -15,12 -7,9 -10,18 -10,27 0,5 1,9 5,12 3,2 8,3 15,2 10,-1 17,1 23,5 7,5 11,12 12,20 1,9 -1,17 -7,25 -6,9 -14,14 -24,16 -9,2 -18,1 -25,-5 -10,-7 -17,-18 -20,-32 -3,-14 -2,-30 3,-48 5,-18 14,-34 25,-49 13,-18 28,-30 43,-35 16,-5 29,-6 40,-2 7,2 21,11 42,26l75 55c9,6 15,10 17,11 3,1 5,1 7,1 2,-1 4,-2 5,-4 3,-4 3,-9 0,-17l9 -3c5,14 8,27 7,38 -1,11 -5,21 -11,30 -8,11 -17,18 -27,20 -10,2 -20,1 -32,-6zm-15 -11l-65 -47c-2,24 -1,44 4,60 4,11 9,19 17,25 6,5 14,6 22,5 6,-1 12,-4 16,-10 5,-7 7,-18 6,-32zm13 -394l165 88c16,9 27,12 33,12 6,-1 11,-6 17,-14l8 4 -46 86 -28 -15c7,17 10,31 10,44 0,13 -3,26 -10,38 -6,12 -16,21 -28,26 -12,5 -24,7 -36,5 -11,-2 -29,-9 -54,-22l-84 -45c-16,-8 -27,-12 -32,-11 -5,1 -11,6 -17,14l-8 -4 46 -86 144 77c15,8 25,12 30,13 5,1 10,0 14,-1 4,-2 7,-5 9,-9 3,-5 4,-11 3,-17 -1,-8 -5,-20 -12,-34l-113 -60c-16,-8 -27,-12 -32,-11 -5,1 -11,6 -18,14l-8 -4 46 -86zm-4392 -2075l113 60c19,10 31,15 37,16 6,0 12,-2 19,-6 7,-4 13,-11 18,-22l6 -12 10 5 -102 191 -10 -5 6 -12c6,-11 8,-20 8,-29 0,-6 -2,-12 -7,-18 -3,-4 -14,-11 -32,-21l-240 -128c-19,-10 -31,-15 -37,-16 -6,-1 -12,1 -19,5 -7,4 -13,11 -18,22l-6 12 -10 -5 102 -191 10 5 -6 12c-6,11 -8,20 -8,29 0,6 2,12 7,18 3,4 14,11 32,21l103 55 69 -129 -103 -55c-19,-10 -31,-15 -37,-16 -6,0 -12,1 -19,6 -7,4 -13,11 -18,22l-6 12 -10 -5 101 -191 10 5 -6 12c-6,11 -8,20 -8,29 0,6 2,12 7,18 3,4 14,11 32,21l240 128c19,10 31,15 37,16 6,0 12,-1 19,-6 7,-4 13,-11 18,-22l6 -12 10 5 -101 191 -10 -5 6 -12c6,-11 8,-20 8,-29 0,-6 -2,-12 -7,-18 -3,-4 -14,-11 -32,-21l-113 -60 -69 129zm180 -476c14,-20 33,-36 55,-46 23,-10 47,-13 73,-8 26,4 50,15 73,31 33,23 55,51 65,83 13,39 7,77 -18,113 -25,35 -56,54 -94,55 -38,2 -73,-9 -106,-31 -34,-23 -56,-54 -67,-90 -11,-37 -5,-72 19,-106zm18 11c-6,9 -8,18 -6,29 2,11 12,23 30,39 18,15 43,35 77,58 18,12 35,23 52,31 13,6 25,9 35,7 10,-2 18,-6 24,-14 5,-8 7,-15 7,-23 -1,-10 -6,-20 -15,-30 -13,-14 -44,-38 -92,-72 -28,-20 -49,-32 -62,-36 -13,-4 -24,-5 -33,-2 -7,2 -12,6 -17,13zm383 -81l78 72c11,10 19,16 24,18 6,2 11,2 16,0 5,-2 13,-8 22,-19l8 8 -111 119 -8 -8c8,-9 12,-19 11,-28 -1,-6 -8,-16 -22,-29l-220 -205c-15,-14 -26,-21 -33,-21 -7,0 -16,4 -26,13l-8 -8 82 -87 27 26c-4,-17 -5,-32 -2,-44 3,-17 11,-32 23,-45 14,-15 32,-25 54,-28 21,-4 44,-1 67,9 23,9 44,23 64,41 21,20 37,41 48,64 11,23 15,45 12,67 -3,21 -12,40 -26,56 -11,11 -23,20 -38,25 -11,4 -25,6 -42,5zm-23 -21c30,4 52,-1 65,-16 7,-8 9,-19 6,-32 -5,-19 -25,-45 -61,-78 -36,-34 -65,-52 -86,-56 -14,-3 -26,1 -34,10 -14,15 -15,37 -2,67l111 104zm149 -402l127 152c12,15 22,23 28,24 10,2 21,-4 34,-15l7 8 -129 108 -7 -8c10,-8 16,-15 18,-21 2,-5 3,-11 1,-16 -2,-5 -7,-13 -17,-25l-127 -152 -32 27 -19 -23 32 -27 -14 -16 -9 -11c-19,-22 -26,-48 -22,-77 4,-29 20,-55 48,-78 19,-16 36,-25 52,-25 15,-1 27,4 34,12 6,7 8,15 7,25 -1,10 -7,19 -16,27 -8,7 -16,10 -25,10 -8,0 -15,-3 -19,-8 -1,-1 -3,-5 -6,-10 -2,-3 -3,-6 -5,-8 -3,-3 -6,-5 -9,-5 -4,0 -8,1 -12,4 -5,4 -7,9 -7,15 0,6 4,14 10,22l35 41 23 28 32 -27 19 23 -32 27zm353 -113l-131 85c22,31 47,50 74,59 21,7 40,4 56,-6 10,-7 18,-16 22,-27 5,-11 7,-27 7,-48l12 0c4,35 2,63 -6,84 -8,21 -23,38 -44,52 -35,23 -71,27 -107,11 -29,-12 -54,-35 -75,-68 -26,-40 -36,-79 -30,-116 6,-38 24,-66 53,-85 24,-16 52,-20 82,-11 31,8 59,32 86,70zm-74 24c-18,-28 -32,-45 -41,-54 -10,-8 -19,-13 -29,-14 -6,-1 -11,1 -17,5 -9,6 -13,15 -13,27 0,22 8,46 25,72l6 9 70 -45zm168 -219l16 33c7,-21 14,-37 24,-49 9,-12 21,-22 35,-28 17,-8 33,-10 48,-5 15,4 28,12 38,24 8,9 19,29 33,59l47 101c9,20 17,32 23,35 6,3 15,3 27,-1l5 10 -131 61 -5 -10c9,-6 14,-13 15,-22 1,-6 -3,-18 -12,-36l-54 -115c-10,-21 -17,-34 -21,-39 -4,-5 -9,-8 -14,-9 -5,-1 -10,-1 -15,1 -16,7 -25,26 -28,55l65 138c9,19 17,31 23,34 6,3 14,4 25,0l5 10 -131 61 -5 -10c10,-6 16,-13 18,-21 1,-6 -3,-18 -12,-38l-68 -146c-9,-20 -17,-31 -22,-34 -6,-3 -15,-3 -27,1l-5 -10 105 -49zm329 -257l48 158c10,-20 20,-36 31,-46 10,-10 22,-18 36,-22 17,-5 33,-5 48,1 15,6 27,15 35,27 8,12 17,33 26,65l33 106c6,21 12,33 18,37 5,4 14,5 27,3l3 10 -138 42 -3 -10c9,-4 15,-10 18,-18 2,-6 0,-19 -6,-39l-37 -122c-7,-23 -12,-36 -16,-42 -3,-5 -8,-9 -13,-11 -5,-2 -10,-2 -16,-1 -8,2 -15,7 -20,15 -6,8 -11,19 -15,35l45 146c6,20 11,31 16,35 6,6 15,7 27,5l3 10 -138 42 -3 -10c11,-5 18,-11 21,-19 2,-5 0,-18 -7,-39l-85 -277c-6,-21 -12,-33 -17,-37 -5,-4 -14,-5 -27,-3l-3 -11 111 -34zm494 273c-30,36 -58,56 -85,60 -16,3 -30,-1 -43,-9 -12,-9 -20,-21 -22,-37 -3,-21 3,-42 18,-62 16,-20 52,-49 110,-88l-4 -28c-3,-21 -7,-34 -10,-40 -3,-5 -8,-9 -15,-12 -7,-3 -15,-4 -23,-3 -13,2 -23,7 -31,14 -5,4 -7,9 -6,14 1,4 4,9 11,14 9,7 14,15 15,23 2,10 -1,19 -7,27 -6,8 -15,13 -27,15 -13,2 -24,0 -34,-6 -10,-6 -15,-15 -17,-25 -2,-14 1,-29 11,-44 9,-15 24,-28 43,-38 19,-10 40,-17 62,-21 27,-4 49,-2 66,7 17,9 29,20 36,32 4,8 9,27 13,58l17 109c2,13 4,21 5,24 2,3 3,5 6,7 2,1 5,2 7,1 5,-1 10,-5 14,-14l10 6c-8,16 -16,29 -26,37 -10,8 -21,14 -35,16 -16,3 -29,1 -39,-5 -10,-6 -18,-17 -22,-32zm-3 -22l-15 -94c-22,18 -38,36 -47,54 -6,12 -8,24 -7,35 1,9 6,17 14,23 6,5 13,6 22,5 10,-2 21,-9 32,-22zm282 -235l-1 37c15,-16 29,-27 43,-34 14,-7 28,-10 43,-10 18,0 34,6 46,16 12,10 20,23 24,39 3,12 4,34 4,67l-2 111c0,22 1,36 5,41 4,5 12,9 25,11l0 11 -144 -3 0 -11c11,-1 19,-6 23,-13 3,-5 5,-18 6,-38l2 -127c0,-23 0,-38 -2,-44 -2,-6 -5,-11 -9,-14 -4,-4 -9,-5 -14,-5 -17,0 -34,12 -49,37l-3 153c0,21 1,35 5,41 4,6 11,9 22,11l0 11 -144 -3 0 -11c12,-1 21,-5 26,-11 4,-4 6,-18 6,-40l3 -161c0,-22 -1,-35 -5,-40 -4,-5 -12,-9 -25,-11l0 -11 116 2zm570 -67l-57 323c-4,22 -6,35 -5,39 0,7 3,12 7,16 4,4 11,7 23,10l-2 10 -123 2 8 -44c-17,15 -32,24 -44,28 -12,4 -25,5 -39,3 -36,-6 -61,-27 -77,-63 -12,-29 -15,-62 -8,-100 5,-30 15,-56 30,-79 15,-22 32,-38 52,-47 20,-9 41,-12 62,-8 13,2 25,7 34,14 9,7 19,18 29,33l15 -85c4,-21 5,-35 4,-39 -1,-6 -4,-11 -9,-15 -4,-4 -13,-7 -26,-9l2 -13 125 22zm-118 176c-10,-31 -25,-48 -47,-52 -7,-1 -14,0 -19,3 -8,5 -16,15 -24,30 -7,15 -14,38 -20,71 -6,35 -8,62 -6,80 2,18 7,32 15,41 4,5 10,8 18,9 18,3 37,-8 57,-33l26 -148zm396 178l-149 -48c-10,36 -10,68 1,95 8,20 21,34 40,40 12,4 23,4 35,1 12,-3 26,-12 42,-25l8 10c-24,25 -48,41 -69,48 -22,7 -44,6 -68,-1 -40,-13 -66,-38 -76,-76 -9,-30 -7,-64 5,-101 15,-45 39,-77 72,-96 33,-19 66,-23 99,-12 27,9 48,28 61,57 13,29 13,66 0,111zm-65 -43c10,-31 15,-53 16,-66 0,-13 -2,-23 -7,-31 -3,-5 -8,-8 -15,-11 -10,-3 -20,-1 -29,7 -17,13 -30,35 -40,65l-3 10 79 26zm322 -125l-150 321c-8,18 -12,31 -10,38 2,7 9,14 21,20l-5 10 -140 -65 5 -10c12,5 22,6 30,2 6,-3 13,-13 21,-31l125 -268c8,-18 12,-31 10,-38 -2,-7 -9,-14 -21,-20l5 -10 108 51zm255 395l-68 94c-13,18 -20,30 -21,36 -1,6 0,13 4,20 4,7 13,16 28,27l-7 9 -171 -124 7 -9c15,11 27,17 35,19 8,1 14,0 20,-3 6,-3 15,-14 28,-32l158 -217c13,-18 20,-30 22,-37 1,-6 0,-13 -4,-20 -3,-7 -13,-16 -28,-27l7 -9 155 113c41,29 68,54 83,73 15,19 22,41 23,64 1,24 -6,46 -21,66 -18,25 -42,39 -71,42 -19,2 -40,-2 -64,-12l-2 172c0,22 1,37 3,44 3,10 9,19 17,25l-7 9 -105 -77 3 -231 -22 -16zm119 -164l-106 147 14 10c23,17 41,27 56,31 14,4 29,3 43,-3 14,-6 28,-18 41,-36 19,-26 26,-49 23,-70 -3,-21 -18,-41 -44,-60l-26 -19zm294 566l-112 -109c-25,28 -39,57 -41,86 -2,22 5,40 19,53 9,8 19,14 31,16 12,2 28,1 49,-4l3 12c-33,12 -61,16 -83,13 -23,-4 -43,-14 -60,-31 -30,-29 -42,-63 -35,-102 6,-31 22,-60 49,-88 33,-34 69,-53 107,-55 38,-2 70,9 94,33 21,20 31,46 29,78 -1,32 -17,65 -49,100zm-40 -67c23,-24 37,-41 43,-52 6,-11 8,-22 7,-31 -1,-6 -3,-11 -8,-16 -8,-7 -17,-10 -29,-7 -21,5 -43,18 -65,41l-7 8 60 58zm296 160l-74 63 -6 -8c15,-28 23,-50 23,-67 0,-17 -4,-31 -12,-41 -5,-7 -12,-10 -20,-12 -8,-1 -15,0 -21,5 -4,3 -7,8 -9,15 -3,10 -3,33 0,69 2,36 1,62 -4,78 -5,16 -15,30 -29,40 -12,10 -27,16 -44,19 -17,3 -33,2 -48,-5 -15,-6 -28,-16 -39,-30 -8,-11 -16,-28 -24,-51 -2,-6 -4,-10 -5,-12 -4,-5 -12,-7 -22,-4l-6 -8 78 -67 6 8c-16,24 -24,46 -24,67 -1,21 3,37 12,48 6,8 13,12 22,13 9,1 16,-1 23,-6 8,-6 12,-14 14,-23 2,-9 2,-27 0,-52 -2,-38 -2,-64 2,-78 5,-21 15,-38 31,-50 17,-14 38,-20 61,-19 23,1 44,13 61,35 9,12 16,26 19,42 1,6 2,11 5,13 2,3 5,5 7,6 3,1 8,1 17,1l6 8zm-2 392l-1 12c-28,2 -53,-2 -74,-13 -21,-10 -38,-25 -49,-44 -20,-32 -24,-66 -12,-100 12,-35 35,-62 70,-84 33,-21 67,-30 103,-28 43,2 77,22 100,60 16,25 22,49 18,71 -3,23 -13,39 -28,48 -10,6 -19,8 -29,6 -10,-2 -17,-8 -23,-18 -6,-10 -8,-21 -6,-32 3,-11 12,-22 28,-35 10,-8 16,-15 18,-22 2,-7 1,-13 -2,-18 -5,-8 -14,-13 -26,-13 -19,-1 -42,8 -69,25 -23,14 -42,31 -58,52 -16,20 -26,40 -28,59 -2,14 2,28 10,40 5,8 12,15 21,20 9,5 22,9 39,13zm389 12l-151 67c21,8 38,16 49,25 12,9 20,20 26,33 7,16 9,32 5,48 -4,16 -12,28 -22,38 -11,9 -31,21 -61,34l-102 45c-20,9 -31,16 -35,22 -3,6 -3,15 1,27l-10 4 -59 -132 10 -4c5,9 12,14 21,16 6,1 19,-2 38,-11l116 -52c22,-10 35,-16 39,-21 5,-4 8,-9 9,-14 1,-5 1,-11 -1,-16 -3,-7 -9,-14 -17,-18 -8,-5 -21,-8 -37,-11l-140 62c-19,8 -30,15 -33,20 -5,6 -5,15 -2,27l-10 4 -59 -132 10 -4c6,10 13,17 21,19 5,1 18,-2 38,-11l265 -118c20,-9 31,-16 34,-22 3,-6 3,-15 -1,-27l10 -5 47 106zm262 1245c4,-21 7,-42 6,-65 -1,-52 -16,-92 -48,-133 -25,-31 -64,-53 -101,-68 -28,-11 -37,-14 -67,-19 -30,-5 -72,-3 -100,9 -38,16 -50,23 -80,52 -16,16 -28,33 -40,51 4,2 6,2 10,4 4,2 7,2 11,3 21,6 45,11 66,13 47,5 56,-9 60,19 2,13 6,22 11,34 6,14 31,56 38,58 4,1 26,-4 33,-5 21,-5 46,-14 64,-27 16,-11 18,-10 30,3l27 24c16,13 39,27 57,37l21 10zm-162 -32c-8,4 -9,51 -9,62 -3,54 14,98 60,128 3,2 6,3 9,5 20,-14 44,-46 54,-67 2,-4 3,-5 4,-9 4,-10 8,-20 10,-30 3,-11 6,-31 3,-44l-23 -13c-15,-9 -32,-21 -45,-32 -4,-3 -7,-6 -10,-9 -4,-4 -7,-5 -11,-11l-31 17c-4,2 -5,1 -11,4zm-118 213c1,4 1,5 1,9 0,3 1,6 1,10 3,16 7,24 14,39 7,17 19,30 28,42 48,-20 78,-62 87,-111 1,-6 3,-7 -1,-11 -15,-15 -23,-25 -33,-50 -31,38 -51,51 -97,70zm-53 -52c6,13 13,25 19,35 40,-7 85,-34 109,-65 16,-20 13,-20 11,-34 -2,-13 -2,-25 -1,-39l2 -25c0,-6 3,-20 2,-25 -7,3 -43,10 -52,5 -6,-4 -28,-33 -32,-42 -20,31 -18,31 -46,61 -12,13 -23,9 -25,43 -2,28 3,59 15,85zm-134 -114c3,2 4,2 8,3 45,9 82,-2 117,-33 15,-13 46,-55 50,-71 1,-5 1,-1 -1,-4 -3,-6 -2,-6 -4,-12 -5,-12 -5,-19 -8,-25l-59 -4c-11,-2 -49,-9 -56,-13l-13 17c-8,11 -14,24 -20,36 -2,4 -2,6 -3,10l-6 20c-1,4 -1,7 -2,11 -1,7 -2,14 -3,21 -1,14 -2,31 1,45zm81 191c-9,4 -18,5 -26,9 2,11 -6,27 12,70 6,14 14,29 22,39 7,0 32,-7 42,-11 25,-11 48,-29 60,-45 -10,-22 -16,-24 -23,-55l-4 -25c-18,7 -25,2 -34,-15 -10,11 -30,25 -48,33zm-98 -18l8 18c2,3 3,6 5,8 7,9 29,6 33,4 1,3 1,17 1,24 1,8 2,15 4,24 6,25 19,52 34,73 6,8 8,12 18,11 36,-3 82,-24 108,-50 4,-3 8,-8 12,-11 2,4 10,12 12,15 5,5 9,7 17,4 32,-14 60,-35 76,-58 7,-10 15,-22 20,-33 3,-7 12,-30 11,-36l2 -1c2,3 19,13 27,10 10,-4 32,-27 38,-35 20,-24 38,-52 46,-82 6,-21 5,-25 7,-47 9,2 8,7 21,1 11,-5 64,-198 -103,-294l-25 -13c-3,-1 -2,-1 -5,-3 -4,-2 -6,-2 -10,-4 6,-18 12,-37 21,-54l7 -13c3,-5 5,-8 8,-13 4,-5 7,-7 7,-13 0,-5 -4,-10 -9,-11 -16,-6 -38,41 -44,56l-15 40 -40 -11 -42 -5c-95,-4 -178,55 -222,135 -9,16 -2,19 7,25l-25 40c-10,23 -16,43 -20,68 -1,5 -1,7 -1,12 -1,5 -1,7 -1,12 0,4 0,7 0,12 1,57 11,41 25,51 -2,9 -18,30 -22,72 -2,18 -1,48 7,74zm82 -3c23,-10 36,-17 51,-36 -16,-37 -28,-77 -20,-116 -29,12 -48,15 -71,13 -1,2 -2,3 -3,5 -7,14 -11,22 -16,38 -8,29 -10,75 5,102 3,6 5,4 11,3 5,-1 9,0 14,-1 9,-1 19,-3 29,-7zm-4979 -186c-4,-21 -7,-42 -6,-65 1,-52 16,-92 48,-133 25,-31 64,-53 101,-68 28,-11 37,-14 67,-19 30,-5 72,-3 100,9 38,16 50,23 80,52 16,16 28,33 40,51 -4,2 -6,2 -10,4 -4,2 -7,2 -11,3 -21,6 -45,11 -66,13 -46,5 -56,-9 -60,19 -2,13 -6,22 -11,34 -6,14 -30,56 -38,58 -4,1 -26,-4 -33,-5 -21,-5 -46,-14 -64,-27 -16,-11 -18,-10 -30,3l-27 24c-16,13 -39,27 -57,37l-21 10zm162 -32c8,4 9,51 9,62 3,54 -14,98 -60,128 -3,2 -6,3 -9,5 -20,-14 -44,-46 -54,-67 -2,-4 -3,-5 -4,-9 -4,-10 -8,-20 -10,-30 -3,-11 -6,-31 -3,-44l23 -13c15,-9 32,-21 45,-32 4,-3 7,-6 10,-9 4,-4 7,-5 11,-11l31 17c4,2 5,1 11,4zm118 213c-1,4 -1,5 -1,9 0,3 -1,6 -1,10 -3,16 -7,24 -14,39 -7,17 -19,30 -28,42 -48,-20 -78,-62 -87,-111 -1,-6 -3,-7 1,-11 15,-15 23,-25 33,-50 31,38 51,51 97,70zm53 -52c-6,13 -13,25 -19,35 -40,-7 -85,-34 -109,-65 -16,-20 -13,-20 -11,-34 2,-13 2,-25 1,-39l-2 -25c0,-6 -3,-20 -2,-25 7,3 43,10 52,5 6,-4 28,-33 32,-42 20,31 18,31 46,61 12,13 23,9 25,43 2,28 -3,59 -15,85zm134 -114c-3,2 -4,2 -8,3 -45,9 -82,-2 -117,-33 -15,-13 -46,-55 -50,-71 -1,-5 -1,-1 1,-4 3,-6 2,-6 4,-12 5,-12 6,-19 8,-25l59 -4c11,-2 49,-9 56,-13l13 17c8,11 14,24 20,36 2,4 2,6 3,10l6 20c1,4 1,7 2,11 1,7 2,14 3,21 1,14 2,31 -1,45zm-81 191c9,4 18,5 26,9 -2,11 6,27 -12,70 -6,14 -14,29 -22,39 -7,0 -32,-7 -42,-11 -25,-11 -48,-29 -60,-45 10,-22 16,-24 23,-55l4 -25c18,7 25,2 34,-15 10,11 30,25 48,33zm98 -18l-8 18c-2,3 -3,6 -5,8 -7,9 -29,6 -33,4 -1,3 -1,17 -1,24 -1,8 -2,15 -4,24 -6,25 -19,52 -34,73 -6,8 -8,12 -18,11 -36,-3 -82,-24 -108,-50 -4,-3 -8,-8 -12,-11 -2,4 -10,12 -13,15 -5,5 -9,7 -17,4 -32,-14 -60,-35 -76,-58 -7,-10 -15,-22 -20,-33 -3,-7 -12,-30 -11,-36l-2 -1c-2,3 -19,13 -27,10 -10,-4 -32,-27 -38,-35 -20,-24 -38,-52 -46,-82 -6,-21 -5,-25 -7,-47 -9,2 -8,7 -21,1 -11,-5 -64,-198 103,-294l25 -13c3,-1 2,-1 5,-3 4,-2 6,-2 10,-4 -6,-18 -12,-37 -21,-54l-7 -13c-3,-5 -5,-8 -8,-13 -4,-5 -7,-7 -7,-13 0,-5 4,-10 9,-11 16,-6 38,41 44,56l15 40 40 -11 42 -5c95,-4 178,55 222,135 9,16 2,19 -7,25l25 40c10,23 16,43 20,68 1,5 1,7 1,12 1,5 1,7 1,12 0,4 0,7 0,12 -1,57 -11,41 -25,51 2,9 18,30 22,72 2,18 1,48 -7,74zm-82 -3c-23,-10 -36,-17 -51,-36 16,-37 28,-77 20,-116 29,12 48,15 71,13 1,2 2,3 3,5 7,14 11,22 16,38 8,29 10,75 -5,102 -3,6 -5,4 -11,3 -5,-1 -9,0 -14,-1 -9,-1 -19,-3 -29,-7z"/>
  <path class="fil2" d="M3272 2275l-11 43 -5 -1c-2,-14 -5,-25 -9,-31 -4,-6 -10,-11 -15,-12 -4,-1 -7,-1 -10,1 -3,2 -6,4 -6,7 -1,2 -1,5 1,8 2,5 8,13 18,26 10,13 17,23 19,31 2,7 2,15 0,23 -2,7 -6,13 -11,19 -6,6 -12,9 -19,11 -7,2 -15,1 -23,-1 -6,-2 -13,-6 -22,-13 -2,-2 -4,-3 -5,-3 -3,-1 -6,1 -9,4l-4 -1 12 -46 5 1c0,13 3,24 8,32 5,8 11,13 17,15 4,1 8,1 12,-1 4,-2 6,-5 7,-8 1,-4 1,-8 -1,-12 -2,-4 -6,-10 -14,-20 -11,-14 -17,-24 -20,-30 -4,-9 -4,-18 -1,-27 3,-10 9,-17 18,-23 9,-6 20,-7 32,-3 7,2 13,6 18,11 2,2 4,3 5,4 2,1 3,1 4,0 1,0 3,-2 6,-4l5 1zm115 118l-66 -28c-6,16 -7,31 -3,43 3,10 8,16 17,20 5,2 10,3 16,2 5,-1 12,-4 20,-10l3 5c-12,11 -23,17 -34,19 -10,2 -21,1 -31,-3 -18,-8 -28,-20 -32,-38 -3,-14 -1,-30 6,-46 9,-20 21,-34 37,-41 16,-7 31,-8 46,-2 12,5 21,15 25,28 5,14 3,31 -4,51zm-28 -22c6,-14 9,-24 10,-29 1,-6 0,-11 -2,-15 -1,-2 -3,-4 -6,-5 -4,-2 -9,-1 -14,2 -8,5 -15,15 -21,28l-2 5 35 15zm133 -58c5,3 9,7 11,13 2,6 1,11 -2,16 -3,5 -7,9 -13,10 -6,2 -11,1 -17,-2 -5,-3 -9,-7 -10,-13 -2,-6 -1,-11 2,-16 3,-5 7,-9 13,-11 6,-2 11,-1 16,2zm-12 65l-49 92c-4,8 -6,14 -5,17 1,3 4,7 9,10l-2 4 -62 -33 2 -4c5,3 10,3 14,2 3,-1 6,-6 10,-14l36 -67c4,-8 6,-14 5,-17 -1,-3 -4,-7 -9,-10l2 -5 48 26zm106 12l-27 40 26 17 -8 11 -26 -17 -45 67c-4,6 -7,10 -7,13 -1,2 -1,4 0,7 1,2 2,4 3,4 5,3 12,3 22,-2l2 5c-16,11 -31,11 -46,2 -7,-5 -11,-10 -14,-18 -2,-7 -2,-13 0,-19 1,-3 5,-11 13,-22l40 -59 -14 -10 3 -4c14,0 28,-2 40,-5 12,-3 24,-7 35,-13l4 3zm70 290l-83 -75 2 -2c53,-7 87,-14 101,-19 15,-6 27,-13 36,-23 7,-7 10,-15 10,-24 0,-9 -4,-16 -10,-22 -11,-10 -24,-12 -39,-6l-3 -5c16,-10 30,-15 44,-14 13,0 25,5 35,14 7,6 12,14 15,23 3,9 3,17 2,26 -2,9 -5,16 -10,21 -8,9 -19,16 -33,21 -19,6 -50,11 -94,12l30 27c7,7 13,11 15,12 3,1 6,2 8,2 3,0 8,-2 14,-4l4 3 -45 34zm176 61c-14,12 -30,22 -46,28 -10,4 -19,6 -27,6 -8,0 -16,-1 -23,-4 -7,-3 -14,-7 -19,-13 -6,-7 -9,-15 -11,-23 -1,-9 0,-18 3,-28 2,-7 6,-15 13,-25 8,-12 18,-23 30,-33 16,-13 32,-23 49,-30 14,-6 27,-7 39,-4 12,3 22,8 29,16 7,8 11,19 11,31 0,12 -3,24 -10,36 -9,16 -22,31 -38,44zm-27 -33c25,-21 40,-34 44,-38 9,-9 15,-16 16,-22 1,-4 0,-8 -4,-12 -3,-3 -5,-5 -9,-5 -5,-1 -11,1 -18,6 -7,4 -30,22 -67,54 -21,17 -34,30 -40,37 -4,5 -6,10 -6,13 0,3 1,7 4,10 3,4 6,5 10,5 7,0 14,-4 23,-10l46 -38zm173 82l-133 80c-10,6 -16,10 -18,13 -2,3 -3,6 -3,10 0,4 2,9 5,15l2 4 -4 3 -51 -86 4 -3 3 4c4,7 8,11 11,13 3,2 7,3 10,2 3,-1 10,-4 21,-10l84 -51c8,-5 12,-8 13,-10 1,-2 2,-4 2,-7 0,-3 -1,-5 -2,-8 -2,-4 -7,-8 -13,-13l3 -5 63 43 2 4zm-120 190l164 -14 -15 -36c-6,-14 -12,-24 -19,-30 -5,-4 -11,-6 -20,-6l-2 -5 60 -10 44 104 -203 17 -9 -20z"/>
 </g>
</svg>
