<?xml version="1.0" encoding="UTF-8" standalone="no"?>
<!-- Created with Inkscape (http://www.inkscape.org/) -->

<svg
   version="1.1"
   id="svg1"
   width="188.976"
   height="188.976"
   viewBox="0 0 188.976 188.976"
   xmlns="http://www.w3.org/2000/svg"
   xmlns:svg="http://www.w3.org/2000/svg">
  <defs
     id="defs1">
    <clipPath
       clipPathUnits="userSpaceOnUse"
       id="clipPath3">
      <path
         d="M 0,141.732 H 141.732 V 0 H 0 Z"
         transform="translate(-31.452101,-96.533702)"
         id="path3" />
    </clipPath>
    <clipPath
       clipPathUnits="userSpaceOnUse"
       id="clipPath6">
      <path
         d="M 0,141.732 H 141.732 V 0 H 0 Z"
         transform="translate(-44.895501,-117.3481)"
         id="path6" />
    </clipPath>
    <clipPath
       clipPathUnits="userSpaceOnUse"
       id="clipPath9">
      <path
         d="M 0,141.732 H 141.732 V 0 H 0 Z"
         transform="translate(-65.714402,-110.04)"
         id="path9" />
    </clipPath>
    <clipPath
       clipPathUnits="userSpaceOnUse"
       id="clipPath12">
      <path
         d="M 0,141.732 H 141.732 V 0 H 0 Z"
         transform="translate(-78.919404,-121.9419)"
         id="path12" />
    </clipPath>
    <clipPath
       clipPathUnits="userSpaceOnUse"
       id="clipPath15">
      <path
         d="M 0,141.732 H 141.732 V 0 H 0 Z"
         transform="translate(-96.381805,-101.3975)"
         id="path15" />
    </clipPath>
    <clipPath
       clipPathUnits="userSpaceOnUse"
       id="clipPath18">
      <path
         d="M 0,141.732 H 141.732 V 0 H 0 Z"
         transform="translate(-104.9326,-90.688002)"
         id="path18" />
    </clipPath>
    <clipPath
       clipPathUnits="userSpaceOnUse"
       id="clipPath21">
      <path
         d="M 0,141.732 H 141.732 V 0 H 0 Z"
         transform="translate(-28.073701,-66.610802)"
         id="path21" />
    </clipPath>
    <clipPath
       clipPathUnits="userSpaceOnUse"
       id="clipPath24">
      <path
         d="M 0,141.732 H 141.732 V 0 H 0 Z"
         transform="translate(-32.645001,-32.252003)"
         id="path24" />
    </clipPath>
    <clipPath
       clipPathUnits="userSpaceOnUse"
       id="clipPath27">
      <path
         d="M 0,141.732 H 141.732 V 0 H 0 Z"
         transform="translate(-39.637201,-26.148901)"
         id="path27" />
    </clipPath>
    <clipPath
       clipPathUnits="userSpaceOnUse"
       id="clipPath30">
      <path
         d="M 0,141.732 H 141.732 V 0 H 0 Z"
         transform="translate(-75.699204,-16.4004)"
         id="path30" />
    </clipPath>
    <clipPath
       clipPathUnits="userSpaceOnUse"
       id="clipPath33">
      <path
         d="M 0,141.732 H 141.732 V 0 H 0 Z"
         transform="translate(-107.5483,-30.844201)"
         id="path33" />
    </clipPath>
    <clipPath
       clipPathUnits="userSpaceOnUse"
       id="clipPath36">
      <path
         d="M 0,141.732 H 141.732 V 0 H 0 Z"
         transform="translate(-120.2676,-48.688501)"
         id="path36" />
    </clipPath>
    <clipPath
       clipPathUnits="userSpaceOnUse"
       id="clipPath39">
      <path
         d="M 0,141.732 H 141.732 V 0 H 0 Z"
         transform="translate(-114.6514,-56.394999)"
         id="path39" />
    </clipPath>
    <clipPath
       clipPathUnits="userSpaceOnUse"
       id="clipPath41">
      <path
         d="M 0,141.732 H 141.732 V 0 H 0 Z"
         transform="translate(-106.13871,-70.903202)"
         id="path41" />
    </clipPath>
    <clipPath
       clipPathUnits="userSpaceOnUse"
       id="clipPath43">
      <path
         d="M 0,141.732 H 141.732 V 0 H 0 Z"
         transform="translate(-102.33201,-70.903202)"
         id="path43" />
    </clipPath>
    <clipPath
       clipPathUnits="userSpaceOnUse"
       id="clipPath45">
      <path
         d="M 0,141.732 H 141.732 V 0 H 0 Z"
         transform="translate(-128.95311,-70.903202)"
         id="path45" />
    </clipPath>
    <clipPath
       clipPathUnits="userSpaceOnUse"
       id="clipPath47">
      <path
         d="M 0,141.732 H 141.732 V 0 H 0 Z"
         transform="translate(-132.65721,-70.903202)"
         id="path47" />
    </clipPath>
    <clipPath
       clipPathUnits="userSpaceOnUse"
       id="clipPath49">
      <path
         d="M 0,141.732 H 141.732 V 0 H 0 Z"
         transform="translate(-64.165001,-83.959302)"
         id="path49" />
    </clipPath>
    <clipPath
       clipPathUnits="userSpaceOnUse"
       id="clipPath51">
      <path
         d="M 0,141.732 H 141.732 V 0 H 0 Z"
         transform="translate(-60.100601,-94.703003)"
         id="path51" />
    </clipPath>
    <clipPath
       clipPathUnits="userSpaceOnUse"
       id="clipPath53">
      <path
         d="M 0,141.732 H 141.732 V 0 H 0 Z"
         transform="translate(-52.519001,-72.408502)"
         id="path53" />
    </clipPath>
    <clipPath
       clipPathUnits="userSpaceOnUse"
       id="clipPath55">
      <path
         d="M 0,141.732 H 141.732 V 0 H 0 Z"
         transform="translate(-57.471202,-79.326002)"
         id="path55" />
    </clipPath>
    <clipPath
       clipPathUnits="userSpaceOnUse"
       id="clipPath57">
      <path
         d="M 0,141.732 H 141.732 V 0 H 0 Z"
         transform="translate(-64.251002,-83.907102)"
         id="path57" />
    </clipPath>
    <clipPath
       clipPathUnits="userSpaceOnUse"
       id="clipPath59">
      <path
         d="M 0,141.732 H 141.732 V 0 H 0 Z"
         transform="translate(-64.071302,-81.162002)"
         id="path59" />
    </clipPath>
    <clipPath
       clipPathUnits="userSpaceOnUse"
       id="clipPath61">
      <path
         d="M 0,141.732 H 141.732 V 0 H 0 Z"
         transform="translate(-59.875001,-74.563802)"
         id="path61" />
    </clipPath>
    <clipPath
       clipPathUnits="userSpaceOnUse"
       id="clipPath63">
      <path
         d="M 0,141.732 H 141.732 V 0 H 0 Z"
         transform="translate(-54.930701,-66.239102)"
         id="path63" />
    </clipPath>
    <clipPath
       clipPathUnits="userSpaceOnUse"
       id="clipPath65">
      <path
         d="M 0,141.732 H 141.732 V 0 H 0 Z"
         transform="translate(-67.288102,-81.839202)"
         id="path65" />
    </clipPath>
    <clipPath
       clipPathUnits="userSpaceOnUse"
       id="clipPath67">
      <path
         d="M 0,141.732 H 141.732 V 0 H 0 Z"
         transform="translate(-77.887704,-79.050602)"
         id="path67" />
    </clipPath>
    <clipPath
       clipPathUnits="userSpaceOnUse"
       id="clipPath69">
      <path
         d="M 0,141.732 H 141.732 V 0 H 0 Z"
         transform="translate(-73.741202,-79.394402)"
         id="path69" />
    </clipPath>
    <clipPath
       clipPathUnits="userSpaceOnUse"
       id="clipPath71">
      <path
         d="M 0,141.732 H 141.732 V 0 H 0 Z"
         transform="translate(-74.013702,-69.909002)"
         id="path71" />
    </clipPath>
    <clipPath
       clipPathUnits="userSpaceOnUse"
       id="clipPath73">
      <path
         d="M 0,141.732 H 141.732 V 0 H 0 Z"
         transform="translate(-68.638702,-71.074102)"
         id="path73" />
    </clipPath>
    <clipPath
       clipPathUnits="userSpaceOnUse"
       id="clipPath75">
      <path
         d="M 0,141.732 H 141.732 V 0 H 0 Z"
         transform="translate(-66.541001,-62.970602)"
         id="path75" />
    </clipPath>
    <clipPath
       clipPathUnits="userSpaceOnUse"
       id="clipPath77">
      <path
         d="M 0,141.732 H 141.732 V 0 H 0 Z"
         transform="translate(-78.574202,-68.196101)"
         id="path77" />
    </clipPath>
    <clipPath
       clipPathUnits="userSpaceOnUse"
       id="clipPath79">
      <path
         d="M 0,141.732 H 141.732 V 0 H 0 Z"
         transform="translate(-69.411101,-62.113104)"
         id="path79" />
    </clipPath>
    <clipPath
       clipPathUnits="userSpaceOnUse"
       id="clipPath81">
      <path
         d="M 0,141.732 H 141.732 V 0 H 0 Z"
         transform="translate(-79.497999,-76.848002)"
         id="path81" />
    </clipPath>
    <clipPath
       clipPathUnits="userSpaceOnUse"
       id="clipPath83">
      <path
         d="M 0,141.732 H 141.732 V 0 H 0 Z"
         transform="translate(-85.169905,-70.014502)"
         id="path83" />
    </clipPath>
    <clipPath
       clipPathUnits="userSpaceOnUse"
       id="clipPath85">
      <path
         d="M 0,141.732 H 141.732 V 0 H 0 Z"
         transform="translate(-83.9512,-66.088704)"
         id="path85" />
    </clipPath>
    <clipPath
       clipPathUnits="userSpaceOnUse"
       id="clipPath87">
      <path
         d="M 0,141.732 H 141.732 V 0 H 0 Z"
         transform="translate(-84.0742,-65.703999)"
         id="path87" />
    </clipPath>
    <clipPath
       clipPathUnits="userSpaceOnUse"
       id="clipPath89">
      <path
         d="M 0,141.732 H 141.732 V 0 H 0 Z"
         transform="translate(-66.753902,-54.330901)"
         id="path89" />
    </clipPath>
    <clipPath
       clipPathUnits="userSpaceOnUse"
       id="clipPath91">
      <path
         d="M 0,141.732 H 141.732 V 0 H 0 Z"
         transform="translate(-75.295899,-52.803601)"
         id="path91" />
    </clipPath>
    <clipPath
       clipPathUnits="userSpaceOnUse"
       id="clipPath93">
      <path
         d="M 0,141.732 H 141.732 V 0 H 0 Z"
         transform="translate(-84.948205,-53.925601)"
         id="path93" />
    </clipPath>
    <clipPath
       clipPathUnits="userSpaceOnUse"
       id="clipPath95">
      <path
         d="M 0,141.732 H 141.732 V 0 H 0 Z"
         transform="translate(-66.259301,-53.640504)"
         id="path95" />
    </clipPath>
    <clipPath
       clipPathUnits="userSpaceOnUse"
       id="clipPath97">
      <path
         d="M 0,141.732 H 141.732 V 0 H 0 Z"
         transform="translate(-73.455102,-52.359204)"
         id="path97" />
    </clipPath>
    <clipPath
       clipPathUnits="userSpaceOnUse"
       id="clipPath99">
      <path
         d="M 0,141.732 H 141.732 V 0 H 0 Z"
         transform="translate(-74.782202,-52.653204)"
         id="path99" />
    </clipPath>
    <clipPath
       clipPathUnits="userSpaceOnUse"
       id="clipPath101">
      <path
         d="M 0,141.732 H 141.732 V 0 H 0 Z"
         transform="translate(-58.036102,-75.328002)"
         id="path101" />
    </clipPath>
    <clipPath
       clipPathUnits="userSpaceOnUse"
       id="clipPath103">
      <path
         d="M 0,141.732 H 141.732 V 0 H 0 Z"
         transform="translate(-61.066901,-73.900702)"
         id="path103" />
    </clipPath>
    <clipPath
       clipPathUnits="userSpaceOnUse"
       id="clipPath105">
      <path
         d="M 0,141.732 H 141.732 V 0 H 0 Z"
         transform="translate(-73.922902,-89.124902)"
         id="path105" />
    </clipPath>
    <clipPath
       clipPathUnits="userSpaceOnUse"
       id="clipPath107">
      <path
         d="M 0,141.732 H 141.732 V 0 H 0 Z"
         transform="translate(-78.979502,-51.901201)"
         id="path107" />
    </clipPath>
    <clipPath
       clipPathUnits="userSpaceOnUse"
       id="clipPath109">
      <path
         d="M 0,141.732 H 141.732 V 0 H 0 Z"
         transform="translate(-77.961902,-46.779099)"
         id="path109" />
    </clipPath>
    <clipPath
       clipPathUnits="userSpaceOnUse"
       id="clipPath111">
      <path
         d="M 0,141.732 H 141.732 V 0 H 0 Z"
         transform="translate(-62.372102,-96.406602)"
         id="path111" />
    </clipPath>
  </defs>
  <g
     id="layer-MC0">
    <rect
       style="fill:#ffffff;stroke:none;stroke-width:6.29291"
       id="rect112"
       width="188.93233"
       height="188.95879"
       x="-0.1250558"
       y="-0.039965667" />
    <path
       id="path1"
       d="m 4.7443202,-7.2424687 0.00736,-3.9426513 c 0.00264,-0.668067 0.2507727,-1.037098 0.9024025,-1.036578 l 1.5211762,-0.0043 -1.72e-5,-1.036033 -6.80208105,0.0081 1.722e-5,1.036033 1.50473963,-0.0064 c 0.6680663,0.0026 0.9286715,0.378821 0.9260315,1.046887 l 0.00201,9.1156585 c -0.00768,0.6423511 -0.2908039,1.0235778 -0.9095604,1.0272995 l -1.52117626,0.00427 1.722e-5,1.03603297 6.80208104,-0.00806627 -1.72e-5,-1.0360329 -1.5376128,0.00215 C 5.0137707,-1.0416516 4.7460076,-1.4271108 4.7536849,-2.069462 l -0.00935,-4.1369737 7.1586491,0.012871 0.0093,4.1369738 c -0.0077,0.6423511 -0.290803,1.0235778 -0.90956,1.0272995 l -1.5447703,-0.00713 1.72e-5,1.03603291476 6.8092381,0.001212308 -1.7e-5,-1.03603292276 -1.528334,-0.00501 c -0.618757,0.00372 -0.902956,-0.383858 -0.895279,-1.0262092 l -0.002,-9.1156577 c 0.0026,-0.668066 0.250772,-1.037098 0.928117,-1.041616 l 1.495461,7.71e-4 -1.7e-5,-1.036033 -6.8092383,-0.0012 1.72e-5,1.036033 1.5211761,-0.0043 c 0.658787,0.0098 0.935829,0.3881 0.933189,1.056166 l -0.0074,3.9426511 z m 0,0"
       style="fill:#231f20;fill-opacity:1;fill-rule:nonzero;stroke:none"
       aria-label="H"
       transform="matrix(0.81442216,-1.0556961,1.0556961,0.81442216,45.719467,71.1648)" />
    <path
       id="path2"
       d="M 0,0 -3.119,2.407 C -3.642,2.81 -3.784,3.248 -3.381,3.771 l 0.929,1.203 -0.824,0.635 -4.153,-5.384 0.823,-0.635 0.916,1.187 c 0.403,0.523 0.863,0.497 1.386,0.094 L 2.917,-4.7 C 3.423,-5.091 3.553,-5.545 3.174,-6.036 L 2.246,-7.239 3.069,-7.875 7.223,-2.49 6.399,-1.855 5.459,-3.074 C 5.08,-3.565 4.608,-3.555 4.102,-3.164 L 0.824,-0.635 5.197,5.034 8.475,2.505 C 8.982,2.114 9.112,1.66 8.733,1.169 L 7.792,-0.05 8.616,-0.685 12.769,4.699 11.946,5.334 11.018,4.131 C 10.639,3.64 10.167,3.65 9.66,4.041 L 2.439,9.612 c -0.522,0.403 -0.665,0.841 -0.261,1.364 l 0.916,1.187 -0.823,0.635 -4.154,-5.384 0.823,-0.635 0.929,1.203 c 0.403,0.523 0.862,0.497 1.385,0.094 l 3.12,-2.407 z"
       style="fill:none;stroke:#231f20;stroke-width:1;stroke-linecap:butt;stroke-linejoin:miter;stroke-miterlimit:4;stroke-dasharray:none;stroke-opacity:1"
       transform="matrix(1.3333333,0,0,-1.3333333,41.936133,60.2644)"
       clip-path="url(#clipPath3)" />
    <path
       id="path4"
       d="m 7.7789225,-13.653991 c -4.8784355,-4.99e-4 -7.22303522,3.523163 -7.2172021,7.0380019 -0.004413,3.5091514 2.3461656,7.02541269 7.2246011,7.02591226 4.8841225,-0.009747 7.2071015,-3.51860426 7.2115145,-7.02775566 -0.0058,-3.5148385 -2.334791,-7.0459045 -7.2189135,-7.0361585 z m 0.00608,1.075621 c 3.6195575,-0.0013 5.0775525,2.9256673 5.0832095,5.9578985 -0.0046,3.0265438 -1.462732,5.94320913 -5.0822889,5.94452749 C 4.1561227,-0.68031305 2.6924403,-3.5970524 2.697029,-6.6235962 2.6913717,-9.6558274 4.1552021,-12.582739 7.7850054,-12.57837 Z m 0,0"
       style="fill:#231f20;fill-opacity:1;fill-rule:nonzero;stroke:none"
       aria-label="O"
       transform="matrix(1.1657788,-0.64709934,0.64709934,1.1657788,59.630267,53.4708)" />
    <path
       id="path5"
       d="m 0,0 c -4.267,-2.368 -4.604,-6.582 -2.896,-9.659 1.709,-3.078 5.453,-5.003 9.72,-2.634 4.266,2.368 4.614,6.564 2.905,9.642 C 8.021,0.426 4.267,2.368 0,0 Z m 0.524,-0.944 c 3.165,1.756 5.859,-0.088 7.334,-2.746 1.475,-2.658 1.606,-5.902 -1.559,-7.659 -3.165,-1.757 -5.849,0.07 -7.324,2.728 -1.475,2.658 -1.616,5.92 1.549,7.677 z"
       style="fill:none;stroke:#231f20;stroke-width:1;stroke-linecap:butt;stroke-linejoin:miter;stroke-miterlimit:4;stroke-dasharray:none;stroke-opacity:1"
       transform="matrix(1.3333333,0,0,-1.3333333,59.860667,32.511867)"
       clip-path="url(#clipPath6)" />
    <path
       id="path7"
       d="m 7.2185272,-0.00190455 0.00283,-1.04079005 -1.1716963,0.00262 C 5.0917375,-1.0432137 4.7616999,-1.5623999 4.75575,-2.2849577 l 0.00477,-3.6908079 3.5615166,-0.00139 c 2.4842904,0.00254 4.6367304,-1.0112869 4.6354364,-3.6380909 -0.0038,-2.8637875 -2.379905,-3.6439925 -5.4790606,-3.6492615 l -7.11142628,0.0044 -0.002833,1.04079 1.52636428,-5.95e-4 c 0.6629082,-0.0024 0.9410686,0.379402 0.9434864,1.04231 l -0.00319,9.1217501 c -0.00596,0.6380793 -0.2830146,1.0136379 -0.909487,1.0092937 l -1.55119306,0.00897 -0.002833,1.04079006 z M 4.7543037,-12.223736 l 2.9102153,0.0026 c 1.7865618,1.13e-4 3.1477,0.591774 3.151723,2.6037126 -0.006,1.9987166 -1.3677199,2.6019659 -3.1542817,2.6018528 l -2.9102153,-0.00264 z m 0,0"
       style="fill:#231f20;fill-opacity:1;fill-rule:nonzero;stroke:none"
       aria-label="P"
       transform="matrix(1.3206116,-0.18374643,0.18374643,1.3206116,78.084667,43.5828)" />
    <path
       id="path8"
       d="M 0,0 -0.143,1.03 -1.312,0.867 C -2.263,0.735 -2.651,1.206 -2.75,1.919 l -0.51,3.665 3.526,0.49 c 2.456,0.342 4.455,1.65 4.094,4.245 -0.394,2.833 -2.859,3.277 -5.93,2.85 l -7.052,-0.981 0.143,-1.03 1.526,0.212 c 0.654,0.091 0.964,-0.249 1.055,-0.903 L -4.642,1.434 C -4.554,0.8 -4.778,0.385 -5.393,0.299 l -1.544,-0.215 0.143,-1.029 z m -4.12,11.764 2.872,0.4 C 0.535,12.412 1.964,12.005 2.24,10.024 2.516,8.043 1.251,7.262 -0.531,7.014 l -2.873,-0.4 z"
       style="fill:none;stroke:#231f20;stroke-width:1;stroke-linecap:butt;stroke-linejoin:miter;stroke-miterlimit:4;stroke-dasharray:none;stroke-opacity:1"
       transform="matrix(1.3333333,0,0,-1.3333333,87.6192,42.256)"
       clip-path="url(#clipPath9)" />
    <path
       id="path10"
       d="m 4.7169721,-12.222655 3.7047563,9.85e-4 c 2.3533946,-0.004 3.3253366,0.793775 3.3198416,4.1767767 l 1.041099,0.00717 0.0083,-5.2238877 -12.41736741,-0.0056 -0.007171,1.041099 1.49385331,3.97e-4 c 0.6572955,1.74e-4 0.9122989,0.379451 0.9121242,1.036747 l -0.00702,9.119398 c 0.00902,0.6435085 -0.2714667,1.0341341 -0.8942868,1.0270738 l -1.51683688,0.00419 0.00432,1.03880387085 6.80047928,0.004105379 -0.00432,-1.03880385 -1.5306239,-0.005 c -0.6205249,0.00443 -0.9008071,-0.3817466 -0.909829,-1.0252551 l 0.01034,-4.3160845 1.3260827,-0.00195 c 1.5650993,-0.00188 1.8131854,0.4624272 1.8952879,2.8480181 l 1.0273121,-0.00203 -0.00288,-6.4764297 -1.027312,0.002 c -0.078703,2.1189528 -0.3316337,2.5877257 -1.8967329,2.589608 l -1.3260827,0.00195 z m 0,0"
       style="fill:#231f20;fill-opacity:1;fill-rule:nonzero;stroke:none"
       aria-label="F"
       transform="matrix(1.3075103,0.26114073,-0.26114073,1.3075103,95.863333,41.132267)" />
    <path
       id="path11"
       d="m 0,0 3.628,-0.725 c 2.314,-0.462 3.1,-1.435 2.437,-4.749 L 7.085,-5.678 8.107,-0.559 -4.052,1.87 -4.256,0.85 -2.805,0.56 c 0.648,-0.129 0.828,-0.553 0.699,-1.2 l -1.787,-8.943 c -0.125,-0.628 -0.474,-0.946 -1.082,-0.824 l -1.49,0.297 -0.204,-1.019 6.669,-1.332 0.203,1.02 -1.51,0.301 c -0.608,0.121 -0.808,0.549 -0.683,1.177 l 0.846,4.236 1.294,-0.259 C 1.7,-6.295 1.845,-6.793 1.458,-9.143 l 1.02,-0.204 1.269,6.355 -1.02,0.204 C 2.229,-4.871 1.904,-5.275 0.354,-4.966 l -1.294,0.259 z"
       style="fill:none;stroke:#231f20;stroke-width:1;stroke-linecap:butt;stroke-linejoin:miter;stroke-miterlimit:4;stroke-dasharray:none;stroke-opacity:1"
       transform="matrix(1.3333333,0,0,-1.3333333,105.22587,26.3868)"
       clip-path="url(#clipPath12)" />
    <path
       id="path13"
       d="m 13.142226,1.7095325e-4 0.0021,-5.38249175325 -1.031049,0.00187 c -0.109635,2.8613309 -0.315679,4.3369564 -3.2522139,4.3286845 l -4.2186228,0.010564 5.923e-4,-5.3402666 1.6621141,-0.00514 c 1.5838087,0.0018 1.7881718,0.4677369 1.8541998,2.8768238 l 1.0371935,0.00811 -0.00516,-6.5340709 -1.0371935,-0.0081 c -0.061494,2.1573159 -0.2670927,2.6279946 -1.8509014,2.6261989 l -1.6621141,0.00514 7.643e-4,-4.8036289 4.2186228,-0.01056 c 2.9365349,0.0083 3.1404519,1.47916 3.2556399,3.968074 l 1.031049,-0.00187 -0.0016,-5.008611 -12.76873195,0.0049 -0.001968,1.047172 1.40492985,0.0019 c 0.6571672,-0.0056 0.9167776,0.371284 0.9185288,1.044574 l -0.00322,9.1128485 C 2.694628,-1.410624 2.42758,-1.0397292 1.8064929,-1.0426011 l -1.48938008,-0.0049 -0.001968,1.04717194365 z m 0,0"
       style="fill:#231f20;fill-opacity:1;fill-rule:nonzero;stroke:none"
       aria-label="E"
       transform="matrix(1.1353205,0.69916031,-0.69916031,1.1353205,113.5912,44.592533)" />
    <path
       id="path14"
       d="M 0,0 2.821,4.581 1.936,5.126 C 0.351,2.744 -0.596,1.588 -3.099,3.13 l -3.593,2.213 2.8,4.547 1.413,-0.871 C -1.133,8.19 -1.204,7.694 -2.395,5.608 L -1.509,5.063 1.91,10.615 1.024,11.16 C -0.176,9.363 -0.588,9.076 -1.933,9.905 l -1.414,0.87 2.517,4.087 3.594,-2.213 C 5.267,11.108 4.661,9.743 3.446,7.579 l 0.886,-0.546 2.621,4.258 -10.865,6.69 -0.545,-0.885 1.192,-0.734 c 0.562,-0.346 0.584,-0.806 0.238,-1.368 L -7.809,7.229 C -8.145,6.684 -8.583,6.507 -9.11,6.832 l -1.261,0.776 -0.545,-0.886 z"
       style="fill:none;stroke:#231f20;stroke-width:1;stroke-linecap:butt;stroke-linejoin:miter;stroke-miterlimit:4;stroke-dasharray:none;stroke-opacity:1"
       transform="matrix(1.3333333,0,0,-1.3333333,128.50907,53.779333)"
       clip-path="url(#clipPath15)" />
    <path
       id="path16"
       d="m 12.325839,0.09704323 1.629269,0.007344 0.0043,-11.27984223 c -0.0068,-0.670295 0.268051,-1.050042 0.931476,-1.047304 l 1.434526,-0.0034 -0.0085,-1.047663 -6.108603,0.0058 0.0085,1.047664 1.551697,-0.0054 c 0.656554,0.01223 0.909014,0.382975 0.91577,1.05327 l -0.0029,8.6192737 -0.03535,-0.011117 -7.4728476,-10.7021157 -4.84296232,-0.004 0.008511,1.047664 1.52846252,0.0067 c 0.653931,-0.0041 0.9063905,0.366612 0.9131466,1.036907 l 8.947e-4,9.1138123 c -0.00536,0.6470608 -0.2801684,1.0268074 -0.9013717,1.0256931 l -1.54482634,-0.0041 -9.8274e-4,1.04079341 6.20253928,0.00427319 9.828e-4,-1.0407934 -1.577554,0.00115 C 4.3388678,-1.0394329 4.0605507,-1.4144239 4.0659118,-2.0614847 l -0.00527,-9.5075453 0.042221,0.0016 z m 0,0"
       style="fill:#231f20;fill-opacity:1;fill-rule:nonzero;stroke:none"
       aria-label="N"
       transform="matrix(0.78167433,1.080168,-1.080168,0.78167433,130.388,54.672667)" />
    <path
       id="path17"
       d="M 0,0 0.961,-1.329 10.1,5.285 c 0.534,0.386 0.995,0.399 1.381,-0.136 L 12.326,3.982 13.168,4.592 9.581,9.55 8.738,8.94 9.652,7.676 C 10.04,7.142 9.884,6.708 9.349,6.321 L 2.366,1.268 2.343,1.3 6.638,13.617 3.8,17.538 2.958,16.928 3.849,15.697 C 4.235,15.162 4.08,14.729 3.545,14.342 L -3.843,8.995 C -4.361,8.62 -4.833,8.624 -5.197,9.126 l -0.903,1.248 -0.842,-0.61 3.634,-5.023 0.843,0.61 -0.926,1.28 c -0.364,0.502 -0.22,0.952 0.298,1.327 l 7.713,5.581 0.024,-0.032 z"
       style="fill:none;stroke:#231f20;stroke-width:1;stroke-linecap:butt;stroke-linejoin:miter;stroke-miterlimit:4;stroke-dasharray:none;stroke-opacity:1"
       transform="matrix(1.3333333,0,0,-1.3333333,139.91013,68.058667)"
       clip-path="url(#clipPath18)" />
    <path
       id="path19"
       d="m 0.33060103,-12.726425 1.48606027,-0.0039 c 0.6781336,0.0074 0.9616566,0.390745 0.958348,1.085128 l 0.00294,9.494004 c -0.00689,0.6673598 -0.3089445,1.0631505 -0.9537815,1.0675351 L 0.2899507,-1.0838646 0.29590293,2.0145101e-4 8.4116761,0.0035468 c 3.8355419,5.2412e-4 7.1358779,-2.0039026 7.1443619,-6.8955197 0.0021,-5.0999701 -3.228157,-6.9220961 -7.5121496,-6.9133631 l -7.70814074,-0.0012 z m 4.45442007,-1.37e-4 2.7089573,0.0024 c 4.0356886,-0.0062 5.8281906,1.785395 5.8348496,5.8322374 -6.79e-4,4.0313733 -1.802754,5.8043573 -5.5049251,5.8122377 l -3.0424747,-0.00414 z m 0,0"
       style="fill:#231f20;fill-opacity:1;fill-rule:nonzero;stroke:none"
       aria-label=" D"
       transform="matrix(0.42790848,1.2628033,-1.2130691,0.41105291,21.858,104.97)" />
    <path
       id="path20"
       d="m 0,0 0.475,-1.4 c 0.22,-0.651 -0.053,-1.029 -0.678,-1.241 l -8.638,-2.927 c -0.606,-0.205 -1.059,-0.051 -1.266,0.56 l -0.495,1.46 -0.984,-0.335 2.606,-7.69 c 1.229,-3.628 4.109,-6.147 8.561,-4.639 4.641,1.573 5.253,5.188 3.877,9.25 L 0.985,0.333 Z m 1.43,-4.22 0.869,-2.564 c 1.296,-3.824 0.242,-6.073 -3.433,-7.318 -3.675,-1.245 -5.859,-0.095 -7.049,3.415 l -0.975,2.879 z"
       style="fill:none;stroke:#231f20;stroke-width:1;stroke-linecap:butt;stroke-linejoin:miter;stroke-miterlimit:4;stroke-dasharray:none;stroke-opacity:1"
       transform="matrix(1.3333333,0,0,-1.3333333,37.4316,100.1616)"
       clip-path="url(#clipPath21)" />
    <path
       id="path22"
       d="m 13.671022,0.00433889 0.0066,-5.60134079 -1.076148,-0.00136 c -0.113359,2.9744896 -0.31807,4.5185367 -3.3799778,4.5118674 l -4.3869132,0.0044 -0.00611,-5.5650905 1.7350082,6.042e-4 c 1.6343288,-0.0047 1.8466148,0.4821707 1.9401525,2.9890474 l 1.076148,0.00136 -0.00888,-6.7977496 -1.076148,-0.0014 c -0.084946,2.2503958 -0.2991269,2.7275642 -1.9334557,2.7322685 l -1.7350082,-6.042e-4 0.007,-4.9935813 4.3869133,-0.0044 c 3.0619079,0.0067 3.2725899,1.5357 3.3755979,4.1282733 l 1.076148,0.00136 -0.0012,-5.2183623 -13.27059863,3.22e-4 0.004079,1.093574 1.45132823,-1.54e-4 c 0.6917887,-0.0047 0.960461,0.388589 0.9539038,1.084017 l 0.00611,9.4898202 c -0.00117,0.6687331 -0.2925687,1.0509533 -0.9422498,1.0592964 l -1.54282848,0.00243 -0.005101,1.08598967 z m 0,0"
       style="fill:#231f20;fill-opacity:1;fill-rule:nonzero;stroke:none"
       aria-label="E"
       transform="matrix(0.82887571,1.0443863,-1.0032528,0.79623404,32.1884,131.68747)" />
    <path
       id="path23"
       d="M 0,0 4.214,3.344 3.541,4.193 C 1.236,2.497 -0.052,1.739 -1.956,4.137 l -2.731,3.441 4.184,3.319 1.074,-1.354 C 1.593,8.255 1.362,7.806 -0.466,6.249 L 0.207,5.401 5.314,9.454 4.641,10.302 C 2.897,9.025 2.408,8.902 1.386,10.19 l -1.075,1.354 3.76,2.984 2.731,-3.441 C 8.704,8.689 7.674,7.606 5.796,5.983 L 6.47,5.135 10.386,8.244 2.128,18.648 1.314,18.001 2.22,16.86 C 2.647,16.321 2.518,15.873 2,15.463 L -5.143,9.794 C -5.645,9.396 -6.123,9.388 -6.524,9.893 L -7.482,11.1 -8.296,10.454 Z"
       style="fill:none;stroke:#231f20;stroke-width:1;stroke-linecap:butt;stroke-linejoin:miter;stroke-miterlimit:4;stroke-dasharray:none;stroke-opacity:1"
       transform="matrix(1.3333333,0,0,-1.3333333,43.526667,145.97333)"
       clip-path="url(#clipPath24)" />
    <path
       id="path25"
       d="m 0.48103586,-0.00547515 7.13794534,0.00862187 0.00199,-1.09112752 -1.6246402,-0.0032 C 5.3569417,-1.0869903 5.064173,-1.480375 5.0549222,-2.1568947 l 0.00819,-4.5009011 2.7094906,-1.119e-4 c 2.8038142,0.00553 3.4247572,1.4961487 3.4286472,5.1187128 -0.0021,1.14568386 0.667286,1.94352995 2.145194,1.94098904 1.587945,0.008587 2.359838,-0.81369448 2.365347,-3.84157334 l -1.095342,0.00875 -0.0072,1.0529278 c -8.94e-4,0.4910074 -0.08666,1.54378004 -0.726046,1.5479747 -0.524078,-0.001034 -0.654799,-0.16496112 -0.663603,-1.0869845 0.0058,-3.1642699 -0.562381,-4.8730111 -3.040861,-5.1015811 l 0.0053,-0.043635 c 1.939435,-0.187123 3.827602,-1.0017477 3.831672,-3.2385587 0.0046,-2.536872 -2.357217,-3.507181 -4.8937719,-3.501272 l -8.64205765,-0.0061 0.003285,1.074771 1.59843635,0.0032 c 0.6813007,0.0013 0.9478656,0.394677 0.9518458,1.087553 l -0.00678,9.4873747 c 0.00925,0.6765197 -0.2744658,1.0687675 -0.9295626,1.0674755 l -1.61414878,-0.00864 z M 5.0636867,-12.735397 l 2.9348339,0.0058 c 2.9610374,0.0058 3.7931494,0.651249 3.7897754,2.506166 0.0018,1.8931162 -1.251861,2.5016773 -3.3743745,2.4974913 l -3.354096,-0.00661 z m 0,0"
       style="fill:#231f20;fill-opacity:1;fill-rule:nonzero;stroke:none"
       aria-label="R"
       transform="matrix(1.1936971,0.59402436,-0.57063021,1.1466847,52.278133,153.826)" />
    <path
       id="path26"
       d="M 0,0 6.394,-3.182 6.857,-2.25 5.403,-1.527 C 4.825,-1.239 4.733,-0.77 5.019,-0.195 L 6.943,3.671 9.366,2.465 c 2.517,-1.252 2.443,-2.801 0.893,-5.918 -0.49,-0.984 -0.241,-1.979 1.082,-2.637 1.417,-0.705 2.463,-0.332 3.755,2.264 l -0.97,0.482 -0.454,-0.913 c -0.205,-0.411 -0.734,-1.288 -1.311,-1 -0.466,0.232 -0.526,0.44 -0.134,1.228 1.355,2.721 1.582,4.439 -0.538,5.74 l 0.018,0.036 C 13.52,1.046 15.564,0.9 16.526,2.834 17.604,5 15.917,6.89 13.643,8.022 L 5.908,11.872 5.444,10.94 6.88,10.226 C 7.495,9.92 7.568,9.459 7.273,8.869 L 3.211,0.704 C 2.925,0.13 2.495,-0.08 1.917,0.208 L 0.463,0.931 Z M 9.545,8.9 12.173,7.592 C 14.82,6.275 15.289,5.349 14.497,3.755 13.686,2.126 12.308,2.163 10.408,3.109 L 7.407,4.603 Z"
       style="fill:none;stroke:#231f20;stroke-width:1;stroke-linecap:butt;stroke-linejoin:miter;stroke-miterlimit:4;stroke-dasharray:none;stroke-opacity:1"
       transform="matrix(1.3333333,0,0,-1.3333333,52.8496,154.1108)"
       clip-path="url(#clipPath27)" />
    <path
       id="path28"
       d="m 7.4002824,0.10840184 2.9988416,-9.18079144 0.04818,-0.00377 2.802029,9.18918376 1.664558,1.4086e-4 3.635645,-11.96339302 c 0.127085,-0.410517 0.48947,-0.878041 1.285118,-0.872133 l 0.595334,-0.0051 0.0011,-1.089015 -5.29233,0.0081 -0.0011,1.089015 1.082754,-0.0047 c 0.524053,-0.0055 0.957349,0.03478 0.96027,0.666544 -0.0017,0.371021 -0.17003,0.95983 -0.271698,1.288243 l -2.488252,8.3188989 -0.03465,-0.00619 -2.392572,-8.1382669 c -0.102271,-0.38958 -0.368527,-1.155005 -0.361241,-1.487892 7.06e-4,-0.581609 0.486482,-0.643405 0.937272,-0.637183 l 1.011473,-0.0051 0.0011,-1.089014 -6.0166963,0.0026 -0.00108,1.089015 1.0114733,-0.0051 c 0.7609972,-2.79e-4 1.3192614,1.374263 1.2605033,1.586564 l -2.8773635,8.7321422 -0.03465,-0.00619 -2.425845,-8.8744712 C 4.3961842,-11.679043 4.3490104,-11.89788 4.35398,-12.14454 c 3.41e-5,-0.433201 0.3340136,-0.583986 0.8214345,-0.583601 l 1.0345735,-9.43e-4 0.00108,-1.089014 -5.82793255,0.01153 -0.001076,1.089015 0.45277068,-0.0058 c 1.04612357,0.0011 1.19130527,0.274587 1.49714657,1.23274 L 5.7357248,0.10826098 Z m 0,0"
       style="fill:#231f20;fill-opacity:1;fill-rule:nonzero;stroke:none"
       aria-label=" W"
       transform="matrix(1.3141447,-0.22539191,0.21651585,1.2623868,91.1968,168.6444)" />
    <path
       id="path29"
       d="M 0,0 1.484,9.203 1.525,9.209 5.767,0.988 7.408,1.27 9.058,13.201 c 0.056,0.415 0.331,0.908 1.11,1.043 l 0.595,0.101 -0.176,1.025 -5.212,-0.893 0.176,-1.025 1.067,0.182 C 7.131,13.722 7.569,13.756 7.67,13.165 7.731,12.811 7.662,12.23 7.613,11.898 L 6.52,3.613 6.479,3.607 2.797,10.909 c -0.163,0.337 -0.555,1.022 -0.609,1.336 -0.095,0.552 0.388,0.696 0.818,0.77 l 1.006,0.173 -0.176,1.024 -5.93,-1.017 0.176,-1.025 1.005,0.173 c 0.739,0.126 1.516,-1.079 1.488,-1.288 L -0.84,2.311 -0.881,2.304 l -3.82,7.988 c -0.167,0.358 -0.242,0.547 -0.283,0.784 -0.071,0.414 0.234,0.608 0.706,0.69 l 1.026,0.174 -0.176,1.026 -5.745,-0.986 0.175,-1.024 0.451,0.077 c 1.026,0.176 1.235,-0.052 1.677,-0.909 l 5.228,-10.406 z"
       style="fill:none;stroke:#231f20;stroke-width:1;stroke-linecap:butt;stroke-linejoin:miter;stroke-miterlimit:4;stroke-dasharray:none;stroke-opacity:1"
       transform="matrix(1.3333333,0,0,-1.3333333,100.93227,167.1088)"
       clip-path="url(#clipPath30)" />
    <path
       id="path31"
       d="m 13.672647,0.00370803 0.0017,-5.59957013 -1.073504,-0.00768 c -0.108734,2.9822566 -0.317596,4.5061048 -3.3738304,4.5185929 l -4.3993378,-0.00565 -4.038e-4,-5.5556386 1.7344143,9.586e-4 c 1.6500118,-0.00337 1.8545171,0.4881591 1.9280619,2.988575 l 1.080477,-0.00212 0.00625,-6.7951478 -1.080477,0.0021 c -0.080328,2.2452234 -0.2884165,2.7223516 -1.9384283,2.7257258 l -1.7344144,-9.585e-4 -0.00409,-4.9968783 4.3993378,0.0056 c 3.0562337,-0.01249 3.2693847,1.533024 3.3879417,4.1136641 l 1.073504,0.00768 -0.01008,-5.2139901 -13.27996973,-0.0042 -0.002854,1.090651 1.45784263,3.11e-4 c 0.68672,-0.002 0.9679257,0.381671 0.9674103,1.079484 l -0.00415,9.4985382 c 0.00401,0.6709452 -0.2843176,1.0558774 -0.9288363,1.0600546 l -1.54224516,-0.00464 -0.002854,1.09065159269 z m 0,0"
       style="fill:#231f20;fill-opacity:1;fill-rule:nonzero;stroke:none"
       aria-label="E"
       transform="matrix(1.0716266,-0.79334372,0.76209822,1.0294173,128.73973,158.70267)" />
    <path
       id="path32"
       d="m 0,0 -3.201,4.324 -0.87,-0.645 c 1.618,-2.36 2.331,-3.673 -0.128,-5.495 l -3.531,-2.614 -3.178,4.293 1.389,1.028 c 1.323,0.978 1.764,0.733 3.259,-1.146 l 0.869,0.644 -3.879,5.239 -0.87,-0.644 c 1.218,-1.785 1.325,-2.279 0.002,-3.257 l -1.388,-1.029 -2.856,3.859 3.531,2.613 c 2.459,1.821 3.507,0.755 5.066,-1.175 l 0.871,0.644 -2.976,4.018 -10.675,-7.904 0.618,-0.836 1.172,0.868 c 0.552,0.408 0.996,0.264 1.388,-0.266 l 5.427,-7.331 c 0.38,-0.514 0.372,-0.992 -0.147,-1.377 l -1.238,-0.916 0.619,-0.835 z"
       style="fill:none;stroke:#231f20;stroke-width:1;stroke-linecap:butt;stroke-linejoin:miter;stroke-miterlimit:4;stroke-dasharray:none;stroke-opacity:1"
       transform="matrix(1.3333333,0,0,-1.3333333,143.39773,147.8504)"
       clip-path="url(#clipPath33)" />
    <path
       id="path34"
       d="m 13.267133,0.00299003 -0.005,-5.68862673 -1.077233,-1.471e-4 c 0.0021,3.7742806 -0.885316,4.6075801 -3.33924,4.6081742 l -3.9411428,-0.0012 0.00503,-10.5633394 c -0.00144,-0.694606 0.2712929,-1.076376 0.9646744,-1.079865 l 1.581684,8.3e-5 0.00205,-1.094196 -7.07837651,-0.0034 -0.002051,1.094196 1.55554971,0.0021 c 0.6993719,0.007 0.9572224,0.386715 0.9586643,1.081321 l -0.00107,9.4963497 c -4.668e-4,0.6674 -0.2933456,1.0616422 -0.9344585,1.0611566 l -1.63395267,0.00389 0.002031,1.07747507 z m 0,0"
       style="fill:#231f20;fill-opacity:1;fill-rule:nonzero;stroke:none"
       aria-label="L"
       transform="matrix(0.68157324,-1.145965,1.100829,0.65472734,151.31747,139.2564)" />
    <path
       id="path35"
       d="M 0,0 -4.693,2.791 -5.246,1.86 c 3.111,-1.85 3.352,-3.01 2.096,-5.122 l -2.012,-3.382 -8.715,5.184 c -0.566,0.337 -0.755,0.763 -0.404,1.354 l 0.809,1.36 -0.894,0.532 -3.618,-6.084 0.893,-0.532 0.799,1.342 c 0.351,0.591 0.816,0.629 1.383,0.291 l 7.839,-4.661 c 0.549,-0.328 0.727,-0.772 0.397,-1.327 l -0.83,-1.396 0.894,-0.531 z"
       style="fill:none;stroke:#231f20;stroke-width:1;stroke-linecap:butt;stroke-linejoin:miter;stroke-miterlimit:4;stroke-dasharray:none;stroke-opacity:1"
       transform="matrix(1.3333333,0,0,-1.3333333,160.3568,124.058)"
       clip-path="url(#clipPath36)" />
    <path
       id="path37"
       d="M 1.60328,-8.3740111 C 1.60481,-11.22771 2.1224057,-12.724844 5.0230701,-12.719613 l 0.9127036,-0.0034 -0.00312,10.5769556 c 4.912e-4,0.671953 -0.2834617,1.0602011 -0.9434241,1.0523081 l -1.8028603,9.98e-5 0.00463,1.08920746 7.4673817,6.222e-5 -0.0046,-1.08920738 -1.7658406,0.00184 c -0.645517,5.328e-4 -0.9330131,-0.3837189 -0.9335043,-1.0556719 l 0.00312,-10.5769549 0.7790964,-0.0019 c 3.0342715,0.0038 3.5407355,1.325154 3.5389095,4.3564756 l 1.097804,0.00533 0.0026,-5.4409636 -12.86468898,-0.0031 -0.002618,5.4409629 z m 0,0"
       style="fill:#231f20;fill-opacity:1;fill-rule:nonzero;stroke:none"
       aria-label="T"
       transform="matrix(0.36407315,-1.2826646,1.2321491,0.34973437,162.5976,118.7664)" />
    <path
       id="path38"
       d="M 0,0 C -2.636,0.748 -3.879,1.642 -3.089,4.426 L -2.838,5.308 6.936,2.533 C 7.551,2.358 7.837,1.974 7.661,1.353 L 7.166,-0.389 8.167,-0.673 10.208,6.517 9.207,6.801 8.724,5.098 C 8.548,4.478 8.103,4.301 7.486,4.476 l -9.773,2.774 0.21,0.741 c 0.83,2.924 2.184,3.081 4.994,2.283 l 0.295,1.042 -5.022,1.425 -3.507,-12.357 5.022,-1.426 z"
       style="fill:none;stroke:#231f20;stroke-width:1;stroke-linecap:butt;stroke-linejoin:miter;stroke-miterlimit:4;stroke-dasharray:none;stroke-opacity:1"
       transform="matrix(1.3333333,0,0,-1.3333333,152.86853,113.78267)"
       clip-path="url(#clipPath39)" />
    <path
       id="path40"
       d="m 0,0 c 0,-19.502 -15.809,-35.311 -35.311,-35.311 -19.5,0 -35.308,15.809 -35.308,35.311 0,19.501 15.808,35.309 35.308,35.309 C -15.809,35.309 0,19.501 0,0 Z"
       style="fill:none;stroke:#231f20;stroke-width:3;stroke-linecap:butt;stroke-linejoin:miter;stroke-miterlimit:4;stroke-dasharray:none;stroke-opacity:1"
       transform="matrix(1.3333333,0,0,-1.3333333,141.51827,94.4384)"
       clip-path="url(#clipPath41)" />
    <path
       id="path42"
       d="m 0,0 c 0,-17.398 -14.105,-31.504 -31.504,-31.504 -17.398,0 -31.502,14.106 -31.502,31.504 0,17.398 14.104,31.503 31.502,31.503 C -14.105,31.503 0,17.398 0,0 Z"
       style="fill:none;stroke:#231f20;stroke-width:1;stroke-linecap:butt;stroke-linejoin:miter;stroke-miterlimit:4;stroke-dasharray:none;stroke-opacity:1"
       transform="matrix(1.3333333,0,0,-1.3333333,136.44267,94.4384)"
       clip-path="url(#clipPath43)" />
    <path
       id="path44"
       d="m 0,0 c 0,-32.102 -26.023,-58.125 -58.125,-58.125 -32.102,0 -58.125,26.023 -58.125,58.125 0,32.101 26.023,58.124 58.125,58.124 C -26.023,58.124 0,32.101 0,0 Z"
       style="fill:none;stroke:#231f20;stroke-width:1;stroke-linecap:butt;stroke-linejoin:miter;stroke-miterlimit:4;stroke-dasharray:none;stroke-opacity:1"
       transform="matrix(1.3333333,0,0,-1.3333333,171.93747,94.4384)"
       clip-path="url(#clipPath45)" />
    <path
       id="path46"
       d="m 0,0 c 0,-34.146 -27.681,-61.828 -61.829,-61.828 -34.147,0 -61.828,27.682 -61.828,61.828 0,34.147 27.681,61.829 61.828,61.829 C -27.681,61.829 0,34.147 0,0 Z"
       style="fill:none;stroke:#231f20;stroke-width:4;stroke-linecap:butt;stroke-linejoin:miter;stroke-miterlimit:4;stroke-dasharray:none;stroke-opacity:1"
       transform="matrix(1.3333333,0,0,-1.3333333,176.87627,94.4384)"
       clip-path="url(#clipPath47)" />
  </g>
  <g
     id="layer-MC1">
    <path
       id="path48"
       d="m 0,0 c 1.147,-2.45 -1.515,-4.916 -3.183,-6.285 -2.749,-2.258 -5.867,-3.469 -8.18,-6.325 -0.151,-0.186 -0.531,-1.008 -0.466,-0.928 3.237,3.997 8.554,5.387 11.375,9.798 C 0.371,-2.451 1.318,-0.496 0.6,1.039 0.661,0.909 -0.124,0.264 0,0"
       style="fill:#231f20;fill-opacity:1;fill-rule:nonzero;stroke:none"
       transform="matrix(1.3333333,0,0,-1.3333333,85.553333,77.030267)"
       clip-path="url(#clipPath49)" />
    <path
       id="path50"
       d="m 0,0 c 0.944,-2.98 2.642,-7.191 1.819,-10.289 0.201,0.338 0.402,0.676 0.603,1.013 -4.399,0.302 -8.222,-2.171 -8.874,-6.485 0.201,0.337 0.403,0.675 0.603,1.012 -1.203,-0.459 -2.105,-1.502 -2.705,-2.612 -0.534,-0.987 -0.802,-1.878 -0.982,-2.989 -0.218,-1.35 0.206,-2.822 0.512,-4.104 0.391,-0.116 0.79,-0.174 1.199,-0.173 0.033,-0.731 0.097,-1.461 0.191,-2.187 0.177,-1.701 0.549,-3.398 0.832,-5.084 0.481,-2.877 2.585,-4.636 3.745,-7.123 0.731,-1.567 2.266,2.873 2.321,3.03 -0.195,-0.318 -0.391,-0.636 -0.585,-0.953 0.544,-1.745 1.282,-3.372 2.204,-4.948 0.94,-1.609 2.504,-2.463 3.084,-4.34 10e-4,-0.005 0.257,0.332 0.27,0.352 0.494,0.782 5.715,-1.246 5.925,-1.582 1.84,-2.954 3.269,-1.321 5.896,-1.387 1.985,-0.049 3.123,2.041 1.623,3.466 -0.192,-0.343 -0.384,-0.685 -0.576,-1.028 0.752,0.361 1.935,-0.998 2.794,0.198 0.657,0.912 0.827,1.626 0.877,2.736 -0.201,-0.337 -0.401,-0.674 -0.602,-1.012 3.25,-0.688 5.029,0.531 4.701,3.696 -0.2,-0.338 -0.401,-0.675 -0.603,-1.013 1.328,0.437 1.881,-1.018 2.66,0.304 1.194,2.03 0.483,4.543 0.057,6.707 -0.2,-0.347 -0.399,-0.692 -0.599,-1.039 1.358,0.291 2.359,1.542 2.864,2.778 0.909,2.229 0.292,4.382 -0.472,6.573 -0.973,2.792 -1.871,6.071 -3.162,8.732 -1.033,2.133 -3.385,3.162 -5.079,4.715 -2.766,2.537 -4.139,7.825 -7.556,9.198 -3.089,1.24 -7.098,-1.856 -7.814,-4.832 0.201,0.338 0.403,0.676 0.603,1.013 C 2.836,-7.921 3.784,5.4 0.475,0.908 0.382,0.782 -0.156,-0.249 0.124,0.131 c 2.643,3.588 2.433,-9.063 5.051,-8.827 0.216,0.02 0.557,0.823 0.603,1.013 0.514,2.142 3.866,2.764 5.615,2.93 2.436,0.23 3.38,-2.319 4.321,-4.007 1.668,-2.995 4.226,-5.874 7.237,-7.569 3.107,-1.748 2.425,-5.465 3.751,-8.067 1.153,-2.262 4.846,-9.423 0.287,-10.399 -0.186,-0.04 -0.635,-0.855 -0.599,-1.039 0.182,-0.928 1.3,-4.599 0.628,-5.265 -0.086,-0.085 -1.625,0.504 -2.146,0.332 -0.189,-0.062 -0.623,-0.816 -0.602,-1.012 0.234,-2.266 -1.674,-2.057 -3.497,-1.671 -0.143,0.03 -0.596,-0.87 -0.602,-1.013 -0.128,-2.805 -1.704,-0.541 -2.515,-0.931 -0.12,-0.057 -0.666,-0.942 -0.575,-1.028 1.423,-1.351 -0.256,-1.392 -1.342,-1.365 -1.232,0.031 -2.197,-0.818 -3.269,-0.431 -0.919,0.332 -1.659,1.655 -2.112,2.461 0.165,-0.293 -3.701,0.703 -4.349,1.379 -0.437,0.456 -1.155,-0.372 -1.318,-0.567 -0.421,-0.508 -0.636,0.985 -0.979,1.511 -1.683,2.584 -3.465,4.424 -4.434,7.529 0.021,-0.068 -0.531,-0.799 -0.585,-0.953 -1.311,-3.772 -4.217,3.784 -4.688,5.171 -0.833,2.455 -1.159,5.912 -1.233,8.363 -0.001,0.008 -0.002,0.017 -0.004,0.026 -3.076,-0.929 -1.734,6.547 0.784,7.51 0.235,0.09 0.567,0.774 0.603,1.013 0.539,3.568 4.605,4.67 7.667,4.46 0.192,-0.013 0.56,0.849 0.603,1.013 C 3.27,-6.123 1.555,-1.975 0.6,1.039 0.657,0.858 -0.098,0.308 0,0"
       style="fill:#231f20;fill-opacity:1;fill-rule:nonzero;stroke:none"
       transform="matrix(1.3333333,0,0,-1.3333333,80.134133,62.705333)"
       clip-path="url(#clipPath51)" />
    <path
       id="path52"
       d="M 0,0 C 0.184,1.124 0.845,1.941 1.311,2.932 2,4.4 2.183,5.983 1.733,7.546 1.788,7.355 1.042,6.823 1.133,6.507 1.511,5.194 1.437,3.963 1,2.685 0.652,1.665 1.181,2.931 0.946,2.606 0.781,2.376 0.626,2.137 0.484,1.892 -0.031,1 -0.439,0.036 -0.606,-0.986 -0.576,-0.798 -0.056,-0.34 0,0"
       style="fill:#231f20;fill-opacity:1;fill-rule:nonzero;stroke:none"
       transform="matrix(1.3333333,0,0,-1.3333333,70.025333,92.431333)"
       clip-path="url(#clipPath53)" />
    <path
       id="path54"
       d="m 0,0 c 1.171,4.099 6.16,2.829 7.944,5.919 0.752,1.302 0.654,2.24 2.562,2.409 2.408,0.214 3.666,-3.288 5.615,-4.224 0.106,-0.052 0.655,1.012 0.599,1.039 C 14.145,6.38 12.695,11.006 9.227,8.742 8.146,8.036 8.243,6.354 7.404,5.713 6.29,4.86 4.487,4.729 3.22,4.007 2.226,3.441 1.453,2.575 0.772,1.676 0.188,0.905 -0.339,-0.053 -0.606,-0.986 -0.547,-0.78 -0.097,-0.338 0,0"
       style="fill:#231f20;fill-opacity:1;fill-rule:nonzero;stroke:none"
       transform="matrix(1.3333333,0,0,-1.3333333,76.628267,83.208)"
       clip-path="url(#clipPath55)" />
    <path
       id="path56"
       d="m 0,0 c 2.684,-1.218 4.938,-3.571 5.652,-6.455 0.763,-3.085 -1.49,-10.264 -5.172,-6.829 -1.965,1.833 -4.251,3.489 -4.494,6.433 0.011,-0.132 -0.633,-0.672 -0.607,-0.986 0.165,-1.99 1.142,-3.436 2.607,-4.753 1.027,-0.924 2.225,-2.348 3.499,-2.756 1.829,-0.584 3.246,2.948 3.803,4.169 C 7.556,-6.207 5.596,-1.228 0.6,1.039 0.484,1.092 -0.048,0.021 0,0"
       style="fill:#231f20;fill-opacity:1;fill-rule:nonzero;stroke:none"
       transform="matrix(1.3333333,0,0,-1.3333333,85.668,77.099867)"
       clip-path="url(#clipPath57)" />
    <path
       id="path58"
       d="m 0,0 c 1.829,-3.023 2.944,-6.663 2.853,-10.197 0.004,0.159 0.598,0.655 0.607,0.986 C 3.551,-5.65 2.441,-2.005 0.6,1.039 0.654,0.95 -0.136,0.225 0,0"
       style="fill:#231f20;fill-opacity:1;fill-rule:nonzero;stroke:none"
       transform="matrix(1.3333333,0,0,-1.3333333,85.4284,80.76)"
       clip-path="url(#clipPath59)" />
    <path
       id="path60"
       d="m 0,0 c 0.135,-0.283 0.049,-0.663 -0.006,-0.953 -0.401,-2.082 -2.306,-3.664 -3.609,-5.257 -0.494,-0.606 -0.968,-1.301 -1.308,-2.007 -0.347,-0.72 -0.435,-1.913 -1.227,-0.858 0.04,-0.052 -0.74,-0.853 -0.6,-1.039 0.776,-1.035 1.304,0.252 1.663,0.963 0.927,1.839 2.124,3.214 3.359,4.833 0.776,1.017 3.033,3.882 2.328,5.357 C 0.661,0.912 -0.125,0.261 0,0"
       style="fill:#231f20;fill-opacity:1;fill-rule:nonzero;stroke:none"
       transform="matrix(1.3333333,0,0,-1.3333333,79.833333,89.5576)"
       clip-path="url(#clipPath61)" />
    <path
       id="path62"
       d="m 0,0 c 0.65,-2.021 1.404,-4.023 2.318,-5.941 0.564,-1.183 1.742,-3.691 2.901,-1.786 0.294,0.484 0.64,1.113 0.608,1.69 -0.114,2.08 0.616,3.615 1.917,5.289 1.155,1.487 3.031,4.216 1.448,5.93 C 9.211,5.162 8.458,4.289 8.593,4.143 10.612,1.955 7.218,-0.583 6.163,-2.512 5.766,-3.236 5.212,-7.486 4.933,-7.502 3.663,-7.573 2.501,-4.015 2.149,-3.178 1.57,-1.799 1.058,-0.385 0.6,1.039 0.658,0.859 -0.099,0.307 0,0"
       style="fill:#231f20;fill-opacity:1;fill-rule:nonzero;stroke:none"
       transform="matrix(1.3333333,0,0,-1.3333333,73.240933,100.6572)"
       clip-path="url(#clipPath63)" />
    <path
       id="path64"
       d="m 0,0 c 3.635,-2.923 8.217,-1.843 12.316,-3.33 0.559,-0.202 2.388,-1.868 2.987,-1.036 0.642,0.895 0.53,1.403 0.121,2.469 0.06,-0.158 -0.711,-0.75 -0.6,-1.039 0.35,-0.914 0.785,-0.816 0.048,-0.464 -0.38,0.182 -0.868,0.548 -1.187,0.748 -1.274,0.795 -3.008,1.106 -4.49,1.208 C 6.135,-1.231 3.102,-0.974 0.6,1.039 0.576,1.059 -0.115,0.092 0,0"
       style="fill:#231f20;fill-opacity:1;fill-rule:nonzero;stroke:none"
       transform="matrix(1.3333333,0,0,-1.3333333,89.717467,79.857067)"
       clip-path="url(#clipPath65)" />
    <path
       id="path66"
       d="m 0,0 c 3.009,-2.81 1.141,-7.203 2.975,-10.489 0.093,-0.169 0.137,-0.341 0.15,-0.536 -0.06,0.928 -0.974,0.79 -1.818,1.092 -0.631,0.227 -1.318,0.999 -1.965,1.314 -0.984,0.478 -2.072,0.564 -3.136,0.441 -1.74,-0.201 -3.401,0.477 -4.862,1.344 -0.073,0.044 -0.682,-0.99 -0.6,-1.039 1.597,-0.948 3.272,-1.528 5.145,-1.312 1.502,0.174 2.926,-0.382 4.149,-1.217 1.269,-0.867 2.714,-1.711 3.547,-0.052 0.178,0.355 0.165,0.646 -0.01,1.004 C 2.953,-8.183 2.664,-7.153 2.739,-5.775 2.861,-3.53 2.327,-0.574 0.6,1.039 0.599,1.041 -0.127,0.119 0,0"
       style="fill:#231f20;fill-opacity:1;fill-rule:nonzero;stroke:none"
       transform="matrix(1.3333333,0,0,-1.3333333,103.85027,83.5752)"
       clip-path="url(#clipPath67)" />
    <path
       id="path68"
       d="m 0,0 c 2.564,-1.891 4.524,-4.836 5.045,-7.982 -0.039,0.234 0.657,0.692 0.6,1.039 C 5.125,-3.797 3.163,-0.852 0.6,1.039 0.561,1.067 -0.106,0.079 0,0"
       style="fill:#231f20;fill-opacity:1;fill-rule:nonzero;stroke:none"
       transform="matrix(1.3333333,0,0,-1.3333333,98.3216,83.1168)"
       clip-path="url(#clipPath69)" />
    <path
       id="path70"
       d="m 0,0 c 1.203,-2.102 0.534,-4.651 -0.159,-6.822 -0.537,-1.68 -1.467,-1.263 -2.965,-0.535 -1.102,0.536 -2.368,2.019 -3.754,1.499 -1.377,-0.517 -3.367,1.105 -3.968,2.223 0.019,-0.034 -0.579,-0.839 -0.603,-1.012 -0.551,-3.998 -0.525,-8.409 1.104,-12.156 -0.061,0.141 0.719,0.765 0.6,1.039 -1.621,3.728 -1.647,8.118 -1.097,12.103 -0.202,-0.338 -0.403,-0.675 -0.603,-1.013 0.951,-1.772 2.738,-2.188 4.577,-2.149 1.921,0.041 4.111,-3.427 6.084,-1.804 C 1.351,-6.87 1.799,-1.056 0.6,1.039 0.656,0.941 -0.134,0.234 0,0"
       style="fill:#231f20;fill-opacity:1;fill-rule:nonzero;stroke:none"
       transform="matrix(1.3333333,0,0,-1.3333333,98.684933,95.764)"
       clip-path="url(#clipPath71)" />
    <path
       id="path72"
       d="M 0,0 C 2.488,-1.723 5.029,-4.813 3.912,-7.997 3.877,-8.098 4.403,-7.356 4.482,-7.13 5.631,-3.857 3.186,-0.751 0.6,1.039 0.551,1.073 -0.1,0.069 0,0"
       style="fill:#231f20;fill-opacity:1;fill-rule:nonzero;stroke:none"
       transform="matrix(1.3333333,0,0,-1.3333333,91.518267,94.210533)"
       clip-path="url(#clipPath73)" />
    <path
       id="path74"
       d="m 0,0 c 1.771,-2.738 1.655,-6.446 -0.26,-9.08 -1.151,-1.584 -1.958,-3.259 -2.162,-5.227 0.018,0.177 0.571,0.649 0.606,0.987 0.299,2.884 2.548,4.571 3.275,7.234 0.65,2.381 0.516,5 -0.859,7.125 C 0.65,0.961 -0.138,0.213 0,0"
       style="fill:#231f20;fill-opacity:1;fill-rule:nonzero;stroke:none"
       transform="matrix(1.3333333,0,0,-1.3333333,88.721333,105.0152)"
       clip-path="url(#clipPath75)" />
    <path
       id="path76"
       d="m 0,0 c 0.224,-1.804 0.339,-3.681 0.1,-5.486 -0.038,-0.284 -0.103,-0.565 -0.187,-0.838 0.126,0.411 0.065,0.119 -0.243,0.062 -0.201,-0.037 -0.422,-0.19 -0.624,-0.255 -1.495,-0.479 -3.176,-0.16 -4.646,0.234 -0.178,0.048 -0.589,-1.042 -0.599,-1.039 2.26,-0.607 5.335,-1.038 6.496,1.424 0.957,2.026 0.57,4.781 0.303,6.937 C 0.631,0.792 -0.044,0.355 0,0"
       style="fill:#231f20;fill-opacity:1;fill-rule:nonzero;stroke:none"
       transform="matrix(1.3333333,0,0,-1.3333333,104.7656,98.047867)"
       clip-path="url(#clipPath77)" />
    <path
       id="path78"
       d="m 0,0 c 1.536,-1.272 3.348,-2.216 5.196,-2.938 1.545,-0.604 6.207,-1.954 7.276,-0.103 1.847,3.2 1.942,8.463 -0.67,11.183 0.013,-0.014 -0.734,-0.901 -0.6,-1.039 2.663,-2.774 2.219,-7.196 0.933,-10.547 0.195,0.317 0.389,0.635 0.585,0.953 C 8.438,-3.363 3.916,-1.708 0.6,1.039 0.58,1.056 -0.118,0.098 0,0"
       style="fill:#231f20;fill-opacity:1;fill-rule:nonzero;stroke:none"
       transform="matrix(1.3333333,0,0,-1.3333333,92.548133,106.15853)"
       clip-path="url(#clipPath79)" />
    <path
       id="path80"
       d="M 0,0 C 1.721,0.122 2.739,-3.15 3.115,-4.259 3.588,-5.655 5.951,-7.816 7.329,-6.53 7.584,-6.292 7.73,-5.651 7.88,-5.512 6.354,-6.937 4.469,-4.404 3.715,-3.22 3.053,-2.178 2.491,1.173 0.6,1.039 0.312,1.018 0.138,0.01 0,0"
       style="fill:#231f20;fill-opacity:1;fill-rule:nonzero;stroke:none"
       transform="matrix(1.3333333,0,0,-1.3333333,105.99733,86.512)"
       clip-path="url(#clipPath81)" />
    <path
       id="path82"
       d="m 0,0 c 0.088,-0.605 0.082,-1.227 0.028,-1.834 -0.043,-0.475 -0.094,-1.015 -0.476,-1.331 -0.21,-0.174 -0.165,0.11 -0.206,0.29 -0.371,1.624 -1.48,2.937 -3.225,3.01 -0.256,0.011 -0.504,-1.043 -0.6,-1.039 1.863,-0.077 3.069,-1.63 3.299,-3.395 0.008,0.004 0.017,0.007 0.025,0.011 C 0.473,-3.189 0.863,-0.76 0.6,1.039 0.635,0.799 -0.052,0.351 0,0"
       style="fill:#231f20;fill-opacity:1;fill-rule:nonzero;stroke:none"
       transform="matrix(1.3333333,0,0,-1.3333333,113.55987,95.623333)"
       clip-path="url(#clipPath83)" />
    <path
       id="path84"
       d="m 0,0 c 0.257,-1.226 0.384,-2.481 0.415,-3.731 0.021,-0.842 -0.053,-1.682 -0.243,-2.502 -0.28,-1.203 -1.449,-1.244 -1.953,-0.32 0.058,-0.106 -0.732,-0.797 -0.6,-1.039 1.147,-2.105 2.85,1.274 3.159,2.345 C 1.342,-3.294 1.013,-0.925 0.6,1.039 0.645,0.82 -0.071,0.336 0,0"
       style="fill:#231f20;fill-opacity:1;fill-rule:nonzero;stroke:none"
       transform="matrix(1.3333333,0,0,-1.3333333,111.93493,100.85773)"
       clip-path="url(#clipPath85)" />
    <path
       id="path86"
       d="m 0,0 c 1.087,-0.771 2.076,-1.736 2.825,-2.838 0.465,-0.683 1.132,-2.06 0.412,-2.766 -0.766,-0.75 -2.061,0.225 -2.638,0.75 -0.005,0.005 -0.725,-0.924 -0.6,-1.039 0.832,-0.756 2.065,-1.513 2.942,-0.475 0.595,0.702 1.132,1.574 1.193,2.511 C 4.261,-1.889 2.049,0.012 0.6,1.039 0.556,1.07 -0.103,0.072 0,0"
       style="fill:#231f20;fill-opacity:1;fill-rule:nonzero;stroke:none"
       transform="matrix(1.3333333,0,0,-1.3333333,112.09893,101.37067)"
       clip-path="url(#clipPath87)" />
    <path
       id="path88"
       d="m 0,0 c 2.379,-1.966 5.653,-2.639 8.542,-1.527 0.186,0.071 0.652,0.843 0.6,1.039 C 8.884,0.482 8.7,1.571 9.17,2.489 9.651,3.432 9.926,4.371 9.715,5.431 9.759,5.208 9.048,4.73 9.115,4.392 9.379,3.061 8.707,2.238 8.357,1.072 8.121,0.281 8.334,-0.748 8.542,-1.527 c 0.2,0.346 0.399,0.692 0.6,1.039 C 6.253,-1.6 2.979,-0.927 0.6,1.039 0.58,1.056 -0.118,0.097 0,0"
       style="fill:#231f20;fill-opacity:1;fill-rule:nonzero;stroke:none"
       transform="matrix(1.3333333,0,0,-1.3333333,89.0052,116.5348)"
       clip-path="url(#clipPath89)" />
    <path
       id="path90"
       d="M 0,0 C 1.845,-0.654 4.718,-1.603 6.554,-0.564 7.303,-0.14 7.814,1.061 7.8,1.88 7.79,2.44 7.569,3.024 7.477,3.581 7.299,4.664 7.124,5.759 6.835,6.818 6.889,6.622 6.147,6.1 6.235,5.779 6.584,4.501 6.779,3.175 6.987,1.867 7.04,1.532 7.159,1.239 7.193,0.893 7.233,0.5 6.973,0.319 7.233,0.544 6.843,0.207 6.257,0.136 5.764,0.094 4.061,-0.052 2.195,0.474 0.6,1.039 0.451,1.092 -0.019,0.007 0,0"
       style="fill:#231f20;fill-opacity:1;fill-rule:nonzero;stroke:none"
       transform="matrix(1.3333333,0,0,-1.3333333,100.39453,118.5712)"
       clip-path="url(#clipPath91)" />
    <path
       id="path92"
       d="M 0,0 C -0.826,-0.415 -1.545,0.313 -1.868,1.006 -1.873,1.016 -2.202,0.548 -2.22,0.517 -2.271,0.428 -2.521,0.082 -2.468,-0.033 c 0.344,-0.738 1.069,-1.412 1.917,-0.985 0.172,0.086 0.321,0.461 0.405,0.619 C -0.126,-0.363 0.062,0.032 0,0"
       style="fill:#231f20;fill-opacity:1;fill-rule:nonzero;stroke:none"
       transform="matrix(1.3333333,0,0,-1.3333333,113.26427,117.0752)"
       clip-path="url(#clipPath93)" />
    <path
       id="path94"
       d="m 0,0 c 0.027,-2.261 2.042,-4.365 3.6,-5.733 0.01,-0.01 0.722,0.931 0.6,1.039 -1.533,1.346 -3.567,3.45 -3.594,5.68 C 0.608,0.836 -0.004,0.326 0,0"
       style="fill:#231f20;fill-opacity:1;fill-rule:nonzero;stroke:none"
       transform="matrix(1.3333333,0,0,-1.3333333,88.345733,117.45533)"
       clip-path="url(#clipPath95)" />
    <path
       id="path96"
       d="m 0,0 c 0.745,-1.987 1.058,-4.2 0.778,-6.304 0.025,0.183 0.561,0.647 0.606,0.987 C 1.666,-3.201 1.35,-0.96 0.6,1.039 0.66,0.878 -0.109,0.292 0,0"
       style="fill:#231f20;fill-opacity:1;fill-rule:nonzero;stroke:none"
       transform="matrix(1.3333333,0,0,-1.3333333,97.940133,119.16373)"
       clip-path="url(#clipPath97)" />
    <path
       id="path98"
       d="m 0,0 c 0.245,-1.593 0.921,-3.712 2.532,-4.381 0.128,-0.054 0.637,1.024 0.6,1.039 C 1.52,-2.672 0.846,-0.554 0.6,1.039 0.637,0.802 -0.054,0.35 0,0"
       style="fill:#231f20;fill-opacity:1;fill-rule:nonzero;stroke:none"
       transform="matrix(1.3333333,0,0,-1.3333333,99.7096,118.77173)"
       clip-path="url(#clipPath99)" />
    <path
       id="path100"
       d="m 0,0 c -0.876,-0.901 -1.667,-1.907 -2.339,-2.969 -0.794,-1.255 -1.786,-2.842 -1.465,-4.389 -0.046,0.219 0.67,0.702 0.6,1.039 -0.416,2.002 1.339,3.95 2.653,5.301 C -0.306,-0.766 -0.149,-0.153 0,0"
       style="fill:#231f20;fill-opacity:1;fill-rule:nonzero;stroke:none"
       transform="matrix(1.3333333,0,0,-1.3333333,77.381467,88.538667)"
       clip-path="url(#clipPath101)" />
    <path
       id="path102"
       d="m 0,0 c -2.511,-3.659 -4.172,-8.353 -2.841,-12.736 -0.057,0.186 0.694,0.728 0.599,1.039 -1.092,3.599 -0.232,7.826 1.891,10.92 C -0.262,-0.648 0.266,0.387 0,0"
       style="fill:#231f20;fill-opacity:1;fill-rule:nonzero;stroke:none"
       transform="matrix(1.3333333,0,0,-1.3333333,81.422533,90.441733)"
       clip-path="url(#clipPath103)" />
    <path
       id="path104"
       d="m 0,0 c 2.797,0.987 6.197,-2.511 7.643,-4.483 1.11,-1.513 2.165,-3.066 3.125,-4.678 0.426,-0.717 0.808,-1.457 1.131,-2.227 0.121,-0.287 0.201,-0.583 0.272,-0.886 0.142,-0.618 0.692,-0.009 -0.194,0.024 -0.258,0.009 -0.502,-1.043 -0.6,-1.04 3.424,-0.125 -0.539,6.049 -1.007,6.776 C 9.309,-4.867 8.218,-3.169 6.823,-1.787 5.491,-0.468 2.727,1.79 0.6,1.039 0.271,0.923 0.217,0.077 0,0"
       style="fill:#231f20;fill-opacity:1;fill-rule:nonzero;stroke:none"
       transform="matrix(1.3333333,0,0,-1.3333333,98.563867,70.1428)"
       clip-path="url(#clipPath105)" />
    <path
       id="path106"
       d="m 0,0 c 0.157,-0.765 0.635,-1.529 1.409,-1.765 0.166,-0.05 0.602,1.039 0.6,1.039 C 1.234,-0.49 0.758,0.274 0.6,1.039 0.605,1.017 0.275,0.598 0.248,0.55 0.178,0.429 -0.031,0.152 0,0"
       style="fill:#231f20;fill-opacity:1;fill-rule:nonzero;stroke:none"
       transform="matrix(1.3333333,0,0,-1.3333333,105.306,119.7744)"
       clip-path="url(#clipPath107)" />
    <path
       id="path108"
       d="M 0,0 C 1.011,-0.556 2.302,-0.908 3.438,-0.605 5.357,-0.095 5.936,2.658 5.939,4.304 5.939,4.15 5.335,3.646 5.334,3.317 5.331,2.457 5.398,1.27 4.642,0.718 4.123,0.339 3.438,0.289 2.82,0.34 2.06,0.402 1.268,0.672 0.6,1.039 0.514,1.087 -0.072,0.039 0,0"
       style="fill:#231f20;fill-opacity:1;fill-rule:nonzero;stroke:none"
       transform="matrix(1.3333333,0,0,-1.3333333,103.9492,126.60387)"
       clip-path="url(#clipPath109)" />
    <path
       id="path110"
       d="m 0,0 c -0.877,0.473 -1.07,0.061 -1.751,-0.534 -0.168,-0.146 -0.64,-0.798 -0.575,-1.028 0.381,-1.363 0.735,-2.733 1.078,-4.106 0.307,-1.23 0.576,-2.469 0.818,-3.714 0.13,-0.662 0.211,-1.33 0.241,-2.004 0.486,0.344 0.524,0.514 0.116,0.507 -3.076,0.507 -5.832,-0.856 -7.507,-3.401 -2.498,-3.795 -4.501,-6.682 -3.694,-11.774 -0.038,0.236 0.654,0.691 0.599,1.039 -0.607,3.838 0.712,5.343 2.198,8.306 1.747,3.481 4.165,5.536 8.136,4.733 0.076,-0.016 0.243,0.309 0.27,0.352 1.743,2.76 -0.86,8.261 -1.656,11.101 -0.191,-0.343 -0.383,-0.686 -0.575,-1.028 0.585,0.73 1.153,0.901 1.702,0.512 C -0.51,-1.087 0.07,-0.038 0,0"
       style="fill:#231f20;fill-opacity:1;fill-rule:nonzero;stroke:none"
       transform="matrix(1.3333333,0,0,-1.3333333,83.1628,60.433867)"
       clip-path="url(#clipPath111)" />
  </g>
  <g
     id="layer-MC2">
    <path
       id="path112"
       d="M 3.7275375,-0.73291155 V -4.8967634e-4 H 0.29394375 V -0.81661691 L 1.7236313,-1.7687653 c 0.4453125,-0.2929688 0.7412109,-0.554548 0.890625,-0.7847378 0.1552734,-0.2301897 0.234375,-0.4394531 0.234375,-0.6277901 0,-0.2301898 -0.079102,-0.4237584 -0.234375,-0.5859375 -0.1494141,-0.1595634 -0.3457032,-0.2406529 -0.5859375,-0.2406529 -0.5390625,0 -0.8496094,0.3295898 -0.9257813,0.9835379 L 0.29394375,-3.2336091 c 0.0615234,-0.4106794 0.24609375,-0.7638114 0.55078125,-1.0567801 0.3046875,-0.2982004 0.7060547,-0.4499163 1.2070313,-0.4499163 0.515625,0 0.9257812,0.1464844 1.2304687,0.4394531 0.3046875,0.2929688 0.4570313,0.6670271 0.4570313,1.1195592 0,0.3976004 -0.1376954,0.7533482 -0.4101563,1.0672433 -0.2666016,0.313895 -0.9433594,0.7742745 -2.0273437,1.38113835 z m 2.2119141,0.80566406 c -0.5712891,0 -1.0136719,-0.21972656 -1.3242188,-0.65917969 C 4.3105453,-1.0311119 4.1582016,-1.596123 4.1582016,-2.2814607 c 0,-0.7376534 0.1582031,-1.3314383 0.4804687,-1.7787388 0.328125,-0.4525321 0.7646485,-0.680106 1.3125,-0.680106 0.3896485,0 0.7207031,0.1098633 0.9960938,0.3243582 0.2724609,0.2092634 0.4746093,0.5022322 0.609375,0.8789063 0.1318359,0.3714425 0.1992187,0.7193429 0.1992187,1.0463169 0,0.5519322 -0.064453,1.0044643 -0.1875,1.3602121 -0.1259765,0.35051619 -0.3251953,0.63825335 -0.5976562,0.86844308 -0.2753907,0.22495815 -0.6181641,0.33482143 -1.03125,0.33482143 z m 0,-0.65917969 c 0.234375,0 0.4248047,-0.0732422 0.5742187,-0.21972656 0.1464844,-0.14648437 0.2460938,-0.34790036 0.2929688,-0.60686386 0.052734,-0.264195 0.082031,-0.6277902 0.082031,-1.0881696 0,-0.3819057 -0.067383,-0.7455009 -0.1992187,-1.0881697 -0.1259766,-0.3479004 -0.3720703,-0.5231584 -0.7382813,-0.5231584 -0.6328125,0 -0.9492187,0.5859375 -0.9492187,1.7578125 0,0.5310058 0.064453,0.9599958 0.1992187,1.2869698 0.140625,0.32174249 0.3867188,0.48130582 0.7382815,0.48130582 z M 11.66992,-4.8967634e-4 H 8.1074203 V -0.69105887 h 1.40625 V -3.6312095 c -0.46875,0.4054478 -0.8964844,0.6853376 -1.2773437,0.8370535 v -0.8370535 c 0.3896484,-0.1464844 0.6328125,-0.2511161 0.7265625,-0.3138951 0.099609,-0.062779 0.2460937,-0.1778739 0.4335937,-0.3452846 0.1875,-0.1726423 0.319336,-0.3295899 0.3984375,-0.4708427 H 10.35742 v 4.07017303 h 1.3125 z m 3.899414,0 h -3.5625 V -0.69105887 h 1.40625 V -3.6312095 c -0.46875,0.4054478 -0.896484,0.6853376 -1.277343,0.8370535 v -0.8370535 c 0.389648,-0.1464844 0.632812,-0.2511161 0.726562,-0.3138951 0.09961,-0.062779 0.246094,-0.1778739 0.433594,-0.3452846 0.1875,-0.1726423 0.319336,-0.3295899 0.398437,-0.4708427 h 0.5625 v 4.07017303 h 1.3125 z M -94.302736,-1.546423 l 0.820313,-0.1778739 c 0.09375,0.4603795 0.46875,0.6905692 1.125,0.6905692 0.295898,0 0.521484,-0.057547 0.679687,-0.1778739 0.164063,-0.1177106 0.246094,-0.264195 0.246094,-0.4394531 0,-0.125558 -0.03516,-0.2406529 -0.105469,-0.3452846 -0.07031,-0.1098633 -0.228516,-0.1988002 -0.46875,-0.2615792 l -0.890625,-0.2301898 c -0.304687,-0.083705 -0.533203,-0.1726423 -0.679687,-0.2720424 -0.149415,-0.1046317 -0.266602,-0.2458845 -0.351563,-0.4289899 -0.08789,-0.1883371 -0.128906,-0.3871373 -0.128906,-0.5964007 0,-0.4185268 0.152344,-0.7533482 0.457031,-1.0044643 0.310547,-0.2511161 0.708984,-0.3766741 1.195313,-0.3766741 0.398437,0 0.752929,0.091553 1.066406,0.2720424 0.319336,0.1752581 0.521484,0.4237584 0.609375,0.7428851 l -0.796875,0.1988002 c -0.125977,-0.3557478 -0.410156,-0.5336217 -0.855469,-0.5336217 -0.266602,0 -0.46875,0.057548 -0.609375,0.1674108 -0.134766,0.1046317 -0.199219,0.2406529 -0.199219,0.4080636 0,0.2720424 0.213867,0.4603794 0.644532,0.5650111 l 0.796875,0.1988003 c 0.474609,0.1203264 0.796875,0.2982003 0.960937,0.5336216 0.164063,0.2380371 0.246094,0.4996164 0.246094,0.7847377 0,0.4551479 -0.172852,0.8135115 -0.515625,1.0777065 -0.345703,0.26681083 -0.791016,0.39760045 -1.335938,0.39760045 -0.46289,0 -0.867187,-0.0967843 -1.21875,-0.29296875 -0.345703,-0.19356864 -0.574218,-0.4943848 -0.691406,-0.8998326 z m 7.863281,1.11955916 h -3.023437 V -5.0934375 h 3 v 0.6905692 h -2.167969 v 1.2660435 h 1.746094 v 0.680106 h -1.746094 v 1.3078963 h 2.191406 z m 1.918946,0 h -0.832032 V -5.0934375 h 0.832032 z m 3.014648,0 h -0.902344 V -4.3714788 h -1.242187 v -0.7219587 h 3.386719 v 0.7219587 h -1.242188 z m 0,0"
       style="fill:#231f20;fill-opacity:1;fill-rule:nonzero;stroke:none"
       aria-label="2011&#10;SEIT"
       transform="matrix(1.3333333,0,0,1.4933333,147.5612,88.2312)" />
  </g>
</svg>
